<svg xmlns="http://www.w3.org/2000/svg" width="24" height="24"><path d="M5.25 6.376v13.498c0 1.237 1.013 2.15 2.25 2.15h9c1.237 0 2.137-.913 2.137-2.15V6.376zm1.763 1.871h9.752V18.8c0 .894-.731 1.538-1.625 1.538H8.639c-.894 0-1.626-.844-1.626-1.738zm12.861-4.746H4.126v1.85h15.748z"/><path d="M-1.498-1.498h26.996v26.996H-1.498z" fill="none"/><path d="M8.804 10.246h1.744v7.703H8.804zm4.382-.013h1.744v7.703h-1.744zM8.254.883h7.289v1.832H8.254z"/><path d="M5.248 3.984L8.25.892 9.5 2.105l-3 3.092zM15.527.879l3.05 3.044-1.23 1.233-3.05-3.044z"/></svg>