<svg xmlns="http://www.w3.org/2000/svg" viewBox="0 0 24 24"><path d="M15.752 4.59l.707-.706.707.707-.707.707zm2.847 2.93l.707-.708.707.707-.707.707z"/><path d="M18.5 12.2l-.1-.2L24 6.4 17.6 0 12 5.6l-.2-.2c-.7-.7-1.8-.7-2.5 0L.5 14.2c-.7.7-.7 1.8 0 2.5l6.7 6.7c.7.7 1.8.7 2.5 0l8.8-8.8c.7-.6.7-1.7 0-2.4zm-.9-10.8l4.9 4.9-4.9 4.9-4.9-4.9 4.9-4.9zm-10 15.5c0-.1 0-.3-.1-.4-.1-.1-.2-.1-.4-.1v-1c.4 0 .8.1 1.1.4.3.3.4.7.4 1.1h-1zm2.5 0c0-.8-.3-1.5-.9-2.1-.6-.6-1.4-.9-2.1-.9v-1c1 0 2 .4 2.8 1.2.8.8 1.2 1.8 1.2 2.8h-1zm2.5 0c0-1.4-.5-2.8-1.6-3.9s-2.5-1.6-3.9-1.6v-1c1.7 0 3.3.6 4.6 1.9s1.9 2.9 1.9 4.6h-1z"/></svg>