<svg xmlns="http://www.w3.org/2000/svg" width="1024" height="1024"><path d="M511.01 63.33c-247.173 0-447.538 200.381-447.538 447.538 0 247.161 200.365 447.543 447.538 447.543 247.162 0 447.543-200.382 447.543-447.543 0-247.157-200.382-447.539-447.543-447.539zm0 803.45c-196.562 0-355.907-159.327-355.907-355.91 0-196.58 159.345-355.909 355.907-355.909 196.585 0 355.911 159.328 355.911 355.908 0 196.584-159.326 355.911-355.91 355.911z"/><path d="M512.425 240.913c-69.262-3.296-69.51 90.337-56.731 181.248 12.73 90.55 29.1 174.167 29.1 174.167 3.049 15.262 15.64 21.285 27.629 20.904 25.374-.81 26.9-21.31 26.9-21.31s17.085-87.593 29.91-176.203c12.723-87.902 11.209-175.567-56.808-178.806zm-54.287 488.321a53.67 53.67 0 1 0 109.84 0 53.67 53.67 0 1 0-109.84 0z"/></svg>