<svg xmlns="http://www.w3.org/2000/svg" viewBox="0 0 24 24"><path fill="#006078" d="M8.5 17.3l2.8 2.8 2.7-2.7c-1.4-1.5-3.9-1.5-5.5-.1z"/><path fill="#006078" d="M5.7 14.5l1.4 1.4c2.3-2.2 6.1-2.2 8.4.1l1.4-1.4c-3.1-3.1-8.1-3.1-11.2-.1z"/><path fill="#006078" d="M2.9 11.7l1.4 1.4c3.9-3.8 10.2-3.8 14 .1l1.4-1.4c-4.6-4.7-12.1-4.7-16.8-.1z"/><path fill="#C1C1C1" d="M0 8.8l1.4 1.4c5.5-5.4 14.3-5.3 19.7.1l1.4-1.4C16.3 2.7 6.3 2.7 0 8.8z"/><path d="M23.5 15.2V14c0-1.1-.9-2-2-2s-2 .9-2 2v1.2c-.3.2-.5.5-.5.8v3c0 .5.5 1 1 1h3c.5 0 1-.5 1-1v-3c0-.3-.2-.6-.5-.8zM22 18.7h-1v-2h1v2zm.5-3.6h-2v-1c0-.6.4-1 1-1s1 .4 1 1v1z"/></svg>