<?xml version="1.0" encoding="utf-8"?><svg xmlns="http://www.w3.org/2000/svg" xmlns:xlink="http://www.w3.org/1999/xlink"><symbol viewBox="0 0 70 70" id="2clr_dcc" xmlns="http://www.w3.org/2000/svg"><path d="M67 40V30l-6.9-1.7c-.6-2.2-1.5-4.3-2.6-6.2l3.8-6.3-7.1-7.1-6.3 3.8c-1.9-1.1-4-2-6.2-2.6L40 3H30l-1.7 6.9c-2.1.6-4.2 1.4-6.1 2.5l-6.1-3.7-7.1 7 3.6 6c-1.2 2-2.1 4.2-2.7 6.5L3 30v10l6.9 1.7c.6 2.2 1.4 4.2 2.5 6.2 1.5-1.9 3.5-4.1 5.9-6.2-.8-2.1-1.3-4.4-1.3-6.7 0-9.9 8.1-18 18-18s18 8.1 18 18-8.1 18-18 18c-2.3 0-4.6-.5-6.6-1.3-2.1 2.3-4.4 4.3-6.2 5.9 1.9 1.1 4 1.9 6.1 2.5L30 67h10l1.7-6.9c2.3-.6 4.5-1.5 6.5-2.7l6 3.6 7.1-7.1-3.7-6.1c1.1-1.9 1.9-3.9 2.5-6.1L67 40z"/><path d="M21.3 55.8l-7.8 6.4.7 6.4 6.4-5zM6.4 49.5l-4.9 6.3 6.3.7 6.4-7.7z" fill="#e5a015"/><path d="M34 36c-12.8-1.3-24 17-24 17l-4.2 7.1c-.4.4.2 1.7 1.4 2.8s2.4 1.8 2.8 1.4l7.1-4.2C17 60.1 35.4 48.7 34 36zM23.4 46.6c-1.2-1.2-1.2-3.1 0-4.2s3.1-1.2 4.2 0c1.2 1.2 1.2 3.1 0 4.2-1.1 1.2-3 1.2-4.2 0zM8.5 66.1c-1.8 1.3-4 1.9-6.2 1.6-.2-2.2.4-4.4 1.6-6.2l-.4-.5S-.4 63.5 0 70c6.4.4 9-3.5 9-3.5l-.5-.4z" fill="#efbf2e"/></symbol><symbol viewBox="0 0 70 70" id="2clr_dlna" xmlns="http://www.w3.org/2000/svg"><path fill="#0CB14B" d="M59.61 32.624H33.375c-2.694 0-5.388 1.249-6.899 3.242v-.037c-1.511 2.088-3.953 3.457-6.744 3.457-4.599 0-8.322-3.729-8.322-8.328 0-4.605 3.723-8.334 8.322-8.334 2.792 0 5.233 1.375 6.744 3.47v-.037c1.511 1.993 4.205 3.262 6.899 3.262h25.964c.479-.013 2.236-.24 2.176-2.512-2.268-13.035-15.072-23.035-30.57-23.035-9.536 0-18.056 3.792-23.74 9.748-.912 1.35.038 1.766.896 1.886H25.04c2.694 0 5.388-1.281 6.902-3.281v.051c1.517-2.095 3.965-3.477 6.744-3.477 4.599 0 8.328 3.735 8.328 8.334 0 4.6-3.729 8.334-8.328 8.334-2.779 0-5.227-1.375-6.744-3.463v.037c-1.514-1.993-4.208-3.242-6.902-3.242H6.54l.069.006s-2.738-.158-4.404 2.202C.931 22.964 0 27.375 0 30.914c0 3.564.511 6.795 2.23 10.063 1.441 2.322 4.378 2.177 4.378 2.177l-.107.013H25.04c2.694 0 5.388-1.256 6.902-3.249v.044c1.517-2.095 3.965-3.47 6.744-3.47a8.332 8.332 0 0 1 0 16.662c-2.779 0-5.227-1.376-6.744-3.471v.045c-1.514-1.994-4.208-3.269-6.902-3.269H8.117c-.849.102-1.792.505-.972 1.792 5.681 5.987 14.233 9.798 23.8 9.798 15.526 0 28.349-10.019 30.576-23.097-.012-1.818-1.258-2.246-1.911-2.328"/><path fill="#231F20" d="M64.184 15.337h1.06v-4.366l1.116 4.366h1.01l1.13-4.328v4.328h1.072v-5.281H67.71l-.845 3.218-.82-3.218h-1.861m-2.779 5.331c-1.369 0-1.621-.795-1.555-1.716h1.098c0 .504.019.927.628.927.366 0 .555-.24.555-.593 0-.946-2.224-1.016-2.224-2.58 0-.82.394-1.482 1.738-1.482 1.079 0 1.609.485 1.54 1.583h-1.073c0-.391-.072-.795-.511-.795-.363 0-.568.202-.568.568 0 .997 2.214.908 2.214 2.567 0 1.363-1 1.521-1.842 1.521"/></symbol><symbol viewBox="0 0 64 64" id="2clr_info" xmlns="http://www.w3.org/2000/svg"><path d="M32.1 0C14.4 0 .1 14.3.1 32s14.3 32 32 32 32-14.3 32-32-14.3-32-32-32zm.4 15.3c1.9 0 3.5 1.6 3.5 3.5s-1.6 3.5-3.5 3.5-3.5-1.6-3.5-3.5 1.6-3.5 3.5-3.5zM38 50H27v-1.6c0-.2 1.1-.5 1.4-.8.3-.3.3-.8.4-1.4s.2-1.7.2-3.2V31.8c0-.8-.1-1.4-.1-1.9-.1-.5-.2-.9-.4-1.2-.2-.3-.6-.5-.9-.7s-.6-.2-1.6-.3V26h10v19.1c0 .5 0 .9.1 1.1 0 .3.1.5.2.7l.3.6c.1.2.3.3.5.5s.9.3.9.4V50z"/></symbol><symbol viewBox="0 0 70 70" id="2clr_palloc" xmlns="http://www.w3.org/2000/svg"><path d="M66 40v13H48V40h18m0-2H48c-1.1 0-2 .9-2 2v13c0 1.1.9 2 2 2h18c1.1 0 2-.9 2-2V40c0-1.1-.9-2-2-2z" fill="#efbf2e"/><path fill="#efbf2e" d="M65.3 31.7l-1.4-1.4-6.6 6.6-6.6-6.6-1.4 1.4 6.6 6.6 1.4 1.4 1.4-1.4zM27 37h-2c-1.1 0-2 .9-2 2v15c0 1.1.9 2 2 2h2c1.1 0 2-.9 2-2V39c0-1.1-.9-2-2-2zm-4.8 1H22c-1.1 0-2 .9-2 2v13c0 1.1.9 2 2 2h.2c-.1-.3-.2-.6-.2-1V39c0-.4.1-.7.2-1zM40 38H29.8c.1.3.2.6.2 1v15c0 .4-.1.7-.2 1H40c1.1 0 2-.9 2-2V40c0-1.1-.9-2-2-2zm-6 14h-2v-2h2v2zm0-3h-2v-2h2v2zm0-3h-2v-2h2v2zm3 6h-2v-2h2v2zm0-3h-2v-2h2v2zm0-3h-2v-2h2v2zm3 6h-2v-2h2v2zm0-3h-2v-2h2v2zm0-3h-2v-2h2v2zm0-4h-8v-2h8v2z"/><circle cx="15.5" cy="58.5" r="2.5" fill="none"/><circle cx="8.5" cy="58.5" r="2.5" fill="none"/><path d="M69.6 55c-.1-.6-.6-1.1-.6-1.7v.5c0 1.2-.7 2.2-1.9 2.2H46.9c-1.2 0-1.9-1-1.9-2.2V47h-2v6.6c0 1.2-1 2.4-2.2 2.4H29.7s-1.7 1-2.9 1h-2.6c-1.2 0-2.8-1-2.8-1h-.2C20 56 19 54.8 19 53.6V47h-3.6L15 15.1V15c-1-1-1-1.8-2-1.8s-2 .8-2 1.8v.1L10 47h-.6C4.8 47 1 50.6.2 55c-.1.5-.2 3.9-.2 4.5C0 64.7 4.2 69 9.4 69h51.2c5.2 0 9.3-4.4 9.3-9.5-.1-.6-.2-4-.3-4.5zM8.5 61C7.1 61 6 59.9 6 58.5S7.1 56 8.5 56s2.5 1.1 2.5 2.5S9.9 61 8.5 61zm7 0c-1.4 0-2.5-1.1-2.5-2.5s1.1-2.5 2.5-2.5 2.5 1.1 2.5 2.5-1.1 2.5-2.5 2.5z"/></symbol><symbol viewBox="0 0 70 70" id="2clr_pcontrol" xmlns="http://www.w3.org/2000/svg"><path d="M58 38v29s12-5 12-16.3V41l-12-3z" fill="#eab022"/><path d="M58 38v29s-12-5-12-16.3V41l12-3z" fill="#efbf2e"/><path d="M34.4 23c-3.7 0-6.8 3-6.8 6.8 0 3.7 3 6.8 6.8 6.8 3.7 0 6.8-3 6.8-6.8 0-3.7-3.1-6.8-6.8-6.8zm.1 8c-1.4 0-2.6-1.1-2.6-2.6s1.1-2.6 2.6-2.6S37 27 37 28.4 35.9 31 34.5 31zM24.3 12c-2.3 0-4.2 1.9-4.2 4.2 0 1.6 1 3.1 2.3 3.7 1.1-2.5 3-4.5 5.4-5.9-.6-1.2-1.9-2-3.5-2zm24.1 4.1c0-2.3-1.9-4.2-4.2-4.2-1.5 0-2.8.8-3.5 1.9 2.4 1.3 4.3 3.4 5.5 5.9 1.3-.6 2.2-2 2.2-3.6z" fill="none"/><circle cx="34.5" cy="28.4" r="2.6"/><path d="M45 48.5c-3.7-.2-7.4 2.5-8.9 6.7-1.7 5 .3 10.2 4.6 11.7 3.5 1.2 7.4-.5 9.7-3.9-2.8-2.8-5.4-6.8-5.4-12.2v-2.3z"/><ellipse transform="rotate(-19.201 25.109 57.845)" cx="25.1" cy="57.8" rx="8.2" ry="9.5"/><path d="M57.4 37.1c-.2-.1-.4-.2-.5-.3 0 0-5.2-2.7-12.4-3.4 1.8-2.2 2.9-5.1 2.9-8.2 0-.8-.1-1.5-.2-2.3 2.6-1.2 4.5-3.8 4.5-6.9 0-4.1-3.3-7.5-7.5-7.5-2.9 0-5.4 1.6-6.6 4-1-.3-2.1-.4-3.2-.4-1.2 0-2.3.2-3.4.4-1.2-2.4-3.7-4-6.6-4-4.1 0-7.5 3.3-7.5 7.5 0 3.1 1.9 5.8 4.7 6.9-.1.7-.2 1.5-.2 2.2 0 3.1 1.1 6 2.9 8.2-7.1.9-12.3 3.6-12.3 3.6-1.6.6-2.7 2.1-2.7 3.9 0 2.3 1.9 4.2 4.2 4.2.3 0 .5 0 .7-.1.5-.1 1-.3 1.5-.6 1.5-.6 4.2-1.5 7.2-2.2-.3 1-.4 2-.4 3.1v1c.6-.1 1.2-.2 1.9-.2 1.2 0 2.4.2 3.6.7.8-2.8 3.3-4.8 6.4-4.8 3.1 0 5.7 2.1 6.4 5 1.3-.5 2.6-.8 3.9-.8h.3v-5.7l12.4-3.3zM22.5 19.8c-1.4-.7-2.3-2.1-2.3-3.7 0-2.3 1.9-4.2 4.2-4.2 1.5 0 2.8.8 3.6 2-2.4 1.4-4.3 3.5-5.5 5.9zm11.9 16.8c-3.7 0-6.8-3-6.8-6.8 0-3.7 3-6.8 6.8-6.8 3.7 0 6.8 3 6.8 6.8 0 3.7-3.1 6.8-6.8 6.8zm6.3-22.7c.7-1.2 2-1.9 3.5-1.9 2.3 0 4.2 1.9 4.2 4.2 0 1.6-.9 3-2.2 3.7-1.2-2.6-3.1-4.7-5.5-6z"/></symbol><symbol viewBox="0 0 70 70" id="2clr_print" xmlns="http://www.w3.org/2000/svg"><path d="M62 25H8c-2.2 0-4 1.8-4 4v20c0 2.2 1.8 4 4 4h5V34h44v19h5c2.2 0 4-1.8 4-4V29c0-2.2-1.8-4-4-4z"/><g fill="#efbf2e"><path d="M14 64h42V35H14v29zm3-26h36v23H17V38z"/><path d="M20 42h30v3H20zm0 6h30v3H20zm0 6h15v3H20zM42 6H14v17h3V9h25v11h11v3h3v-3z"/></g></symbol><symbol viewBox="0 0 70 70" id="2clr_skydns" xmlns="http://www.w3.org/2000/svg"><path d="M34.1 70.1c-22-7.7-29.2-39.3-31.7-59.8 12.9.5 26-3.8 32.2-10.2 6.1 6.4 19.1 10.4 32.2 9.9-2.5 20.5-10.6 52.4-32.7 60.1z" fill-rule="evenodd" clip-rule="evenodd" fill="#61a2c0"/><path d="M34.3.4l.4-.4c6.1 6.4 19.2 10.4 32.2 9.9C64.4 30.5 56.4 62.4 34.3 70V.4z" fill-rule="evenodd" clip-rule="evenodd" fill="#2a2a26"/></symbol><symbol viewBox="0 0 70 70" id="2clr_torrent" xmlns="http://www.w3.org/2000/svg"><path d="M44 33V8H26v25H15l20 18 20-18z"/><path fill="#efbf2e" d="M59 47v10H11V47H5v16h60V47z"/></symbol><symbol viewBox="0 0 70 70" id="2clr_wifilim" xmlns="http://www.w3.org/2000/svg"><path d="M58 36v29s12-5 12-16.3V39l-12-3z" fill="#eab022"/><path d="M58 36v29s-12-5-12-16.3V39l12-3z" fill="#efbf2e"/><path d="M26.4 51.3l8.7 8.7 8.4-8.4c-4.3-4.7-12.1-4.7-17.1-.3zM45.7 38c-9.1-4.3-20.4-2.8-27.9 4.5l4.4 4.4c6.2-5.9 15.8-6.7 22.9-2.2v-6.5l.6-.2z"/><path d="M60 35.5l1.3-1.3C47 19.6 23.6 19.6 9 33.9l4.4 4.4c11.2-11 28.7-11.8 40.7-2.3l3.9-1 2 .5z"/><path d="M65.6 29.5l4.4-4.4C50.7 5.9 19.6 5.9 0 24.8l4.4 4.4c17.1-16.8 44.4-16.5 61.2.3z"/></symbol><symbol viewBox="0 0 70 70" id="2clr_wifiset" xmlns="http://www.w3.org/2000/svg"><path d="M70 52.8v-4.5l-3.1-.8c-.3-1-.7-1.9-1.2-2.8l1.7-2.8-3.2-3.2-2.8 1.7c-.9-.5-1.8-.9-2.8-1.2l-.8-3.1h-4.5l-.8 3.1c-1 .3-1.9.6-2.7 1.1L47 38.6l-3.2 3.2 1.6 2.7c-.5.9-1 1.9-1.2 2.9l-3.1.8v4.5l3.1.8c.3 1 .7 2 1.2 2.9L43.8 59l3.2 3.2 2.6-1.6c.9.5 1.8.9 2.9 1.2l.8 3.1h4.5l.8-3.1c1-.3 2-.7 2.9-1.2l2.7 1.6 3.2-3.2-1.7-2.8c.5-.9.9-1.8 1.1-2.7l3.2-.7zm-14.4 4.8c-3.9 0-7-3.1-7-7s3.1-7 7-7 7 3.1 7 7-3.1 7-7 7z" fill="#efbf2e"/><path d="M40 53.6v-4.5c-4.3-1.9-9.7-1.1-13.6 2.2l8.7 8.7 6.1-6.1-.4-.1-.8-.2zm6.1-15.4c-9.2-4.6-20.7-3.1-28.4 4.3l4.4 4.4C28 41.3 37 40.3 44 44.1l-1-1.7-.4-.7.6-.6 2.9-2.9z"/><path d="M9 33.9l4.4 4.4C24.2 27.7 40.9 26.5 52.8 35h5.8l.2.8.2.7 2.3-2.3C47 19.6 23.6 19.6 9 33.9z"/><path d="M0 24.8l4.4 4.4c17.1-16.8 44.5-16.5 61.3.3l4.4-4.4C50.7 5.9 19.6 5.9 0 24.8z"/></symbol><symbol viewBox="0 0 70 70" id="2clr_yadns" xmlns="http://www.w3.org/2000/svg"><path d="M21 22h-2.1v10H21c1 0 1.7-.4 2.3-1.1.6-.7.9-1.6.9-2.7v-2.4c0-1.1-.3-2-.9-2.7-.6-.8-1.4-1.1-2.3-1.1z"/><path d="M35 0L6.7 7.1V30C6.7 56.6 35 68.4 35 68.4s3.7-1.6 8.4-4.8c-2-2.6-3.2-5.8-3.2-9.3 0-8.5 7-15.5 15.5-15.5 2.1 0 4.2.4 6.1 1.2.9-3.1 1.4-6.4 1.4-10V7.1L35 0zm-7.9 28.2c0 1.8-.6 3.2-1.7 4.3-1.1 1.1-2.6 1.7-4.4 1.7h-5V19.7h5c1.8 0 3.2.6 4.4 1.7 1.1 1.1 1.7 2.6 1.7 4.3v2.5zm13.9 6h-2.9l-5.8-9.7h-.1v9.7h-2.9V19.7h2.9l5.8 9.7h.1v-9.7H41v14.5zm11.6-.9c-1 .7-2.2 1.1-3.8 1.1-1.6 0-2.9-.4-4-1.2-1.1-.8-1.7-1.9-1.6-3.5v-.1H46c0 .9.3 1.5.8 1.9.5.4 1.2.6 2 .6s1.4-.2 1.8-.5.6-.8.6-1.3c0-.6-.2-1-.6-1.3-.4-.3-1.1-.7-2-1-1.7-.5-2.9-1.1-3.8-1.8-.9-.7-1.3-1.6-1.3-2.8 0-1.2.5-2.1 1.5-2.9s2.2-1.1 3.7-1.1c1.6 0 2.9.4 3.9 1.2 1 .8 1.4 1.9 1.4 3.2v.1h-2.8c0-.7-.2-1.3-.7-1.7-.4-.4-1-.6-1.8-.6-.7 0-1.3.2-1.7.5s-.6.8-.6 1.3.2.9.6 1.2c.4.3 1.2.6 2.2 1 1.6.4 2.8 1 3.6 1.8.8.7 1.2 1.7 1.2 2.9.1 1.3-.4 2.3-1.4 3z"/><g fill="#e13c3c"><path d="M55.5 39.8c-8 0-14.5 6.5-14.5 14.5s6.5 14.5 14.5 14.5S70 62.3 70 54.3s-6.5-14.5-14.5-14.5zM59 62.4h-1.8v-6.3h-1.5L53 62.4h-2l3.1-6.7c-1.4-.7-2.4-2.1-2.4-4.5 0-3.4 2.2-5.2 4.8-5.2H59v16.4z"/><path d="M53.5 51.2c0 2.6 1.3 3.5 2.8 3.5h.9v-7.2h-.9c-1.4 0-2.8.9-2.8 3.7z"/></g></symbol><symbol viewBox="0 0 24 24" id="add-circle-outline" xmlns="http://www.w3.org/2000/svg"><path d="M0 0h24v24H0z" fill="none"/><path d="M13 7h-2v4H7v2h4v4h2v-4h4v-2h-4V7zm-1-5C6.48 2 2 6.48 2 12s4.48 10 10 10 10-4.48 10-10S17.52 2 12 2zm0 18c-4.41 0-8-3.59-8-8s3.59-8 8-8 8 3.59 8 8-3.59 8-8 8z"/></symbol><symbol viewBox="0 0 24 24" id="add_icon" xmlns="http://www.w3.org/2000/svg"><path d="M21.545 12.869H12.87v8.676h-1.738V12.87H2.455v-1.738h8.676V2.455h1.738v8.676h8.676z"/><path d="M0 0h24v24H0z" fill="none"/></symbol><symbol viewBox="0 0 21 17" id="alarm" xmlns="http://www.w3.org/2000/svg"><path fill="none" d="M-1-1h23v19H-1z"/><path fill="none" d="M0 0h24v24H0V0z"/><path d="M18.508.617h-16c-1.1 0-1.99.9-1.99 2l-.01 12c0 1.1.9 2 2 2h16c1.1 0 2-.9 2-2v-12c0-1.1-.9-2-2-2zm0 14h-16v-10l8 5 8-5v10zm-8-7l-8-5h16l-8 5z"/></symbol><symbol viewBox="0 0 25 16" id="apply" xmlns="http://www.w3.org/2000/svg"><path d="M22.7 2.2L21.3.8 9.2 12.9 3.6 7.3 2.2 8.7l5.6 5.6 1.4 1.4 1.4-1.4z"/></symbol><symbol viewBox="0 0 24 24" id="arrow" xmlns="http://www.w3.org/2000/svg"><rect width="100%" height="100%" fill="none"/><path d="M20 12l-1.41-1.41L13 16.17V4h-2v12.17l-5.58-5.59L4 12l8 8 8-8z"/></symbol><symbol viewBox="0 0 24 24" id="arrow-revert" xmlns="http://www.w3.org/2000/svg"><path d="M0 0h24v24H0z" fill="none"/><path d="M12.5 8c-2.65 0-5.05.99-6.9 2.6L2 7v9h9l-3.62-3.62c1.39-1.16 3.16-1.88 5.12-1.88 3.54 0 6.55 2.31 7.6 5.5l2.37-.78C21.08 11.03 17.15 8 12.5 8z"/></symbol><symbol viewBox="0 0 24 24" id="arrow_down" xmlns="http://www.w3.org/2000/svg"><path d="M7.41 8.59L12 13.17l4.59-4.58L18 10l-6 6-6-6 1.41-1.41z"/><path fill="none" d="M0 0h24v24H0V0z"/></symbol><symbol viewBox="0 0 24 24" id="arrow_first" xmlns="http://www.w3.org/2000/svg"><path d="M18.41 16.59L13.82 12l4.59-4.59L17 6l-6 6 6 6zM6 6h2v12H6z"/><path d="M0 0h24v24H0z" fill="none"/></symbol><symbol viewBox="0 0 24 24" id="arrow_last" xmlns="http://www.w3.org/2000/svg"><path d="M5.59 7.41L10.18 12l-4.59 4.59L7 18l6-6-6-6zM16 6h2v12h-2z"/><path fill="none" d="M0 0h24v24H0V0z"/></symbol><symbol viewBox="0 0 24 24" id="arrow_left" xmlns="http://www.w3.org/2000/svg"><path d="M15.41 7.41L14 6l-6 6 6 6 1.41-1.41L10.83 12z"/><path d="M0 0h24v24H0z" fill="none"/></symbol><symbol viewBox="0 0 24 24" id="arrow_right" xmlns="http://www.w3.org/2000/svg"><path d="M8.59 16.59L13.17 12 8.59 7.41 10 6l6 6-6 6-1.41-1.41z"/><path fill="none" d="M0 0h24v24H0V0z"/></symbol><symbol viewBox="0 0 24 24" id="back_arrow" xmlns="http://www.w3.org/2000/svg"><path d="M16.67 0l2.83 2.829-9.339 9.175 9.339 9.167L16.67 24 4.5 12.004z"/></symbol><symbol viewBox="0 0 42 42" id="backup" xmlns="http://www.w3.org/2000/svg"><path d="M23.1 37.8c-1.6.1-3.3.2-5.1.2-8.8 0-16-1.8-16-4v-3.9C6.2 32.8 15.7 33 18 33c.7 0 2.2 0 4-.1 0-.7.1-1.4.2-2-1.3 0-2.7.1-4.2.1-8.8 0-16-1.8-16-4v-3.9C6.2 25.8 15.7 26 18 26c1.1 0 3.9 0 6.9-.4 1-1.1 2.2-1.9 3.5-2.6-2.8.6-6.4 1-10.3 1-8.8 0-16-1.8-16-4v-3.9C6.2 18.8 15.7 19 18 19s11.8-.2 16-2.9V20c0 .8-.9 1.5-2.4 2.1.5-.1.9-.1 1.4-.1 1 0 2 .2 3 .4V7h-.2c.1-.3.2-.6.2-1 0-5.7-15-6-18-6S0 .3 0 6c0 .4.1.7.2 1H0v27c0 5.7 15 6 18 6 1 0 3.5 0 6.3-.3-.5-.6-.9-1.2-1.2-1.9zM18 2c8.8 0 16 1.8 16 4s-7.2 4-16 4S2 8.2 2 6s7.2-4 16-4zM2 9.1C6.2 11.8 15.7 12 18 12s11.8-.2 16-2.9V13c0 2.2-7.2 4-16 4S2 15.2 2 13V9.1zM41 24v6h-6z"/><path d="M33 40c-3.9 0-7-3.1-7-7s3.1-7 7-7c2.4 0 4.5 1.2 5.7 3H41c-1.5-3-4.5-5-8-5-5 0-9 4-9 9s4 9 9 9 9-4 9-9h-2c0 3.9-3.1 7-7 7z"/></symbol><symbol viewBox="0 0 24 24" id="connections" xmlns="http://www.w3.org/2000/svg"><path d="M13 11l8.5-4.5L13 2v3H3v3h10zm-2 1l-8.5 4.5L11 21v-3h10v-3H11z"/></symbol><symbol viewBox="0 0 24 24" id="connections2" xmlns="http://www.w3.org/2000/svg"><path d="M3 10V5c0-.6.4-1 1-1h7c.6 0 1 .4 1 1v1h2V5c0-1.7-1.3-3-3-3H4C2.3 2 1 3.3 1 5v5c0 1.7 1.3 3 3 3h4v-2H4c-.6 0-1-.4-1-1zm-2 5c0 .6.4 1 1 1h6v-2H2c-.6 0-1 .4-1 1z"/><path d="M20 7h-8c-1.7 0-3 1.3-3 3v6c0 1.7 1.3 3 3 3h8c1.7 0 3-1.3 3-3v-6c0-1.7-1.3-3-3-3zm1 9c0 .6-.4 1-1 1h-8c-.6 0-1-.4-1-1v-6c0-.6.4-1 1-1h8c.6 0 1 .4 1 1v6zm1 4H10c-.6 0-1 .4-1 1s.4 1 1 1h12c.6 0 1-.4 1-1s-.4-1-1-1z"/></symbol><symbol viewBox="0 0 32 32" id="cross" xmlns="http://www.w3.org/2000/svg"><path d="M31.5 3.7L27.8 0l-12 12-12-12L0 3.7l12.1 12L0 27.7l3.8 3.7 12-12 12 12 3.7-3.7-12-12z"/></symbol><symbol viewBox="0 0 42 42" id="cross-light" xmlns="http://www.w3.org/2000/svg"><path d="M36.6 6.9l-1.5-1.5L21 19.6 6.9 5.4 5.4 6.9 19.6 21 5.4 35.1l1.5 1.5L21 22.4l14.1 14.2 1.5-1.5L22.4 21z"/></symbol><symbol viewBox="0 0 42 42" id="cross-medium" xmlns="http://www.w3.org/2000/svg"><path d="M36.9 7.2l-2.1-2.1L21 18.9 7.2 5.1 5.1 7.2 18.9 21 5.1 34.8l2.1 2.1L21 23.1l13.8 13.8 2.1-2.1L23.1 21z"/></symbol><symbol viewBox="0 0 24 24" id="dcc" xmlns="http://www.w3.org/2000/svg"><path d="M22.5 8.4c-.2-.8-.7-1.4-1.5-1.5L17.2 6l-1.3-3.7c-.3-.7-.9-1.2-1.7-1.3H14c-.7 0-1.3.4-1.7 1l-2 3.3-3.9.1c-.8 0-1.5.5-1.8 1.2-.3.7-.2 1.5.3 2.1l2.5 2.9-.9 3-6.3 6.3c-.4.4-.4 1 0 1.4l1.4 1.4c.4.4 1 .4 1.4 0l6-6 3.5-1.5 3.2 2.2c.3.2.7.4 1.1.4.3 0 .7-.1 1-.3.7-.4 1.1-1.1 1-1.9l-.3-3.9 3.1-2.4c.7-.3 1-1.1.9-1.9zm-6 3.5l.4 5-4-2.9-4.6 1.9 1.4-4.8-3.3-3.7 5-.1L14 3l1.6 4.7 4.9 1.1-4 3.1z"/></symbol><symbol viewBox="0 0 24 24" id="delete_icon" xmlns="http://www.w3.org/2000/svg"><path d="M5.25 6.376v13.498c0 1.237 1.013 2.15 2.25 2.15h9c1.237 0 2.137-.913 2.137-2.15V6.376zm1.763 1.871h9.752V18.8c0 .894-.731 1.538-1.625 1.538H8.639c-.894 0-1.626-.844-1.626-1.738zm12.861-4.746H4.126v1.85h15.748z"/><path d="M-1.498-1.498h26.996v26.996H-1.498z" fill="none"/><path d="M8.804 10.246h1.744v7.703H8.804zm4.382-.013h1.744v7.703h-1.744zM8.254.883h7.289v1.832H8.254z"/><path d="M5.248 3.984L8.25.892 9.5 2.105l-3 3.092zM15.527.879l3.05 3.044-1.23 1.233-3.05-3.044z"/></symbol><symbol viewBox="0 0 90 74" id="device" xmlns="http://www.w3.org/2000/svg"><path d="M73.9 64.8h-3.1c-1.1 0-2-.9-2-2v-3.1c0-1.1.9-2 2-2h3.1c1.1 0 2 .9 2 2v3.1c0 1.1-.9 2-2 2zm-9.9 0h-3.1c-1.1 0-2-.9-2-2v-3.1c0-1.1.9-2 2-2H64c1.1 0 2 .9 2 2v3.1c0 1.1-.9 2-2 2zm-9.9 0H51c-1.1 0-2-.9-2-2v-3.1c0-1.1.9-2 2-2h3.1c1.1 0 2 .9 2 2v3.1c0 1.1-.9 2-2 2zM75 6h7v3h-7z"/><path d="M86 48h-4V10h-7v38H4c-2.2 0-4 1.8-4 4v18c0 2.2 1.8 4 4 4h82c2.2 0 4-1.8 4-4V52c0-2.2-1.8-4-4-4zm-4 18c0 2.2-1.8 4-4 4H14c-2.2 0-4-1.8-4-4V56c0-2.2 1.8-4 4-4h64c2.2 0 4 1.8 4 4v10zm0-61V1.5C82 .4 81.1 0 80 0h-2.9C76 0 75 .4 75 1.5V5h7z"/></symbol><symbol viewBox="0 0 104 112" id="device-error" xmlns="http://www.w3.org/2000/svg"><path d="M95.6 16.1l4.4-4.4C92.2 3.9 82.2 0 72.2 0s-20 3.9-27.8 11.7l4.4 4.4c6.7-6.1 15-9.4 23.3-9.4s16.8 3.3 23.5 9.4zm-5 4.5c-5-5-11.7-7.8-18.3-7.8-6.7 0-13.3 2.8-18.3 7.8l4.4 4.4c3.9-3.9 8.9-5.6 13.9-5.6s10 1.7 13.9 5.6l4.4-4.4zm-1.7 35H77.8V33.3H66.7v22.2H11.1C5 55.6 0 60.6 0 66.7v22.2C0 95 5 100 11.1 100h77.8c6.1 0 11.1-5 11.1-11.1V66.7c0-6.1-5-11.1-11.1-11.1zM27.8 83.3H16.7V72.2h11.1v11.1zm19.4 0H36.1V72.2h11.1v11.1zm19.5 0H55.6V72.2h11.1v11.1z"/><path fill="#fff" d="M70.7 86.1h24.7v11H70.7z"/><path fill="#cd2028" d="M83.8 71.3c-11 0-20 9-20 20s9 20 20 20 20-9 20-20-8.9-20-20-20zm10 22h-20v-4h20v4z"/></symbol><symbol id="device-ok" viewBox="0 0 104 112" xml:space="preserve" xmlns="http://www.w3.org/2000/svg"><style>.bhst0{fill:#010101}</style><path class="bhst0" d="M59.6 27.5c3.9-3.9 8.9-5.6 13.9-5.6s10 1.7 13.9 5.6l4.4-4.4c-5-5-11.7-7.8-18.3-7.8-6.7 0-13.3 2.8-18.3 7.8l4.4 4.4z"/><path class="bhst0" d="M73.4 9.2c8.3 0 16.7 3.3 23.4 9.4l4.4-4.4C93.5 6.4 83.5 2.5 73.5 2.5s-20 3.9-27.8 11.7l4.4 4.4c6.7-6.1 15-9.4 23.3-9.4zM61.1 85.8h-4.3V74.7h11.1c4-3.5 9.2-5.7 14.9-5.7 7.7 0 14.5 3.9 18.5 9.8v-9.6c0-6.1-5-11.1-11.2-11.1H79V35.8H67.9V58H12.4C6.3 58 1.3 63 1.3 69.1v22.2c0 6.1 5 11.1 11.1 11.1h50.9c-1.8-3.2-2.9-7-2.9-11 0-1.9.2-3.8.7-5.6zm-32.1 0H17.9V74.7H29v11.1zm19.5 0H37.4V74.7h11.1v11.1z"/><path class="bhst0" d="M82.8 72.4c-10.5 0-19 8.5-19 19s8.5 19 19 19 19-8.5 19-19-8.6-19-19-19zm-4.2 28.7L75 97.6l-6-6 3.5-3.6 6 6 12.4-12.4 3.5 3.6-15.8 15.9z"/></symbol><symbol viewBox="0 0 104 112" id="device-warn" xmlns="http://www.w3.org/2000/svg"><path d="M95.6 16.1l4.4-4.4C92.3 3.9 82.3 0 72.3 0s-20 3.9-27.8 11.7l4.4 4.4c6.7-6.1 15-9.4 23.3-9.4s16.7 3.3 23.4 9.4zm-5 4.5c-5-5-11.7-7.8-18.3-7.8-6.7 0-13.3 2.8-18.3 7.8l4.4 4.4c3.9-3.9 8.9-5.6 13.9-5.6s10 1.7 13.9 5.6l4.4-4.4zm-1.7 35H77.8V33.3H66.7v22.2H11.2C5.1 55.5.1 60.5.1 66.6v22.2c0 6.1 5 11.1 11.1 11.1H89c6.1 0 11.1-5 11.1-11.1V66.7c0-6.1-5-11.1-11.2-11.1zM27.8 83.3H16.7V72.2h11.1v11.1zm19.5 0H36.2V72.2h11.1v11.1zm19.4 0H55.6V72.2h11.1v11.1z"/><path fill="#232323" d="M78.1 86.2h8.3v21.7h-8.3z"/><path fill="#dcbd26" d="M59.9 111h44l-22-38-22 38zm24-6h-4v-4h4v4zm0-8h-4v-8h4v8z"/></symbol><symbol viewBox="0 0 24 24" id="download" xmlns="http://www.w3.org/2000/svg"><path d="M12 19l-5-5h3v-4h4v4h3M10 4h4v2h-4m10 0h-4V4l-2-2h-4L8 4v2H4c-1.11 0-2 .89-2 2v11a2 2 0 0 0 2 2h16a2 2 0 0 0 2-2V8a2 2 0 0 0-2-2z"/></symbol><symbol viewBox="0 0 24 24" id="drop_down" xmlns="http://www.w3.org/2000/svg"><path d="M7 10l5 5 5-5z"/><path d="M0 0h24v24H0z" fill="none"/></symbol><symbol viewBox="0 0 24 24" id="drop_up" xmlns="http://www.w3.org/2000/svg"><path d="M7 14l5-5 5 5z"/><path d="M0 0h24v24H0z" fill="none"/></symbol><symbol viewBox="0 0 24 24" id="edit_icon" xmlns="http://www.w3.org/2000/svg"><path d="M18 1.586L22.414 6l-16 16H2v-4.414l16-16zM4 18.414V20h1.586l14-14L18 4.414l-14 14z"/><path d="M17.793 9.207l-3-3 1.414-1.414 3 3-1.414 1.414z"/></symbol><symbol viewBox="0 0 24 24" id="exit" xmlns="http://www.w3.org/2000/svg"><path d="M8 19H6c-.6 0-1-.4-1-1V6c0-.6.4-1 1-1h10.8c-.4-1.2-1.5-2-2.8-2H6C4.3 3 3 4.3 3 6v12c0 1.7 1.3 3 3 3h8c1.3 0 2.4-.8 2.8-2H8z"/><path d="M20.7 12L15 6.3V10H8v4h7v3.7z"/></symbol><symbol viewBox="0 0 42 42" id="factory" xmlns="http://www.w3.org/2000/svg"><path d="M21 2c5.5 0 10.4 2.3 13.9 6.1L31 12h9V3l-3.7 3.7C32.5 2.6 27.1 0 21 0 9.4 0 0 9.4 0 21h2C2 10.5 10.5 2 21 2zm0 38c-5.5 0-10.4-2.3-13.9-6.1L11 30H2v9l3.7-3.7C9.5 39.4 14.9 42 21 42c11.6 0 21-9 21-21h-2c0 11-8.5 19-19 19z"/></symbol><symbol viewBox="0 0 18 22" id="file" xmlns="http://www.w3.org/2000/svg"><path d="M9 5V0H2C.9 0 0 .9 0 2v18c0 1.1.9 2 2 2h14c1.1 0 2-.9 2-2V9h-5c-2.2 0-4-1.8-4-4z"/><path d="M13 7h5l-7-7v5c0 1.1.9 2 2 2z"/></symbol><symbol viewBox="0 0 24 24" id="firewall" xmlns="http://www.w3.org/2000/svg"><path d="M12 2.7c2.6 2.1 5.4 2.4 7 2.4 1 0 1.6-.1 1.6-.1s.4 12.9-8.5 16.2C3.1 17.9 3.5 5 3.5 5s.5.1 1.4.1c1.7 0 4.6-.3 7.1-2.4m0-2c-.5 0-.9.2-1.3.5-2 1.6-4.3 2-5.8 2-.7 0-1.1-.1-1.1-.1-.1-.1-.2-.1-.3-.1-.5 0-.9.2-1.3.5-.4.4-.7.9-.7 1.5S1.2 19.1 11 23c.2.1.5.2.8.2h.2c.4 0 .7-.1 1-.3 9.8-4 9.5-17.5 9.5-18 0-.6-.3-1.1-.8-1.5-.3-.2-.7-.4-1.1-.4h-.4s-.4.1-1.1.1c-1.5 0-3.7-.3-5.8-2-.4-.2-.8-.4-1.3-.4z"/></symbol><symbol viewBox="0 0 42 42" id="firmware_remote_update" xmlns="http://www.w3.org/2000/svg"><path d="M36.5 16c.1-.4.1-.9.1-1.3C36.6 9 32 4.3 26.2 4.3c-3.4 0-6.5 1.7-8.4 4.3-.7-.1-1.3-.2-2-.2-5.3 0-9.5 4.3-9.5 9.5v.1C2.7 19.1 0 22.5 0 26.6c0 4.8 3.7 8.7 8.4 9.1h23C37.3 35.7 42 31 42 25.2c0-4-2.2-7.5-5.5-9.2zm-5 17.7H8.6C4.9 33.4 2 30.3 2 26.6c0-3.1 2-5.8 4.9-6.8l1.4-.5v-1.6c0-4.1 3.4-7.5 7.5-7.5.5 0 1.1.1 1.6.2l1.3.3.8-1c1.6-2.2 4.1-3.4 6.7-3.4 4.6 0 8.4 3.8 8.4 8.4 0 .3 0 .6-.1 1l-.2 1.3 1.2.7c2.7 1.5 4.4 4.4 4.4 7.5.1 4.7-3.7 8.5-8.4 8.5z"/><path d="M21 28.7c-3.3 0-6-2.7-6-6s2.6-5.9 5.9-6v2.7l6.9-3.9-6.9-3.9v3c-4.4 0-7.9 3.6-7.9 8s3.6 8 8 8 8-3.6 8-8h-2c0 3.4-2.7 6.1-6 6.1z"/></symbol><symbol viewBox="0 0 26 22" id="folder" xmlns="http://www.w3.org/2000/svg"><path d="M24 3H12L9 0H2C.9 0 0 .9 0 2v18c0 1.1.9 2 2 2h22c1.1 0 2-.9 2-2V5c0-1.1-.9-2-2-2z"/></symbol><symbol viewBox="0 0 19 16" id="go_to_menu" xmlns="http://www.w3.org/2000/svg"><path d="M-3-2h24v24H-3z" fill="none"/><path d="M0 16h19v-2.667H0zm0-6.667h19V6.667H0zM0 0v2.667h19V0z"/></symbol><symbol viewBox="0 0 626 626" id="go_to_page" xmlns="http://www.w3.org/2000/svg"><path d="M391 176.8v57.9l-27.6.7c-117 2.9-196.4 27.6-260.3 80.9-8.5 7.1-31.6 30.8-37.2 38.2-2.1 2.7-6.4 8.4-9.6 12.5-15.8 20.4-31.2 47-46.6 80-4.6 9.9-8.8 20.2-8.3 20.7.1.2 4.8-3.2 10.2-7.5 13.5-10.7 31.9-23.6 43.9-30.9 9.3-5.6 35.3-20.3 36.1-20.3.1 0 4-1.7 8.6-3.8 36.2-16.8 76.4-27.4 117.3-31.2 15.4-1.4 56.4-1.4 73.6 0 23.7 1.9 62.6 8.2 86.4 13.9 4.4 1.1 9.2 2.2 10.8 2.6l2.7.5v57.9c0 31.8.3 58 .6 58.4.6.6 5.2-3.1 36.3-29.3 10.8-9.1 25.7-21.5 33-27.5 7.4-6.1 22.3-18.4 33-27.5 10.8-9.1 25.7-21.5 33.1-27.5 7.4-6.1 19.3-16 26.4-22 7.2-6.1 21.2-17.8 31.1-26 9.9-8.2 23.1-19.1 29.3-24.2 6.1-5.2 11.2-9.8 11.2-10.3s-5.1-5.1-11.2-10.3c-6.2-5.1-19.4-16-29.3-24.2-9.9-8.2-23.9-19.9-31.1-26-7.1-6-19-16-26.4-22-7.4-6.1-22.3-18.4-33.1-27.5-10.8-9.1-24.3-20.3-30-25-5.6-4.7-20.5-17.1-33-27.5-33.6-28.2-37.7-31.5-38.9-31.5-.7 0-1 18.6-1 57.8z"/></symbol><symbol viewBox="0 0 24 24" id="home" xmlns="http://www.w3.org/2000/svg"><path d="M10 20v-6h4v6h5v-8h3L12 3 2 12h3v8z"/><path d="M0 0h24v24H0z" fill="none"/></symbol><symbol viewBox="0 0 50 50" id="human" xmlns="http://www.w3.org/2000/svg"><circle cx="39.7" cy="15.5" r="9.2"/><path d="M44.3 27.1h-7.5c-2.7 0-6.6 5.1-7.6 8.5L18.4 37c-1.2 0-2.1 1-2.1 2.1v1.4c0 1.2 1 2.1 2.1 2.1h29.5c2.1 0 2.1-2.1 2.1-2.1v-7.7c0-3.2-2.6-5.7-5.7-5.7z"/><path d="M14.2 39.1c0-.5.1-1 .3-1.4H7.8L2.6 20.1h22.7c0 .1.1.2.1.4v.2l3.2 10.9c.4-.8 1-1.5 1.5-2.3l-2.7-9.2c-.2-1.2-1-2.1-2.1-2.1H2.5c-1.2 0-2.1 1-2.1 2.1l6 20.4c.4 1.2 1 2.1 2.1 2.1h6.2c-.4-.6-.6-1.3-.6-2.1v-1.4z"/></symbol><symbol viewBox="0 0 24 24" id="lock" xmlns="http://www.w3.org/2000/svg"><path d="M0 0h24v24H0z" fill="none"/><path d="M18 8h-1V6c0-2.76-2.24-5-5-5S7 3.24 7 6v2H6c-1.1 0-2 .9-2 2v10c0 1.1.9 2 2 2h12c1.1 0 2-.9 2-2V10c0-1.1-.9-2-2-2zm-6 9c-1.1 0-2-.9-2-2s.9-2 2-2 2 .9 2 2-.9 2-2 2zm3.1-9H8.9V6c0-1.71 1.39-3.1 3.1-3.1 1.71 0 3.1 1.39 3.1 3.1v2z"/></symbol><symbol viewBox="0 0 42 42" id="need_change_lan_subnet" xmlns="http://www.w3.org/2000/svg"><path d="M27.597 8.225l1.211-1.21 1.211 1.21-1.21 1.211zm4.875 5.015l1.211-1.21 1.211 1.21-1.21 1.211z"/><path d="M32.302 21.257l-.17-.343 9.59-9.59L30.761.364l-9.59 9.59-.343-.342a2.998 2.998 0 0 0-4.281 0l-15.07 15.07a2.998 2.998 0 0 0 0 4.281L12.95 40.437a2.998 2.998 0 0 0 4.282 0l15.07-15.07c1.198-1.028 1.198-2.911 0-4.11zm-1.54-18.495l8.39 8.391-8.39 8.391-8.392-8.39 8.391-8.392zM13.635 29.306c0-.172 0-.514-.171-.685-.171-.172-.342-.172-.685-.172v-1.712c.685 0 1.37.171 1.884.685.514.514.685 1.199.685 1.884h-1.713zm4.282 0c0-1.37-.514-2.57-1.542-3.597-1.027-1.027-2.397-1.54-3.596-1.54v-1.713c1.713 0 3.425.685 4.795 2.055s2.055 3.082 2.055 4.795h-1.712zm4.28 0c0-2.398-.855-4.795-2.74-6.68s-4.28-2.74-6.678-2.74v-1.712c2.911 0 5.651 1.028 7.878 3.254s3.253 4.966 3.253 7.878H22.2z"/><path fill="#232323" d="M25.772 26.42h4.202v10.983h-4.202z"/><path fill="#EFBF2E" d="M16.56 38.972h22.271L27.696 19.738 16.56 38.972zm12.148-3.037h-2.025V33.91h2.025v2.025zm0-4.05h-2.025v-4.049h2.025v4.05z"/></symbol><symbol viewBox="0 0 42 42" id="need_update_mac" xmlns="http://www.w3.org/2000/svg"><path d="M23 8.5l1.8 1.8C26.4 8.7 28.5 8 30.5 8s4.1.7 5.7 2.3L38 8.5c-2.1-2.1-4.8-3.2-7.5-3.2S25 6.5 23 8.5z"/><path d="M30.5 2.8c3.4 0 6.8 1.4 9.6 3.9l1.8-1.8C38.7 1.7 34.6.1 30.5.1s-8.2 1.6-11.4 4.8l1.8 1.8c2.8-2.5 6.2-3.9 9.6-3.9zM21.6 36l-1.4-1.4 4.8-4.8-6.8-6.8H5.4C2.9 23 .8 25.1.8 27.6v9.1c0 2.5 2.1 4.6 4.6 4.6h21.4L21.6 36zm.3 3.2H5.4c-1.4 0-2.6-1.1-2.6-2.6v-9.1c0-1.4 1.1-2.6 2.6-2.6h11.9l4.8 4.8-3.4 3.4-1.4 1.4 1.4 1.4 1.4 1.4 1.4 1.4.4.5z"/><path d="M37.3 22.9h-4.6v-9.1h-4.6v9.1H21l5.9 5.9.9.9-4.8 4.8 6.6 6.6h7.7c2.5 0 4.6-2.1 4.6-4.6v-9.1c0-2.4-2-4.5-4.6-4.5zm2.6 13.7c0 1.4-1.1 2.6-2.6 2.6h-6.9l-4.6-4.6 3.4-3.4 1.4-1.4-.9-.9-1.4-1.4-2.5-2.5h11.6c1.4 0 2.6 1.1 2.6 2.6v9z"/><path d="M32.8 29.7h4.6v4.6h-4.6zm-22.3 0h4.6v4.6h-4.6zm-5.6 0h4.6v4.6H4.9z"/></symbol><symbol viewBox="0 0 42 42" id="notice" xmlns="http://www.w3.org/2000/svg"><path d="M21 0C9.4 0 0 9.4 0 21s9.4 21 21 21 21-9.4 21-21S32.6 0 21 0zm0 40C10.5 40 2 31.5 2 21S10.5 2 21 2s19 8.5 19 19-8.5 19-19 19z"/><path d="M20 29h2l1-21h-4z"/><circle cx="21" cy="32" r="2"/></symbol><symbol viewBox="0 0 24 24" id="phone_talking" xmlns="http://www.w3.org/2000/svg"><path d="M15 12h2a5 5 0 0 0-5-5v2a3 3 0 0 1 3 3m4 0h2c0-5-4.03-9-9-9v2c3.86 0 7 3.13 7 7m1 3.5c-1.25 0-2.45-.2-3.57-.57-.35-.11-.74-.03-1.02.25l-2.2 2.2a15.097 15.097 0 0 1-6.59-6.59l2.2-2.2c.28-.28.36-.67.25-1.02A11.36 11.36 0 0 1 8.5 4a1 1 0 0 0-1-1H4a1 1 0 0 0-1 1 17 17 0 0 0 17 17 1 1 0 0 0 1-1v-3.5a1 1 0 0 0-1-1z"/></symbol><symbol viewBox="0 0 24 24" id="print" xmlns="http://www.w3.org/2000/svg"><path d="M22 8h-1V3.5L17.5 0H4c-.5 0-1 .5-1 1v7H2c-1.1 0-2 .9-2 2v8c0 1.1.9 2 2 2h1v3c0 .5.5 1 1 1h16c.5 0 1-.5 1-1v-3h1c1.1 0 2-.9 2-2v-8c0-1.1-.9-2-2-2zm-5-5.6l2 2V5h-2V2.4zM5 2h10v5h4v1H5V2zm14 18v2H5v-9h14v7zm3-2h-1v-7H3v7H2v-8h20v8z"/><path d="M6 15h12v2H6zm0 3h8v2H6z"/></symbol><symbol viewBox="0 0 18 31" id="question" xmlns="http://www.w3.org/2000/svg"><path d="M6.3 22.4c0-2 .2-3.5.5-4.2.3-.8 1.2-1.8 2.7-3.1 1.4-1.6 2.4-2.9 3-3.8.6-.9.9-2 .9-3.2 0-1.5-.4-2.6-1.2-3.4-.8-.8-1.9-1.2-3.4-1.2-1.3 0-2.4.3-3.3 1S4.1 6.2 4.1 7.6h-4L0 7.5C0 5.2.8 3.4 2.4 2s3.7-2 6.3-2c2.8 0 4.9.7 6.5 2.1 1.5 1.4 2.3 3.4 2.3 5.9 0 1.8-.5 3.5-1.5 5s-2.3 3.1-3.9 4.6c-.8.8-1.2 1.4-1.4 2-.2.6-.2 1.6-.2 2.8H6.3zm4.3 8.6H6.2v-4.4h4.4V31z"/></symbol><symbol viewBox="0 0 42 42" id="reboot" xmlns="http://www.w3.org/2000/svg"><path d="M33.3 4l-1.4 1.4C36.8 8.9 40 14.6 40 21c0 10.5-8.5 19-19 19S2 31.5 2 21c0-5.5 2.3-10.4 6.1-13.9L12 11V2H3l3.7 3.7C2.6 9.5 0 14.9 0 21c0 11.6 9.4 21 21 21s21-9.4 21-21c0-7-3.4-13.2-8.7-17z"/><path d="M20 0h2v15h-2z"/></symbol><symbol viewBox="0 0 24 24" id="refresh" xmlns="http://www.w3.org/2000/svg"><path d="M17.65 6.35A7.958 7.958 0 0 0 12 4c-4.42 0-7.99 3.58-7.99 8s3.57 8 7.99 8c3.73 0 6.84-2.55 7.73-6h-2.08A5.99 5.99 0 0 1 12 18c-3.31 0-6-2.69-6-6s2.69-6 6-6c1.66 0 3.14.69 4.22 1.78L13 11h7V4l-2.35 2.35z"/><path d="M0 0h24v24H0z" fill="none"/></symbol><symbol viewBox="0 0 42 42" id="restore" xmlns="http://www.w3.org/2000/svg"><path d="M0 21c0 11.6 9.4 21 21 21s21-9.4 21-21S32.6 0 21 0C14.9 0 9.5 2.6 5.7 6.7L2 3v9h9L7.1 8.1C10.6 4.3 15.5 2 21 2c10.5 0 19 8.5 19 19s-8.5 19-19 19S2 31.5 2 21H0z"/><path d="M20 5h2v16h-2z"/><path d="M20.74 20.07l10.248 3.997-.726 1.864-10.25-3.997z"/></symbol><symbol viewBox="0 0 42 42" id="save" xmlns="http://www.w3.org/2000/svg"><path d="M40.4 8.6l-7-7-.6-.6H4C2.3 1 1 2.3 1 4v34c0 1.7 1.3 3 3 3h34c1.7 0 3-1.3 3-3V9.2l-.6-.6zM29 3v10c0 .6-.4 1-1 1H11c-.6 0-1-.4-1-1V3h19zm10 35c0 .6-.4 1-1 1H4c-.6 0-1-.4-1-1V4c0-.6.4-1 1-1h4v10c0 1.7 1.3 3 3 3h17c1.7 0 3-1.3 3-3V3h1l7 7v28z"/><path d="M23 5h4v7h-4z"/></symbol><symbol viewBox="0 0 42 42" id="save_and_reboot" xmlns="http://www.w3.org/2000/svg"><path d="M22 4h4v7h-4z"/><path d="M3 38c-.6 0-1-.4-1-1V3c0-.6.4-1 1-1h4v10c0 1.7 1.3 3 3 3h17c1.7 0 3-1.3 3-3V2h1l7 7v9.5l1.2.9.8-1.2v-10l-.6-.6-7-7-.6-.6H3C1.3 0 0 1.3 0 3v34c0 1.7 1.3 3 3 3h17.2c-.6-.6-1.2-1.3-1.7-2H3zM28 2v10c0 .6-.4 1-1 1H10c-.6 0-1-.4-1-1V2h19z"/><path d="M40 30c0 5.5-4.5 10-10 10s-10-4.5-10-10 4.5-10 10-10c3 0 5.7 1.3 7.5 3.5L35 26h6.3c-.1-.3-.2-.5-.3-.8V20l-2 2c-2.2-2.5-5.4-4-9-4-6.6 0-12 5.4-12 12s5.4 12 12 12 12-5.4 12-12h-2z"/></symbol><symbol viewBox="0 0 47 47" id="sd_antivirus" xmlns="http://www.w3.org/2000/svg"><path d="M23.5.3l-21.1 5v17.2c0 19.3 21.1 24.3 21.1 24.3s21.1-5 21.1-24.3V5.3L23.5.3zm14.3 26.3c-.2.2-.4.3-.7.3-.3 0-.5-.1-.7-.3l-2.6-2.9-2.4-.3c0 1.2-.2 2.4-.5 3.5l2.8 1.7 1 4.4c.1.5-.2 1.1-.8 1.2h-.2c-.5 0-.9-.3-1-.8l-.8-3.5-1.8-1.1c-1.4 2.6-3.8 4.4-6.6 4.4s-5.1-1.7-6.6-4.4l-1.8 1.1-.8 3.5c-.1.5-.5.8-1 .8h-.2c-.5-.1-.9-.7-.8-1.2l1-4.4 2.8-1.7c-.3-1.1-.5-2.2-.5-3.4l-2 .3-2.6 2.9c-.2.2-.5.3-.7.3-.2 0-.5-.1-.7-.3-.4-.4-.4-1-.1-1.4l3.1-3.4 3.1-.4c.1-.7.3-1.4.6-2.1l-2.8-1.5-1.1-4.3c-.1-.5.2-1.1.7-1.2.5-.1 1.1.2 1.2.7l.9 3.5 2 1.1c.7-1.2 1.7-2.2 2.7-2.9 0-.2-.1-.4-.1-.6 0-2 1.6-3.6 3.6-3.6s3.6 1.6 3.6 3.6c0 .2 0 .4-.1.6 1.1.7 2 1.7 2.7 2.9l2-1.1.9-3.5c.1-.5.7-.9 1.2-.7.5.1.9.7.7 1.2l-1.1 4.3-2.8 1.5c.2.6.4 1.3.5 2l3.5.5 3.1 3.4c.6.3.6 1 .2 1.3z"/></symbol><symbol viewBox="0 0 47 47" id="sd_home" xmlns="http://www.w3.org/2000/svg"><path d="M23.5 11.1L6.7 24.9v14.2c0 .5.2.9.6 1.3.3.4.8.6 1.3.6h9.1V29.8h11.5V41h9.1c.5 0 .9-.2 1.3-.6.4-.4.6-.8.6-1.3V24.9L23.5 11.1z"/><path d="M46.7 22.1l-6.4-5.3V4.9c0-.3-.1-.5-.3-.7-.2-.1-.4-.2-.7-.2h-5.6c-.3 0-.5.1-.7.3-.2.2-.3.4-.3.7v5.7l-7.1-5.9c-.6-.5-1.4-.8-2.2-.8-.9 0-1.6.3-2.2.8L.2 22.3c-.1-.1-.2.2-.2.4 0 .3 0 .5.2.7L2 25.6c.2.2.4.3.6.3.2 0 .5 0 .7-.2L23.5 8.9l20.2 16.8c.2.1.4.2.6.2h.1c.3 0 .5-.1.6-.3l1.8-2.2c.2-.2.2-.4.2-.7 0-.2-.2-.5-.3-.6z"/></symbol><symbol viewBox="0 0 47 47" id="sd_settings" xmlns="http://www.w3.org/2000/svg"><path d="M46.8 20.9c-.1-.7-.8-1.2-1.5-1.2-2.2 0-4.1-1.3-4.9-3.2-.8-2-.3-4.3 1.3-5.8.5-.5.6-1.2.1-1.8-1.1-1.4-2.4-2.7-3.7-3.8-.5-.4-1.3-.4-1.8.1-1.4 1.5-3.9 2.1-5.9 1.3-2-.8-3.3-2.9-3.2-5.1C27.2.7 26.7.1 26 0c-1.5 0-3.3 0-5 .2-.7.1-1.2.7-1.2 1.3.1 2.2-1.2 4.2-3.2 5-1.9.8-4.4.2-5.8-1.3-.5-.5-1.3-.6-1.8-.1-1.4 1.1-2.7 2.3-3.8 3.7-.4.5-.4 1.3.1 1.8 1.6 1.5 2.2 3.8 1.3 5.9-.8 1.9-2.8 3.2-5.1 3.2-.7 0-1.3.5-1.4 1.2-.2 1.8-.2 3.6 0 5.3.1.7.9 1.2 1.5 1.2 2-.1 4 1.2 4.8 3.2.8 2 .3 4.3-1.3 5.8-.5.5-.6 1.2-.1 1.8 1.1 1.4 2.3 2.7 3.7 3.8.5.4 1.3.4 1.8-.1 1.4-1.6 3.9-2.1 5.8-1.3 2 .8 3.3 2.9 3.2 5.1 0 .7.5 1.3 1.2 1.4.9.1 1.8.2 2.7.2.9 0 1.7 0 2.6-.1.7-.1 1.2-.7 1.2-1.3-.1-2.2 1.2-4.2 3.2-5 1.9-.8 4.4-.2 5.8 1.3.5.5 1.2.6 1.8.1 1.4-1.1 2.7-2.4 3.8-3.8.4-.5.4-1.3-.1-1.8-1.6-1.5-2.2-3.8-1.3-5.9.8-1.9 2.7-3.2 4.8-3.2h.3c.7.1 1.3-.5 1.4-1.2.1-1.9.1-3.7-.1-5.5zm-23.3 12c-5.2 0-9.4-4.2-9.4-9.4s4.2-9.4 9.4-9.4 9.4 4.2 9.4 9.4-4.2 9.4-9.4 9.4z"/></symbol><symbol viewBox="0 0 47 47" id="sd_wifi" xmlns="http://www.w3.org/2000/svg"><path d="M23.5.3l-21.1 5v17.2c0 19.3 21.1 24.3 21.1 24.3s21.1-5 21.1-24.3V5.3L23.5.3zm0 34c-1 0-1.8-.8-1.8-1.8s.8-1.8 1.8-1.8 1.8.8 1.8 1.8-.8 1.8-1.8 1.8zm5-4.9c-.3.3-.6.4-1 .4s-.7-.1-1-.4c-1.7-1.7-4.4-1.7-6 0-.5.5-1.4.5-2 0-.5-.5-.5-1.4 0-2 2.7-2.7 7.2-2.7 10 0 .5.6.5 1.5 0 2zm3.7-3.7c-.3.3-.6.4-1 .4s-.7-.1-1-.4c-3.7-3.7-9.8-3.7-13.5 0-.5.5-1.4.5-2 0-.5-.5-.5-1.4 0-2 4.8-4.8 12.6-4.8 17.4 0 .7.6.7 1.5.1 2zm3.8-3.8c-.3.3-.6.4-1 .4s-.7-.1-1-.4c-5.8-5.8-15.3-5.8-21.1 0-.5.5-1.4.5-2 0-.5-.5-.5-1.4 0-2 6.9-6.9 18.1-6.9 25 0 .7.6.7 1.4.1 2z"/></symbol><symbol viewBox="0 0 24 24" id="search" xmlns="http://www.w3.org/2000/svg"><path d="M15.5 14h-.79l-.28-.27A6.471 6.471 0 0 0 16 9.5 6.5 6.5 0 1 0 9.5 16c1.61 0 3.09-.59 4.23-1.57l.27.28v.79l5 4.99L20.49 19l-4.99-5zm-6 0C7.01 14 5 11.99 5 9.5S7.01 5 9.5 5 14 7.01 14 9.5 11.99 14 9.5 14z"/><path d="M0 0h24v24H0z" fill="none"/></symbol><symbol viewBox="0 0 24 24" id="settings" xmlns="http://www.w3.org/2000/svg"><path d="M22 13v-3l-3.3-.4c-.2-.7-.4-1.3-.8-1.9l2-2.6-2-2.1-2.6 2c-.6-.3-1.2-.6-1.9-.8L13 1h-3l-.4 3.3c-.7.1-1.3.4-1.9.7L5.1 3 3 5.1l2 2.6c-.3.6-.6 1.2-.7 1.9L1 10v3l3.3.4c.2.7.4 1.3.8 1.9l-2 2.6 2 2.1 2.6-2c.6.3 1.2.6 1.9.8L10 22h3l.4-3.3c.7-.2 1.3-.4 1.9-.8l2.6 2 2.1-2.1-2-2.6c.3-.6.6-1.2.8-1.9L22 13zm-10.5 3C9 16 7 14 7 11.5S9 7 11.5 7 16 9 16 11.5 14 16 11.5 16z"/></symbol><symbol viewBox="0 0 24 24" id="sim_card" xmlns="http://www.w3.org/2000/svg"><path d="M19.99 4c0-1.1-.89-2-1.99-2h-8L4 8v12c0 1.1.9 2 2 2h12.01c1.1 0 1.99-.9 1.99-2l-.01-16zM9 19H7v-2h2v2zm8 0h-2v-2h2v2zm-8-4H7v-4h2v4zm4 4h-2v-4h2v4zm0-6h-2v-2h2v2zm4 2h-2v-4h2v4z"/><path d="M0 0h24v24H0z" fill="none"/></symbol><symbol viewBox="0 0 75.938 92" id="skydns" xmlns="http://www.w3.org/2000/svg"><path data-name="Icon Sheild копия 2" d="M37.469.009s0 .051 38.478 23.021c0 45.94-38.478 68.961-38.478 68.961V.009z" fill-rule="evenodd" fill="#bababa"/><path data-name="Icon Sheild копия 3" d="M38.469.009s0 .051-38.478 23.021c0 45.94 38.478 68.961 38.478 68.961V.009z" fill="#d5d5d5" fill-rule="evenodd"/></symbol><symbol viewBox="0 0 418.8 148.9" id="skydns_logo" xmlns="http://www.w3.org/2000/svg"><g fill-rule="evenodd" clip-rule="evenodd"><path d="M162.1 0h-22c-3.4 0-6.9.7-10.1 2.3-3.2 1.5-5.8 3.6-7.8 6.6-2.1 2.9-3 6.3-3 9.9v24.6c0 3.8.8 7.4 2.4 10.5 1.8 3.1 4 5.7 7.1 7.6 3 1.9 6.5 2.8 10.2 2.8h7.3v35.9h-9v-8.8c0-1.2-1-2.2-2.2-2.2h-13.8c-1.2 0-2.1 1-2.1 2.2v20.7c0 1.2.9 2.2 2.1 2.2h24c3.4 0 6.6-.9 9.3-2.5 3-1.8 5.2-4 7-6.9 1.8-2.8 2.7-5.9 2.7-9.2V69.5c0-3.2-.9-6.4-2.6-9.3-1.7-2.9-4-5.4-6.8-7-3-1.8-6.1-2.8-9.3-2.8h-8.3v-36h9V23c0 1.2 1.1 2.3 2.2 2.3H162c1.3 0 2.2-1.1 2.2-2.3V2.1c.1-1.2-.8-2.1-2.1-2.1zm0 0zm51.2 34.3h-13.7c-1.2 0-2.2 1.1-2.2 2.3v23h-9.2V2.1c0-1.2-.9-2.1-2.1-2.1h-13.8c-1.2 0-2.1.9-2.1 2.1v110.3c0 1.2.9 2.1 2.1 2.1h13.8c1.2 0 2.1-.9 2.1-2.1V73.8h9.2v28.4c0 4.2 1.6 8.3 4.6 11.8 2.8 3.5 6.5 5.8 10.7 6.9.2.1.3.1.7.1s.9-.1 1.2-.3c.7-.4.9-1.1.9-1.8V77.1c0-.3-.1-.9-.3-1.2l-6.2-9.2 6.2-9.9c.2-.2.3-.7.3-1V36.7c-.1-1.3-.9-2.4-2.2-2.4zm0 0zm53.1 2.4c0-1.2-1.1-2.3-2.3-2.3h-13.5c-1.3 0-2.3 1.1-2.3 2.3v63.8h-9V36.7c0-1.2-1-2.3-2.2-2.3h-13.7c-1.2 0-2.3 1.1-2.3 2.3V96c0 3.2.9 6.4 2.7 9.4 1.8 2.8 4.1 5.1 7 7 3 1.6 6.1 2.6 9.3 2.6h8.5v20.2h-9.2v-10.5c0-1.2-1-2.1-2.2-2.1h-13.7c-1.2 0-2.3.9-2.3 2.1v22c0 1.2 1.1 2.1 2.3 2.1h24.2c3.2 0 6.3-.8 9.3-2.6 2.8-1.8 5.1-4 7-6.9 1.8-2.8 2.7-5.9 2.7-9.2l-.3-93.4z" fill="#63a2c0"/><path d="M307 2.1c-3-1.5-5.9-2.1-8.9-2.1h-23.8c-1.2 0-2.1.9-2.1 2.1v110.3c0 1.2.9 2.1 2.1 2.1h24c4.8 0 9.2-1.8 13.2-5.6 3.9-3.8 6-8 6-13.1v-77c0-3.7-1.1-7-3-10.1-2-2.8-4.4-5-7.5-6.6zm0 0zm-7.7 98.5h-9V14h9v86.6zm0 0zm59.4-98c-3-1.8-6.1-2.6-9.3-2.6h-24c-1.2 0-2.3.9-2.3 2.1v110.3c0 1.2 1.1 2.1 2.3 2.1h13.8c1.2 0 2.1-.9 2.1-2.1V14h9v98.5c0 1.2 1 2.1 2.2 2.1H366c1.2 0 2.3-.9 2.3-2.1V18.9c0-3.2-.9-6.4-2.7-9.4-1.7-2.9-4.1-5.1-6.9-6.9zm0 0zM403 25.4h13.6c1.2 0 2.2-1.1 2.2-2.3v-21c0-1.2-1-2.1-2.2-2.1h-22.1c-3.4 0-6.9.7-10 2.3-3.3 1.5-6 3.6-8 6.6-2.1 2.9-3 6.3-3 9.9v24.6c0 3.8.8 7.4 2.4 10.5 1.8 3.1 4.1 5.7 7.2 7.6 3 1.9 6.6 2.8 10.2 2.8h7.3v36h-8.9v-8.8c0-1.2-1.1-2.1-2.3-2.1h-13.9c-1.2 0-2.1.9-2.1 2.1v20.6c0 1.2.9 2.2 2.1 2.2h24.4c3.2 0 6.3-.9 9.2-2.5 2.9-1.7 5.3-3.9 6.9-6.8 1.9-2.8 2.8-5.9 2.8-9.2V69.5c0-3.2-.9-6.4-2.6-9.3-1.7-2.9-4.1-5.4-6.9-7-2.9-1.8-6-2.8-9.2-2.8h-8.3v-36h8.9V23c-.1 1.3 1.1 2.4 2.3 2.4z" fill="#2a2a26"/><path d="M47.3 112.6C14.3 101.2 3.7 54 0 23.5c19.2.7 38.7-5.7 48.1-15.2C57.2 17.8 76.5 23.7 96 23c-3.8 30.5-15.8 78.2-48.7 89.6z" fill="#61a2c0"/><path d="M47.5 8.7l.6-.6c9.1 9.5 28.6 15.4 48.1 14.8-3.8 30.6-15.7 78.2-48.6 89.5V8.7h-.1z" fill="#2a2a26"/></g></symbol><symbol viewBox="0 0 50 50" id="spinner"><circle cx="25" cy="10" r="2"/><circle opacity=".3" cx="25" cy="40" r="2"/><circle opacity=".3" cx="32.5" cy="12" r="2"/><circle opacity=".3" cx="17.5" cy="38" r="2"/><circle opacity=".93" cx="17.5" cy="12" r="2"/><circle opacity=".3" cx="32.5" cy="38" r="2"/><circle opacity=".65" cx="10" cy="25" r="2"/><circle opacity=".3" cx="40" cy="25" r="2"/><circle opacity=".86" cx="12" cy="17.5" r="2"/><circle opacity=".3" cx="38" cy="32.5" r="2"/><circle opacity=".44" cx="12" cy="32.5" r="2"/><circle opacity=".3" cx="38" cy="17.5" r="2"/></symbol><symbol viewBox="0 0 24 24" id="statistics" xmlns="http://www.w3.org/2000/svg"><path d="M0 0h2v24H0z"/><path d="M0 22.2h24V24H0zM4 10h3v10H4zm5-8h3v18H9zm5 9h3v9h-3zm5-4h3v13h-3z"/></symbol><symbol viewBox="0 0 24 24" id="summary" xmlns="http://www.w3.org/2000/svg"><path d="M11.5 2c5.2 0 9.5 4.3 9.5 9.5S16.7 21 11.5 21 2 16.7 2 11.5 6.3 2 11.5 2m0-2C5.1 0 0 5.1 0 11.5S5.1 23 11.5 23 23 17.9 23 11.5 17.9 0 11.5 0z"/><circle cx="11.5" cy="6.5" r="1.5"/><path d="M13 16V9H8v2h2v5H8v2h7v-2z"/></symbol><symbol viewBox="0 0 24 24" id="time" xmlns="http://www.w3.org/2000/svg"><path d="M11.99 2C6.47 2 2 6.48 2 12s4.47 10 9.99 10C17.52 22 22 17.52 22 12S17.52 2 11.99 2zM12 20c-4.42 0-8-3.58-8-8s3.58-8 8-8 8 3.58 8 8-3.58 8-8 8z"/><path d="M0 0h24v24H0z" fill="none"/><path d="M12.5 7H11v6l5.25 3.15.75-1.23-4.5-2.67z"/></symbol><symbol viewBox="0 0 5 22" id="toggle-menu" xmlns="http://www.w3.org/2000/svg"><circle cx="2.5" cy="2.5" r="2.5"/><circle cx="2.5" cy="19.5" r="2.5"/><circle cx="2.5" cy="11" r="2.5"/></symbol><symbol viewBox="0 0 24 24" id="unread_mess" xmlns="http://www.w3.org/2000/svg"><path d="M20 4H4c-1.1 0-1.99.9-1.99 2L2 18c0 1.1.9 2 2 2h16c1.1 0 2-.9 2-2V6c0-1.1-.9-2-2-2zm0 4l-8 5-8-5V6l8 5 8-5v2z"/><path d="M0 0h24v24H0z" fill="none"/></symbol><symbol viewBox="0 0 24 24" id="usb" xmlns="http://www.w3.org/2000/svg"><path d="M19.4 4.1h-4v4h1v2.6c0 1.3-.8 1.9-2.3 2.8-.5.3-1 .6-1.5 1V4.1h2l-3-4-3 4h2v8.4c-.5-.4-1-.7-1.5-1-1.3-.8-2.1-1.3-2.3-2.3.6-.4 1-1 1-1.7 0-1.1-.9-2-2-2s-2 .9-2 2c0 .8.4 1.4 1 1.7.2 2.2 1.9 3.2 3.2 4 1.6.9 2.5 1.6 2.5 3.2v1.7c-1.2.4-2 1.5-2 2.8 0 1.7 1.3 3 3 3s3-1.3 3-3c0-1.3-.8-2.4-2-2.8.1-1.4 1-2.1 2.5-3 1.5-.9 3.3-2 3.3-4.5V8.1h1v-4z"/></symbol><symbol viewBox="0 0 24 24" id="usb_modem" xmlns="http://www.w3.org/2000/svg"><path d="M15.752 4.59l.707-.706.707.707-.707.707zm2.847 2.93l.707-.708.707.707-.707.707z"/><path d="M18.5 12.2l-.1-.2L24 6.4 17.6 0 12 5.6l-.2-.2c-.7-.7-1.8-.7-2.5 0L.5 14.2c-.7.7-.7 1.8 0 2.5l6.7 6.7c.7.7 1.8.7 2.5 0l8.8-8.8c.7-.6.7-1.7 0-2.4zm-.9-10.8l4.9 4.9-4.9 4.9-4.9-4.9 4.9-4.9zm-10 15.5c0-.1 0-.3-.1-.4-.1-.1-.2-.1-.4-.1v-1c.4 0 .8.1 1.1.4.3.3.4.7.4 1.1h-1zm2.5 0c0-.8-.3-1.5-.9-2.1-.6-.6-1.4-.9-2.1-.9v-1c1 0 2 .4 2.8 1.2.8.8 1.2 1.8 1.2 2.8h-1zm2.5 0c0-1.4-.5-2.8-1.6-3.9s-2.5-1.6-3.9-1.6v-1c1.7 0 3.3.6 4.6 1.9s1.9 2.9 1.9 4.6h-1z"/></symbol><symbol viewBox="0 0 24 24" id="voip" xmlns="http://www.w3.org/2000/svg"><path d="M7 2.1c.6 0 1.1.5 1.1 1.1 0 1.4.2 2.7.6 3.9.1.4 0 .8-.3 1.1L6 10.6c1.6 3.1 4.1 5.7 7.3 7.3l2.4-2.4c.2-.2.5-.3.8-.3.1 0 .2 0 .3.1 1.2.4 2.6.6 3.9.6.6 0 1.1.5 1.1 1.1v3.8c0 .6-.5 1.1-1.1 1.1C10.4 21.9 2 13.5 2 3.2c0-.6.5-1.1 1.1-1.1H7M7 0H3.2C1.4 0 0 1.4 0 3.2 0 14.7 9.3 24 20.8 24c1.8 0 3.2-1.4 3.2-3.2V17c0-1.8-1.4-3.2-3.2-3.2-1.1 0-2.2-.2-3.3-.5-.3-.1-.7-.2-1-.2-.8 0-1.7.3-2.3.9L13 15.3c-1.7-1.1-3.2-2.6-4.3-4.3L10 9.7c.8-.8 1.2-2.1.8-3.2-.4-1.1-.5-2.2-.5-3.3C10.2 1.4 8.8 0 7 0z"/></symbol><symbol viewBox="0 0 24 24" id="vpn" xmlns="http://www.w3.org/2000/svg"><path fill-rule="evenodd" clip-rule="evenodd" d="M8 9v1a1 1 0 0 0-1 1v6a1 1 0 0 0 1 1h8a1 1 0 0 0 1-1v-6a1 1 0 0 0-1-1V9a4 4 0 0 0-8 0zm6 1V9a2 2 0 1 0-4 0v1h4zm-1 5v-2h-2v2h2z"/><path fill-rule="evenodd" clip-rule="evenodd" d="M24 12c0 3.071-1.154 5.872-3.051 7.995a2.5 2.5 0 0 1-3.575 2.738A11.95 11.95 0 0 1 12 24a11.95 11.95 0 0 1-5.374-1.267 2.5 2.5 0 0 1-3.575-2.738A11.955 11.955 0 0 1 0 12c0-3.071 1.154-5.873 3.051-7.995a2.5 2.5 0 0 1 3.575-2.738A11.95 11.95 0 0 1 12 0c1.932 0 3.757.456 5.374 1.268a2.5 2.5 0 0 1 3.575 2.738A11.956 11.956 0 0 1 24 12zm-2 0a9.959 9.959 0 0 1-2.258 6.33 2.5 2.5 0 0 0-3.661 2.802A9.965 9.965 0 0 1 12 22a9.965 9.965 0 0 1-4.08-.868 2.5 2.5 0 0 0-3.661-2.802A9.959 9.959 0 0 1 1.999 12c0-2.402.847-4.606 2.258-6.33a2.5 2.5 0 0 0 3.661-2.802A9.965 9.965 0 0 1 12 2c1.454 0 2.835.31 4.08.868a2.5 2.5 0 0 0 3.661 2.802A9.958 9.958 0 0 1 22.001 12z"/></symbol><symbol viewBox="0 0 32 32" id="warning" xmlns="http://www.w3.org/2000/svg"><path d="M16 0l16 28H0zm0 4L4 26h24zm-2 6h4l-1 10h-2zm2 11a2 2 0 0 0 0 4 2 2 0 0 0 0-4"/></symbol><symbol viewBox="0 0 32 32" id="warningNew" xmlns="http://www.w3.org/2000/svg"><path d="M16 0L0 28h32L16 0zm0 4l12 22H4L16 4z" fill="#f6c646"/><path d="M14 10h4l-1 10h-2zm2 11a2 2 0 1 0 0 4 2 2 0 0 0 0-4" fill="#31708f"/></symbol><symbol viewBox="0 0 1024 1024" id="warning_circle" xmlns="http://www.w3.org/2000/svg"><path d="M511.01 63.33c-247.173 0-447.538 200.381-447.538 447.538 0 247.161 200.365 447.543 447.538 447.543 247.162 0 447.543-200.382 447.543-447.543 0-247.157-200.382-447.539-447.543-447.539zm0 803.45c-196.562 0-355.907-159.327-355.907-355.91 0-196.58 159.345-355.909 355.907-355.909 196.585 0 355.911 159.328 355.911 355.908 0 196.584-159.326 355.911-355.91 355.911z"/><path d="M512.425 240.913c-69.262-3.296-69.51 90.337-56.731 181.248 12.73 90.55 29.1 174.167 29.1 174.167 3.049 15.262 15.64 21.285 27.629 20.904 25.374-.81 26.9-21.31 26.9-21.31s17.085-87.593 29.91-176.203c12.723-87.902 11.209-175.567-56.808-178.806zm-54.287 488.321a53.67 53.67 0 1 0 109.84 0 53.67 53.67 0 1 0-109.84 0z"/></symbol><symbol viewBox="0 0 24 24" id="wifi" xmlns="http://www.w3.org/2000/svg"><path d="M9.2 17.5l2.8 2.8 2.7-2.7c-1.4-1.5-3.9-1.5-5.5-.1z"/><path d="M6.4 14.7l1.4 1.4c2.3-2.2 6.1-2.2 8.4.1l1.4-1.4c-3.1-3.1-8.1-3.1-11.2-.1z"/><path d="M3.6 11.9L5 13.3c3.9-3.8 10.2-3.8 14 .1l1.4-1.4c-4.6-4.7-12.1-4.7-16.8-.1z"/><path d="M.7 9l1.4 1.4c5.5-5.4 14.3-5.3 19.7.1l1.4-1.4C17 2.9 7 2.9.7 9z"/></symbol><symbol viewBox="0 0 24 24" id="wifi_0" xmlns="http://www.w3.org/2000/svg"><path fill="#C1C1C1" d="M8.5 17.3l2.8 2.8 2.7-2.7c-1.4-1.5-3.9-1.5-5.5-.1z"/><path fill="#C1C1C1" d="M5.7 14.5l1.4 1.4c2.3-2.2 6.1-2.2 8.4.1l1.4-1.4c-3.1-3.1-8.1-3.1-11.2-.1z"/><path fill="#C1C1C1" d="M2.9 11.7l1.4 1.4c3.9-3.8 10.2-3.8 14 .1l1.4-1.4c-4.6-4.7-12.1-4.7-16.8-.1z"/><path fill="#C1C1C1" d="M0 8.8l1.4 1.4c5.5-5.4 14.3-5.3 19.7.1l1.4-1.4C16.3 2.7 6.3 2.7 0 8.8z"/></symbol><symbol viewBox="0 0 24 24" id="wifi_1" xmlns="http://www.w3.org/2000/svg"><path fill="#006078" d="M8.5 17.3l2.8 2.8 2.7-2.7c-1.4-1.5-3.9-1.5-5.5-.1z"/><path fill="#C1C1C1" d="M5.7 14.5l1.4 1.4c2.3-2.2 6.1-2.2 8.4.1l1.4-1.4c-3.1-3.1-8.1-3.1-11.2-.1z"/><path fill="#C1C1C1" d="M2.9 11.7l1.4 1.4c3.9-3.8 10.2-3.8 14 .1l1.4-1.4c-4.6-4.7-12.1-4.7-16.8-.1z"/><path fill="#C1C1C1" d="M0 8.8l1.4 1.4c5.5-5.4 14.3-5.3 19.7.1l1.4-1.4C16.3 2.7 6.3 2.7 0 8.8z"/></symbol><symbol viewBox="0 0 24 24" id="wifi_2" xmlns="http://www.w3.org/2000/svg"><path fill="#006078" d="M8.5 17.3l2.8 2.8 2.7-2.7c-1.4-1.5-3.9-1.5-5.5-.1z"/><path fill="#006078" d="M5.7 14.5l1.4 1.4c2.3-2.2 6.1-2.2 8.4.1l1.4-1.4c-3.1-3.1-8.1-3.1-11.2-.1z"/><path fill="#C1C1C1" d="M2.9 11.7l1.4 1.4c3.9-3.8 10.2-3.8 14 .1l1.4-1.4c-4.6-4.7-12.1-4.7-16.8-.1z"/><path fill="#C1C1C1" d="M0 8.8l1.4 1.4c5.5-5.4 14.3-5.3 19.7.1l1.4-1.4C16.3 2.7 6.3 2.7 0 8.8z"/></symbol><symbol viewBox="0 0 24 24" id="wifi_3" xmlns="http://www.w3.org/2000/svg"><path fill="#006078" d="M8.5 17.3l2.8 2.8 2.7-2.7c-1.4-1.5-3.9-1.5-5.5-.1z"/><path fill="#006078" d="M5.7 14.5l1.4 1.4c2.3-2.2 6.1-2.2 8.4.1l1.4-1.4c-3.1-3.1-8.1-3.1-11.2-.1z"/><path fill="#006078" d="M2.9 11.7l1.4 1.4c3.9-3.8 10.2-3.8 14 .1l1.4-1.4c-4.6-4.7-12.1-4.7-16.8-.1z"/><path fill="#C1C1C1" d="M0 8.8l1.4 1.4c5.5-5.4 14.3-5.3 19.7.1l1.4-1.4C16.3 2.7 6.3 2.7 0 8.8z"/></symbol><symbol viewBox="0 0 24 24" id="wifi_4" xmlns="http://www.w3.org/2000/svg"><path fill="#006078" d="M8.5 17.3l2.8 2.8 2.7-2.7c-1.4-1.5-3.9-1.5-5.5-.1z"/><path fill="#006078" d="M5.7 14.5l1.4 1.4c2.3-2.2 6.1-2.2 8.4.1l1.4-1.4c-3.1-3.1-8.1-3.1-11.2-.1z"/><path fill="#006078" d="M2.9 11.7l1.4 1.4c3.9-3.8 10.2-3.8 14 .1l1.4-1.4c-4.6-4.7-12.1-4.7-16.8-.1z"/><path fill="#006078" d="M0 8.8l1.4 1.4c5.5-5.4 14.3-5.3 19.7.1l1.4-1.4C16.3 2.7 6.3 2.7 0 8.8z"/></symbol><symbol viewBox="0 0 24 24" id="wifi_lock_0" xmlns="http://www.w3.org/2000/svg"><path fill="#C1C1C1" d="M8.5 17.3l2.8 2.8 2.7-2.7c-1.4-1.5-3.9-1.5-5.5-.1z"/><path fill="#C1C1C1" d="M5.7 14.5l1.4 1.4c2.3-2.2 6.1-2.2 8.4.1l1.4-1.4c-3.1-3.1-8.1-3.1-11.2-.1z"/><path fill="#C1C1C1" d="M2.9 11.7l1.4 1.4c3.9-3.8 10.2-3.8 14 .1l1.4-1.4c-4.6-4.7-12.1-4.7-16.8-.1z"/><path fill="#C1C1C1" d="M0 8.8l1.4 1.4c5.5-5.4 14.3-5.3 19.7.1l1.4-1.4C16.3 2.7 6.3 2.7 0 8.8z"/><path d="M23.5 15.2V14c0-1.1-.9-2-2-2s-2 .9-2 2v1.2c-.3.2-.5.5-.5.8v3c0 .5.5 1 1 1h3c.5 0 1-.5 1-1v-3c0-.3-.2-.6-.5-.8zM22 18.7h-1v-2h1v2zm.5-3.6h-2v-1c0-.6.4-1 1-1s1 .4 1 1v1z"/></symbol><symbol viewBox="0 0 24 24" id="wifi_lock_1" xmlns="http://www.w3.org/2000/svg"><path fill="#006078" d="M8.5 17.3l2.8 2.8 2.7-2.7c-1.4-1.5-3.9-1.5-5.5-.1z"/><path fill="#C1C1C1" d="M5.7 14.5l1.4 1.4c2.3-2.2 6.1-2.2 8.4.1l1.4-1.4c-3.1-3.1-8.1-3.1-11.2-.1z"/><path fill="#C1C1C1" d="M2.9 11.7l1.4 1.4c3.9-3.8 10.2-3.8 14 .1l1.4-1.4c-4.6-4.7-12.1-4.7-16.8-.1z"/><path fill="#C1C1C1" d="M0 8.8l1.4 1.4c5.5-5.4 14.3-5.3 19.7.1l1.4-1.4C16.3 2.7 6.3 2.7 0 8.8z"/><path d="M23.5 15.2V14c0-1.1-.9-2-2-2s-2 .9-2 2v1.2c-.3.2-.5.5-.5.8v3c0 .5.5 1 1 1h3c.5 0 1-.5 1-1v-3c0-.3-.2-.6-.5-.8zM22 18.7h-1v-2h1v2zm.5-3.6h-2v-1c0-.6.4-1 1-1s1 .4 1 1v1z"/></symbol><symbol viewBox="0 0 24 24" id="wifi_lock_2" xmlns="http://www.w3.org/2000/svg"><path fill="#006078" d="M8.5 17.3l2.8 2.8 2.7-2.7c-1.4-1.5-3.9-1.5-5.5-.1z"/><path fill="#006078" d="M5.7 14.5l1.4 1.4c2.3-2.2 6.1-2.2 8.4.1l1.4-1.4c-3.1-3.1-8.1-3.1-11.2-.1z"/><path fill="#C1C1C1" d="M2.9 11.7l1.4 1.4c3.9-3.8 10.2-3.8 14 .1l1.4-1.4c-4.6-4.7-12.1-4.7-16.8-.1z"/><path fill="#C1C1C1" d="M0 8.8l1.4 1.4c5.5-5.4 14.3-5.3 19.7.1l1.4-1.4C16.3 2.7 6.3 2.7 0 8.8z"/><path d="M23.5 15.2V14c0-1.1-.9-2-2-2s-2 .9-2 2v1.2c-.3.2-.5.5-.5.8v3c0 .5.5 1 1 1h3c.5 0 1-.5 1-1v-3c0-.3-.2-.6-.5-.8zM22 18.7h-1v-2h1v2zm.5-3.6h-2v-1c0-.6.4-1 1-1s1 .4 1 1v1z"/></symbol><symbol viewBox="0 0 24 24" id="wifi_lock_3" xmlns="http://www.w3.org/2000/svg"><path fill="#006078" d="M8.5 17.3l2.8 2.8 2.7-2.7c-1.4-1.5-3.9-1.5-5.5-.1z"/><path fill="#006078" d="M5.7 14.5l1.4 1.4c2.3-2.2 6.1-2.2 8.4.1l1.4-1.4c-3.1-3.1-8.1-3.1-11.2-.1z"/><path fill="#006078" d="M2.9 11.7l1.4 1.4c3.9-3.8 10.2-3.8 14 .1l1.4-1.4c-4.6-4.7-12.1-4.7-16.8-.1z"/><path fill="#C1C1C1" d="M0 8.8l1.4 1.4c5.5-5.4 14.3-5.3 19.7.1l1.4-1.4C16.3 2.7 6.3 2.7 0 8.8z"/><path d="M23.5 15.2V14c0-1.1-.9-2-2-2s-2 .9-2 2v1.2c-.3.2-.5.5-.5.8v3c0 .5.5 1 1 1h3c.5 0 1-.5 1-1v-3c0-.3-.2-.6-.5-.8zM22 18.7h-1v-2h1v2zm.5-3.6h-2v-1c0-.6.4-1 1-1s1 .4 1 1v1z"/></symbol><symbol viewBox="0 0 24 24" id="wifi_lock_4" xmlns="http://www.w3.org/2000/svg"><path fill="#006078" d="M8.5 17.3l2.8 2.8 2.7-2.7c-1.4-1.5-3.9-1.5-5.5-.1z"/><path fill="#006078" d="M5.7 14.5l1.4 1.4c2.3-2.2 6.1-2.2 8.4.1l1.4-1.4c-3.1-3.1-8.1-3.1-11.2-.1z"/><path fill="#006078" d="M2.9 11.7l1.4 1.4c3.9-3.8 10.2-3.8 14 .1l1.4-1.4c-4.6-4.7-12.1-4.7-16.8-.1z"/><path fill="#006078" d="M0 8.8l1.4 1.4c5.5-5.4 14.3-5.3 19.7.1l1.4-1.4C16.3 2.7 6.3 2.7 0 8.8z"/><path d="M23.5 15.2V14c0-1.1-.9-2-2-2s-2 .9-2 2v1.2c-.3.2-.5.5-.5.8v3c0 .5.5 1 1 1h3c.5 0 1-.5 1-1v-3c0-.3-.2-.6-.5-.8zM22 18.7h-1v-2h1v2zm.5-3.6h-2v-1c0-.6.4-1 1-1s1 .4 1 1v1z"/></symbol><symbol viewBox="0 0 24 24" id="ya_icon" xmlns="http://www.w3.org/2000/svg"><path d="M17.9 0h-2c-.2 0-.3.1-.3.2s-3 9.3-3.3 10.1c-.2.5-.7 2.5-.8 2.9l-1-2.9c-.3-.8-2.7-7.6-2.8-7.9 0-.2-.1-.3-.4-.3h-2c-.2 0-.3.2-.2.3 0 .1 3.6 9.6 5.1 13.3v8c0 .1.1.2.2.2h1.9c.1 0 .2-.1.2-.2v-8C13.7 12.3 18.1.3 18.1.2c.1 0 .1-.2-.2-.2z" fill="red"/></symbol><symbol viewBox="0 0 24 24" id="ya_icon_rus" xmlns="http://www.w3.org/2000/svg"><path d="M72.4 4.3h-2c-.2 0-.3.1-.3.2s-3 9.3-3.3 10.1c-.2.5-.7 2.5-.8 2.9l-1-2.9c-.3-.8-2.7-7.6-2.8-7.9 0-.2-.1-.3-.4-.3h-2c-.2 0-.3.2-.2.3 0 .1 3.6 9.6 5.1 13.3v8c0 .1.1.2.2.2h1.9c.1 0 .2-.1.2-.2v-8c1.2-3.4 5.6-15.4 5.6-15.5.1-.1.1-.2-.2-.2zM16.3 0h-3.6C9.1 0 6.1 2.7 6.1 8c0 3.2 1.5 5.5 4.1 6.7l-4.9 8.8c-.2.3 0 .5.3.5h2.3c.2 0 .3-.1.4-.2l4.4-8.7h1.6v8.7c0 .1.1.2.2.2h2c.2 0 .3-.1.3-.3V.3c-.1-.2-.3-.3-.5-.3zm-2.1 13.1h-1.3c-2.1 0-4.1-1.5-4.1-5.4 0-4 1.9-5.6 3.9-5.6h1.6v11z" fill="red"/></symbol><symbol viewBox="0 0 320 127" id="yandex_logo" xmlns="http://www.w3.org/2000/svg"><path d="M140.9 47.7c-7.3 0-15 5.4-15 5.4v-3.4c0-.7-.3-1-1-1h-9.3c-.7 0-1.2.4-1.2 1v73.2c0 .7.3 1.2 1 1.2h9.5c.6 0 1-.4 1-1.2V60.2s4.4-2.8 9.8-2.8c5.1 0 9.1 2.5 9.1 7.7v57.8c0 .7.4 1.2 1.2 1.2h9.3c.7 0 1-.6 1-1.2v-61c.1-9.2-5.5-14.2-15.4-14.2zM213.6 11h-9.3c-.7 0-1.2.4-1.2 1v37c-3.6-1.3-6.9-2.1-9.5-2.1-15.2 0-25.6 14.5-25.6 42.4 0 23.9 10.1 36.7 23.4 36.7 5.6 0 10.2-3.2 13.6-6.2l2 3.4c.4.6.6.8 1.3.8h5.4c.6 0 1-.4 1-1.2V12.1c-.1-.8-.4-1.1-1.1-1.1zm-33.3 75.8c0-15.3 4.5-30.6 13.7-30.6 3.1 0 6.1 1 9 3.4v54.1c-2.3 1.3-5.2 2.4-8.3 2.4-10 .1-14.4-11.8-14.4-29.3zm69-39.7c-15.6 0-23.2 20.3-23.2 42.5 0 23.2 10.9 36.2 25 36.2 6.2 0 12.4-2.5 16.4-4.7.6-.4.7-.8.6-1.4l-1.2-4.9c-.1-.6-.4-.9-1.2-.9-.3 0-5.4 1.5-10.4 1.5-11.5 0-16.8-10.3-16.8-23.8v-3.3s5.7.8 9.2.8h21.7v-6.3c0-23.3-8.1-35.7-20.1-35.7zm-.7 32.4c-3.4 0-9.7.8-9.7.8s.1-2.5.4-4.9c1.3-12.7 4.4-19.1 9.6-19.1 4.5 0 7.7 6.6 8.4 18.1.1 2.4.1 5.1.1 5.1h-8.8zm-152-23c-3.4-6.8-9.6-9.8-16.7-9.8-4.5 0-11.6 1.7-16.3 3.9-.9.4-1.5.7-1.5 1.5 0 .4.2.9.4 1.3l3.2 6.8c.3.7.8 1 1.3 1 .4 0 .8-.2 1.3-.5 4.6-3 8-4.5 10.6-4.5 3.5 0 6 2.3 7.4 5.9 1.3 3.3 1.9 7.8 1.9 13v1.6c-2.9-1.8-7.9-2.8-10.4-2.8C64.3 73.8 57 86.6 57 100.3c0 14.7 8.5 25.6 18.8 25.6 5.7 0 10.9-3.4 14.3-7.5 0 0 1.9 4.4 2.1 4.9.2.5.5.7 1.2.7h5.4c.6 0 1-.4 1-1.2V80.4c.1-10.5-.5-18.4-3.2-23.9zm-8.3 55.7c-2.7 2.6-5.9 3.9-8.8 3.9s-5.1-1.3-6.9-3.8c-2.2-3-3.2-7.6-3.2-12.7 0-8.1 3-16.4 9.3-16.4 3.1 0 6.6 1 9.5 3.4l.1 25.6zm230.5-63.6h-8.3c-.9 0-1.4.5-1.6 1.1-.5 1.4-4 10.6-5.5 14.5-1 2.8-3.8 10.6-3.8 10.6h-.3s-2-5.7-3.1-8.6c-.9-2.3-5.5-14.5-6.1-16-.3-.8-.7-1.6-1.9-1.6h-9.1c-1 0-1.6 1.1-1.3 1.8.3.7 14.8 33.7 14.8 33.7S277 121.2 276.5 122c-.4.8.1 2.1 1.2 2.1h8c1.4 0 1.9-.7 2.3-1.9 1.1-3.2 2.8-7.7 5.3-14.6 1.6-4.6 4.2-12.7 4.2-12.7h.3s2.8 8.2 3.8 10.9c2.6 6.8 6 15.6 6.3 16.5.4 1 .9 1.6 1.8 1.6h9.1c.9 0 1.3-1 .9-1.9-1-2.2-9.6-23-15.6-36.8 0 0 15.5-34.3 15.8-35.1.3-.7.2-1.5-1.1-1.5z" fill="#010101"/><path fill="#ed2224" d="M66.5 0H56c-.9 0-1.5.4-1.6 1.1-.1.7-15.8 48.4-16.9 52.4-.8 2.8-3.4 12.7-4.1 15.1L28 53.7c-1.3-4.1-14-39.5-14.4-41-.3-.7-.6-1.7-2-1.7H1.3c-1 0-1.6 1.1-1.3 1.8.2.5 18.8 50 26.3 68.8v41.5c0 .7.3 1.2 1 1.2H37c.6 0 1-.4 1-1.2V82C44.3 64.6 67 2.5 67.3 1.7c.5-.8.5-1.7-.8-1.7z"/></symbol><symbol viewBox="0 0 320 127" id="yandex_logo_rus" xmlns="http://www.w3.org/2000/svg"><path fill="#ed2224" d="M52.4 0h-17C18.7 0 4.5 12.7 4.5 37.4c0 14.8 6.9 25.8 19.1 31.2L.8 109.9c-.7 1.3 0 2.4 1.2 2.4h10.6c.9 0 1.5-.3 1.8-1l20.8-40.6h7.5v40.6c0 .4.4 1 1 1H53c.9 0 1.2-.4 1.2-1.2V1.5c-.1-1-.7-1.5-1.8-1.5zm-9.8 61.1h-6.3c-9.9 0-19.4-7.2-19.4-25.2 0-18.7 9-26.4 18.1-26.4h7.6v51.6z"/><path d="M108.6 37.3h-9.3c-.7 0-1.2.6-1.2 1v28.6H80.9V38.3c0-.7-.3-1-1-1h-9.3c-.7 0-1.2.4-1.2 1v72.8c0 .7.3 1.2 1 1.2h9.4c.6 0 1-.4 1-1.2V76.4H98v34.7c0 .7.4 1.2 1.2 1.2h9.3c.7 0 1-.6 1-1.2V38.3c.1-.6-.4-1-.9-1zm211.3 70.2l-1.2-5.1c-.1-.4-.3-.6-.7-.6-.7 0-4.8 1.6-10.6 1.6-11.3 0-16.9-10.9-16.9-28.3 0-15.3 4.6-30.4 12.4-30.4 2.1 0 4.6.6 8.7 4.3.4.4.7.6 1.2.6.4 0 .9-.3 1.3-1.1l4-6.6c.3-.5.4-.9.4-1.4 0-.6-.6-1-1.5-1.5-6.1-3.1-10.3-3.7-13.9-3.7-14 0-24.9 16.8-24.9 43 0 22.6 10.5 35.6 25.4 35.6 6.3 0 13-3 15.7-4.9.6-.3.8-.9.6-1.5zM255 71.1l17.9-32.8c.3-.4.1-1-.4-1h-8.8c-2.5 0-3.4.9-4.3 2.8l-13.4 28c-.7 1.6-1.5 2.7-2.2 3.1v-33c0-.6-.3-1-.9-1h-9.7c-.4 0-.9.4-.9 1v72.9c0 .4.3 1 .9 1h9.7c.6 0 .9-.4.9-1V73.5c.4.3.7.7 1 1.3l17 35c.9 1.8 2.2 2.2 4.2 2.2h9.6c.6 0 .7-.6.4-1l-21-39.9zm-85.5 31.8h-1.8c-2.2 0-2.8-.9-2.8-2.7V38.3c0-.7-.3-1-.9-1h-29.9c-.7 0-1.2.4-1.2 1v5.4c0 18.1-1 41.5-10.6 59.2H119c-.9 0-1.2.5-1.2 1.2V126c0 .8.6 1 1 1h7.2c1.6 0 2.2-1.2 2.2-2.2v-12.4h32v13.5c0 .6.4 1 1 1h7.6c.9 0 1.8-.7 1.8-2.2V104c.1-.7-.4-1.1-1.1-1.1zm-16.2 0h-21.6c7.6-13 10.6-27.7 11.6-45.7.3-3.9.4-7.9.4-10.5h9.6v56.2zm46.6-67.4c-16.1 0-23.3 20.4-23.3 42.5 0 22.6 10.2 36.1 25.1 36.1 7.3 0 13.7-2.8 17-4.9.6-.3.7-.7.6-1.3l-1.2-5.1c-.1-.6-.4-.9-1.2-.9-.6 0-4.9 1.6-11 1.6-11.5 0-16.9-10-16.9-23.2v-3.5s5.8.7 9.3.7h21.8v-6.3c0-23.3-8.2-35.7-20.2-35.7zM198.3 68c-3.4 0-8.8.6-8.8.6s0-2.2.3-4.6c1.3-12.7 4.5-19.2 9.7-19.2 4.8 0 7.8 6.6 8.5 18.1.1 2.4.1 5.1.1 5.1h-9.8z" fill="#010101"/></symbol></svg>