<svg width="45" height="45" viewBox="0 0 45 45" fill="none" xmlns="http://www.w3.org/2000/svg">
<path d="M20.9508 0C9.71953 0.739246 0.739246 9.71953 0 20.9508H3.00763C3.7359 11.3772 11.3772 3.7359 20.9508 3.00763V0Z" fill="black"/>
<path d="M24 0C35.2313 0.739246 44.2115 9.71953 44.9508 20.9508H41.9432C41.2149 11.3772 33.5736 3.7359 24 3.00763V0Z" fill="black"/>
<path d="M24 44.9508C35.2313 44.2115 44.2115 35.2313 44.9508 24H41.9432C41.2149 33.5736 33.5736 41.2149 24 41.9432V44.9508Z" fill="black"/>
<path d="M20.9508 44.9508C9.71953 44.2115 0.739246 35.2313 0 24H3.00763C3.7359 33.5736 11.3772 41.2149 20.9508 41.9432V44.9508Z" fill="black"/>
<path d="M23 22L31.5 17.5L23 13V16H13V19H23V22ZM21 23L12.5 27.5L21 32V29H31V26H21V23Z" fill="black"/>
</svg>
