<svg width="930" height="310" fill="none" xmlns="http://www.w3.org/2000/svg"><path d="M127.3 227.3c-3.9-17.9-19.8-31.3-38.8-31.3-14.2 0-26.7 7.5-33.7 18.7-3.2-2-7-3.2-11.1-3.2-9.5 0-17.6 6.3-20.2 15C10.4 227.2 0 238 0 251.3c0 13.7 11.1 24.8 24.8 24.8h96.3c13.7 0 24.8-11.1 24.8-24.8-.1-11.5-7.9-21.2-18.6-24zm-6.3 43.9H24.7c-10.9 0-19.8-8.9-19.8-19.8 0-10.6 8.3-19.3 18.8-19.8l3.5-.2 1-3.4c2.1-6.8 8.3-11.4 15.5-11.4 3 0 5.9.8 8.4 2.4l4.2 2.6 2.6-4.2c6.4-10.3 17.4-16.4 29.5-16.4 16.3 0 30.5 11.5 33.9 27.4l.6 3 3 .8c8.7 2.3 14.8 10.2 14.8 19.2.1 10.9-8.7 19.8-19.7 19.8z" fill="#444"/><path d="M48.882 239.805l4.93 13.922 4.905-13.922h5.194V259h-3.968v-5.247l.395-9.057L55.158 259H52.44l-5.168-14.291.396 9.044V259h-3.955v-19.195h5.168zm24.798 19.459c-2.092 0-3.797-.642-5.115-1.925-1.31-1.283-1.964-2.993-1.964-5.129v-.369c0-1.432.276-2.711.83-3.836.554-1.134 1.336-2.004 2.347-2.61 1.02-.616 2.18-.923 3.48-.923 1.952 0 3.485.615 4.601 1.845 1.125 1.231 1.688 2.975 1.688 5.234v1.556h-9.084c.123.932.493 1.679 1.108 2.241.624.563 1.41.844 2.36.844 1.467 0 2.614-.532 3.44-1.595l1.873 2.096c-.572.808-1.345 1.441-2.32 1.898-.976.449-2.057.673-3.244.673zm-.435-11.707c-.756 0-1.371.255-1.846.764-.465.51-.764 1.24-.896 2.189h5.3v-.303c-.018-.844-.246-1.495-.686-1.952-.44-.465-1.063-.698-1.872-.698zm16.203 7.501c0-.466-.233-.83-.699-1.094-.457-.273-1.195-.514-2.215-.725-3.392-.712-5.089-2.154-5.089-4.324 0-1.266.523-2.321 1.57-3.165 1.054-.852 2.43-1.278 4.126-1.278 1.81 0 3.256.426 4.337 1.278 1.09.853 1.635 1.96 1.635 3.323h-3.81c0-.545-.176-.993-.528-1.345-.351-.36-.9-.54-1.648-.54-.641 0-1.138.145-1.49.435-.35.29-.527.659-.527 1.107 0 .422.198.765.594 1.028.404.255 1.08.479 2.03.673.95.184 1.749.395 2.4.632 2.012.739 3.018 2.018 3.018 3.837 0 1.301-.558 2.355-1.674 3.164-1.116.8-2.558 1.2-4.324 1.2-1.195 0-2.259-.211-3.19-.633-.924-.431-1.649-1.015-2.176-1.754-.527-.747-.79-1.551-.79-2.412h3.611c.035.677.286 1.195.752 1.556.466.36 1.09.54 1.872.54.73 0 1.279-.136 1.648-.409.378-.281.567-.646.567-1.094zm9.887-8.767c1.011-1.213 2.281-1.819 3.811-1.819 3.093 0 4.662 1.797 4.706 5.392V259h-3.81v-9.031c0-.817-.176-1.419-.527-1.806-.352-.395-.936-.593-1.754-.593-1.116 0-1.925.43-2.426 1.292V259h-3.81v-20.25h3.81v7.541z" fill="#444"/><path d="M529 245.5c2.7 0 5.3.7 7.5 1.8l-5.7-9.1c-2.5-3.6-6.9-7.3-10.9-7.3h-75c-4 0-8.4 3.1-10.9 7.3l-5.7 9.1c2.2-1.2 4.8-1.8 7.5-1.8H529zm13.7 13.9c-1.2-6.5-6.9-11.5-13.7-11.5h-93.1c-6.8 0-12.5 5-13.7 11.5-.1.8-.2 1.6-.2 2.5 0 7.7 6.3 13.9 13.9 13.9H529c7.7 0 13.9-6.3 13.9-13.9 0-.9-.1-1.7-.2-2.5zm-100.1 3c0 2-1.6 3.7-3.7 3.7h-4.3c-2 0-3.7-1.6-3.7-3.7 0-2 1.6-3.7 3.7-3.7h4.3c2 .1 3.7 1.7 3.7 3.7zm17 0c0 2-1.6 3.7-3.7 3.7h-4.3c-2 0-3.7-1.6-3.7-3.7 0-2 1.6-3.7 3.7-3.7h4.3c2 .1 3.7 1.7 3.7 3.7zm36.3 2.5c-1.4 0-2.5-1.1-2.5-2.5s1.1-2.5 2.5-2.5 2.5 1.1 2.5 2.5-1.2 2.5-2.5 2.5zm8.4 0c-1.4 0-2.5-1.1-2.5-2.5s1.1-2.5 2.5-2.5 2.5 1.1 2.5 2.5-1.1 2.5-2.5 2.5zm8.5 0c-1.4 0-2.5-1.1-2.5-2.5s1.1-2.5 2.5-2.5 2.5 1.1 2.5 2.5-1.1 2.5-2.5 2.5zm8.5 0c-1.4 0-2.5-1.1-2.5-2.5s1.1-2.5 2.5-2.5 2.5 1.1 2.5 2.5-1.2 2.5-2.5 2.5zm8.4 0c-1.4 0-2.5-1.1-2.5-2.5s1.1-2.5 2.5-2.5 2.5 1.1 2.5 2.5-1.1 2.5-2.5 2.5zm-75.5-36.4l-1.2-48.7v-.1c-.1-1.5-1.3-2.7-2.8-2.7-1.5 0-2.7 1.2-2.8 2.7v.1l-1.2 48.7h8zm64.4 0l-1.2-48.7v-.1c-.1-1.5-1.3-2.7-2.8-2.7-1.5 0-2.7 1.2-2.8 2.7v.1l-1.2 48.7h8z" fill="#434343"/><path d="M880.5 206h-68c-4.7 0-8.5 3.8-8.5 8.5v39.8c0 4.7 3.8 8.5 8.5 8.5h23.2v5.9h-12c-1.9 0-3.5 1.6-3.5 3.5s1.6 3.5 3.5 3.5h42c1.9 0 3.5-1.6 3.5-3.5s-1.6-3.5-3.5-3.5h-12v-5.9h26.8c4.7 0 8.5-3.8 8.5-8.5v-39.8c0-4.7-3.8-8.5-8.5-8.5zm3.5 48.3c0 1.9-1.6 3.5-3.5 3.5h-68c-1.9 0-3.5-1.6-3.5-3.5v-39.8c0-1.9 1.6-3.5 3.5-3.5h68c1.9 0 3.5 1.6 3.5 3.5v39.8zm39-48.3h-22.7c-3.8 0-7 3.2-7 7v54.2c0 3.8 3.2 7 7 7H923c3.8 0 7-3.2 7-7V213c0-3.9-3.2-7-7-7zm-11.8 56.9c-2.7 0-4.9-2.2-4.9-4.9s2.2-4.9 4.9-4.9 4.9 2.2 4.9 4.9-2.2 4.9-4.9 4.9zm14-33.6c0 1.7-1.4 3-3 3h-21.1c-1.7 0-3-1.3-3-3v-1.5c0-1.7 1.3-3 3-3h21.1c1.6 0 3 1.3 3 3v1.5zm0-12c0 1.7-1.4 3-3 3h-21.1c-1.7 0-3-1.3-3-3v-1.5c0-1.7 1.3-3 3-3h21.1c1.6 0 3 1.3 3 3v1.5zM900.9 58.4l-.3-.6c-1.6-3.3-2.9-6.2-6.2-7.1 1.6-1.6 2.7-3.9 2.7-6.4V8.5c0-4.7-3.8-8.5-8.5-8.5h-68c-4.7 0-8.5 3.8-8.5 8.5v35.8c0 2.6 1.1 4.8 3 6.3-3.8 1-5.4 4.6-6.8 7.8l-4.3 9.3v.5c0 2.9 0 8.9 7.5 8.9h88.1c3.9 0 5.8-3 5.8-8.9v-.6l-4.5-9.2zm-28.7-.4v1c0 1.1-.9 2-2 2h-1.9c-1.1 0-2-.9-2-2v-1c0-1.1.9-2 2-2h1.9c1.1 0 2 .9 2 2zm-7.9-.1v1c0 1.1-.9 2-2 2h-1.9c-1.1 0-2-.9-2-2v-1c0-1.1.9-2 2-2h1.9c1.1 0 2 .9 2 2zm-8 0v1c0 1.1-.9 2-2 2h-1.9c-1.1 0-2-.9-2-2v-1c0-1.1.9-2 2-2h1.9c1.1 0 2 .9 2 2zm-8 0v1c0 1.1-.9 2-2 2h-1.9c-1.1 0-2-.9-2-2v-1c0-1.1.9-2 2-2h1.9c1.1 0 2 .9 2 2zm-8 0v1c0 1.1-.9 2-2 2h-1.9c-1.1 0-2-.9-2-2v-1c0-1.1.9-2 2-2h1.9c1.1 0 2 .9 2 2zM817.1 8.5c0-1.9 1.6-3.5 3.5-3.5h68c1.9 0 3.5 1.6 3.5 3.5v35.8c0 2-1.6 3.5-2.5 3.5h-68c-2.7 0-4.5-1.4-4.5-3.5V8.5zm3.1 58.5c0 1.1-.9 2-2 2h-1.9c-1.1 0-2-.9-2-2v-1c0-1.1.9-2 2-2h1.9c1.1 0 2 .9 2 2v1zm.2-6.1c-1.1 0-2-.9-2-2v-1c0-1.1.9-2 2-2h1.9c1.1 0 2 .9 2 2v1c0 1.1-.9 2-2 2h-1.9zm7.8 6.1c0 1.1-.9 2-2 2h-1.9c-1.1 0-2-.9-2-2v-1c0-1.1.9-2 2-2h1.9c1.1 0 2 .9 2 2v1zm.2-6.1c-1.1 0-2-.9-2-2v-1c0-1.1.9-2 2-2h1.9c1.1 0 2 .9 2 2v1c0 1.1-.9 2-2 2h-1.9zm47.8 6.1c0 1.1-.9 2-2 2h-41.9c-1.1 0-2-.9-2-2v-1c0-1.1.9-2 2-2h41.9c1.1 0 2 .9 2 2v1zm.1-6c-1.1 0-2-.9-2-2v-1c0-1.1.9-2 2-2h1.9c1.1 0 2 .9 2 2v1c0 1.1-.9 2-2 2h-1.9zm7.9 6c0 1.1-.9 2-2 2h-1.9c-1.1 0-2-.9-2-2v-1c0-1.1.9-2 2-2h1.9c1.1 0 2 .9 2 2v1zm.1-6c-1.1 0-2-.9-2-2v-1c0-1.1.9-2 2-2h1.9c1.1 0 2 .9 2 2v1c0 1.1-.9 2-2 2h-1.9zm7.9 6c0 1.1-.9 2-2 2h-1.9c-1.1 0-2-.9-2-2v-1c0-1.1.9-2 2-2h1.9c1.1 0 2 .9 2 2v1z" fill="#444"/><path d="M429.791 191.164c.566.566 1.556.566 2.121 0 .566-.565.566-1.555 0-2.121-6.788-6.788-6.859-17.89 0-24.749.566-.565.566-1.555 0-2.121-.565-.566-1.555-.566-2.121 0-7.99 7.99-7.99 21.001 0 28.991zm-9.97 9.971c-13.506-13.506-13.506-35.426 0-48.932.566-.566.566-1.556 0-2.121-.566-.566-1.556-.566-2.121 0-14.638 14.637-14.638 38.537 0 53.174.565.566 1.555.566 2.121 0 .566-.566.566-1.556 0-2.121z" fill="#B7B7B7"/><path d="M407.729 213.226c-20.152-20.152-20.081-52.892 0-72.973.566-.566.566-1.556 0-2.122-.565-.565-1.555-.565-2.121 0-21.284 21.284-21.284 55.932 0 77.216.566.566 1.556.566 2.121 0 .566-.565.566-1.555 0-2.121zm123.888-51.982c-.566-.566-1.556-.566-2.121 0-.566.565-.566 1.555 0 2.121 6.788 6.788 6.859 17.89 0 24.749-.566.565-.566 1.555 0 2.121.565.566 1.555.566 2.121 0 7.99-7.99 7.99-21.001 0-28.991zm9.97-9.971c13.506 13.506 13.506 35.426 0 48.932-.565.566-.565 1.556 0 2.122.566.565 1.556.565 2.122 0 14.637-14.638 14.637-38.538 0-53.175-.566-.566-1.556-.566-2.122 0-.565.566-.565 1.556 0 2.121z" fill="#B7B7B7"/><path d="M553.679 139.182c20.152 20.153 20.082 52.892 0 72.973-.566.566-.566 1.556 0 2.122.566.565 1.555.565 2.121 0 21.284-21.284 21.284-55.932 0-77.216-.566-.566-1.555-.566-2.121 0-.566.565-.566 1.555 0 2.121zm-420.062 29.062c-.566-.566-1.556-.566-2.121 0-.566.565-.566 1.555 0 2.121 6.788 6.788 6.859 17.89 0 24.749-.566.565-.566 1.555 0 2.121.565.566 1.555.566 2.121 0 7.99-7.99 7.99-21.001 0-28.991zm9.97-9.971c13.506 13.506 13.506 35.426 0 48.932-.566.566-.566 1.556 0 2.122.566.565 1.556.565 2.121 0 14.638-14.638 14.638-38.538.001-53.175-.566-.566-1.556-.566-2.122 0-.565.566-.565 1.556 0 2.121z" fill="#B7B7B7"/><path d="M155.679 146.182c20.152 20.153 20.082 52.892 0 72.973-.566.566-.566 1.556 0 2.122.565.565 1.555.565 2.121 0 21.284-21.284 21.284-55.932 0-77.216-.566-.566-1.556-.566-2.121 0-.566.565-.566 1.555 0 2.121z" fill="#B7B7B7"/><path d="M219.701 167.094l6.508 16.242 6.508-16.242h3.404V187h-2.625v-7.752l.246-8.367L227.207 187h-2.01l-6.521-16.078.26 8.326V187h-2.625v-19.906h3.39zm26.797 20.179c-2.005 0-3.637-.656-4.894-1.968-1.258-1.322-1.887-3.086-1.887-5.291v-.465c0-1.468.278-2.776.834-3.924.565-1.158 1.349-2.06 2.351-2.707a5.92 5.92 0 0 1 3.282-.984c1.923 0 3.418.633 4.484 1.9 1.066 1.267 1.6 3.081 1.6 5.441v1.053h-10.022c.037 1.458.46 2.639 1.272 3.541.82.893 1.859 1.34 3.117 1.34.893 0 1.65-.182 2.269-.547a5.7 5.7 0 0 0 1.627-1.449l1.545 1.203c-1.239 1.905-3.099 2.857-5.578 2.857zm-.314-13.261c-1.021 0-1.878.373-2.571 1.121-.692.738-1.121 1.777-1.285 3.117h7.41v-.191c-.073-1.286-.419-2.279-1.039-2.981-.62-.711-1.458-1.066-2.515-1.066zm17.636 9.064c0-.683-.259-1.212-.779-1.586-.51-.383-1.408-.711-2.693-.984-1.276-.274-2.293-.602-3.049-.985-.748-.382-1.304-.838-1.668-1.367-.356-.528-.533-1.157-.533-1.886 0-1.213.51-2.238 1.531-3.077 1.03-.838 2.342-1.257 3.937-1.257 1.677 0 3.036.433 4.075 1.298 1.048.866 1.572 1.974 1.572 3.323h-2.543c0-.693-.296-1.29-.889-1.791-.583-.502-1.321-.752-2.215-.752-.92 0-1.64.2-2.16.601-.519.401-.779.925-.779 1.573 0 .61.241 1.071.725 1.38.483.31 1.353.607 2.611.889 1.267.283 2.292.62 3.076 1.012.784.392 1.363.866 1.736 1.422.383.547.575 1.216.575 2.009 0 1.322-.529 2.384-1.586 3.186-1.058.793-2.429 1.189-4.116 1.189-1.184 0-2.233-.209-3.144-.628-.912-.42-1.627-1.003-2.147-1.75a4.298 4.298 0 0 1-.765-2.448h2.529c.046.848.383 1.522 1.012 2.024.638.492 1.476.738 2.515.738.957 0 1.723-.191 2.297-.574.584-.392.875-.912.875-1.559zm8.354-9.078c1.121-1.376 2.579-2.064 4.375-2.064 3.126 0 4.703 1.763 4.73 5.291V187h-2.529v-9.789c-.009-1.066-.255-1.855-.738-2.365-.474-.511-1.217-.766-2.229-.766-.82 0-1.54.219-2.16.656a4.455 4.455 0 0 0-1.449 1.723V187h-2.529v-21h2.529v7.998zm26.099 4.129c-2.251-.647-3.891-1.44-4.921-2.379-1.021-.948-1.532-2.115-1.532-3.5 0-1.568.625-2.862 1.873-3.883 1.258-1.03 2.89-1.545 4.895-1.545 1.367 0 2.584.265 3.65.793 1.076.529 1.905 1.258 2.489 2.188.592.929.888 1.946.888 3.049h-2.638c0-1.204-.383-2.147-1.149-2.83-.766-.693-1.846-1.04-3.24-1.04-1.294 0-2.306.288-3.035.862-.72.565-1.08 1.353-1.08 2.365 0 .811.341 1.499 1.025 2.064.693.556 1.864 1.067 3.514 1.532 1.659.465 2.953.98 3.883 1.545.938.556 1.631 1.207 2.078 1.955.455.747.683 1.627.683 2.638 0 1.614-.629 2.908-1.886 3.883-1.258.966-2.94 1.449-5.045 1.449-1.368 0-2.644-.259-3.829-.779-1.184-.529-2.1-1.249-2.748-2.16-.638-.911-.957-1.946-.957-3.104h2.639c0 1.204.442 2.156 1.326 2.858.893.693 2.083 1.039 3.569 1.039 1.385 0 2.447-.283 3.185-.848s1.108-1.335 1.108-2.31c0-.976-.342-1.727-1.026-2.256-.683-.538-1.923-1.067-3.719-1.586zm16.625 0c-2.251-.647-3.891-1.44-4.921-2.379-1.021-.948-1.532-2.115-1.532-3.5 0-1.568.625-2.862 1.873-3.883 1.258-1.03 2.89-1.545 4.895-1.545 1.367 0 2.584.265 3.65.793 1.076.529 1.905 1.258 2.489 2.188.592.929.888 1.946.888 3.049h-2.638c0-1.204-.383-2.147-1.149-2.83-.765-.693-1.846-1.04-3.24-1.04-1.294 0-2.306.288-3.035.862-.72.565-1.08 1.353-1.08 2.365 0 .811.341 1.499 1.025 2.064.693.556 1.864 1.067 3.514 1.532 1.659.465 2.953.98 3.883 1.545.938.556 1.631 1.207 2.078 1.955.455.747.683 1.627.683 2.638 0 1.614-.629 2.908-1.886 3.883-1.258.966-2.94 1.449-5.045 1.449-1.368 0-2.644-.259-3.829-.779-1.184-.529-2.1-1.249-2.748-2.16-.638-.911-.957-1.946-.957-3.104h2.639c0 1.204.442 2.156 1.326 2.858.893.693 2.083 1.039 3.569 1.039 1.385 0 2.447-.283 3.185-.848s1.108-1.335 1.108-2.31c0-.976-.342-1.727-1.026-2.256-.683-.538-1.923-1.067-3.719-1.586zM328.475 187h-2.625v-19.906h2.625V187zm4.812 0v-19.906h5.619c1.732 0 3.263.383 4.594 1.148 1.331.766 2.356 1.855 3.076 3.268.729 1.413 1.098 3.035 1.108 4.867v1.271c0 1.878-.365 3.523-1.094 4.936-.72 1.413-1.755 2.497-3.104 3.254-1.34.756-2.903 1.144-4.689 1.162h-5.51zm2.625-17.746v15.6h2.762c2.023 0 3.596-.629 4.717-1.887 1.13-1.258 1.695-3.049 1.695-5.373v-1.162c0-2.261-.533-4.015-1.6-5.264-1.057-1.258-2.561-1.896-4.511-1.914h-3.063zm302.264-29.127c-2.252-.647-3.892-1.44-4.922-2.379-1.021-.948-1.531-2.115-1.531-3.5 0-1.568.624-2.862 1.873-3.883 1.258-1.03 2.889-1.545 4.894-1.545 1.367 0 2.584.265 3.651.793 1.075.529 1.905 1.258 2.488 2.188.592.929.889 1.946.889 3.049h-2.639c0-1.204-.383-2.147-1.149-2.83-.765-.693-1.845-1.04-3.24-1.04-1.294 0-2.306.288-3.035.862-.72.565-1.08 1.353-1.08 2.365 0 .811.342 1.499 1.025 2.064.693.556 1.864 1.067 3.514 1.532 1.659.465 2.953.98 3.883 1.545.939.556 1.631 1.207 2.078 1.955.456.747.684 1.627.684 2.638 0 1.614-.629 2.908-1.887 3.883-1.258.966-2.94 1.449-5.045 1.449-1.367 0-2.643-.259-3.828-.779-1.185-.529-2.101-1.249-2.748-2.16-.638-.911-.957-1.946-.957-3.104h2.638c0 1.204.442 2.156 1.327 2.858.893.693 2.082 1.039 3.568 1.039 1.385 0 2.447-.283 3.185-.848.739-.565 1.108-1.335 1.108-2.31 0-.976-.342-1.727-1.025-2.256-.684-.538-1.924-1.067-3.719-1.586zm16.625 0c-2.252-.647-3.892-1.44-4.922-2.379-1.021-.948-1.531-2.115-1.531-3.5 0-1.568.624-2.862 1.873-3.883 1.258-1.03 2.889-1.545 4.894-1.545 1.367 0 2.584.265 3.651.793 1.075.529 1.905 1.258 2.488 2.188.592.929.889 1.946.889 3.049h-2.639c0-1.204-.383-2.147-1.149-2.83-.765-.693-1.845-1.04-3.24-1.04-1.294 0-2.306.288-3.035.862-.72.565-1.08 1.353-1.08 2.365 0 .811.342 1.499 1.025 2.064.693.556 1.864 1.067 3.514 1.532 1.659.465 2.953.98 3.883 1.545.939.556 1.631 1.207 2.078 1.955.456.747.684 1.627.684 2.638 0 1.614-.629 2.908-1.887 3.883-1.258.966-2.94 1.449-5.045 1.449-1.367 0-2.643-.259-3.828-.779-1.185-.529-2.101-1.249-2.748-2.16-.638-.911-.957-1.946-.957-3.104h2.638c0 1.204.442 2.156 1.327 2.858.893.693 2.082 1.039 3.568 1.039 1.385 0 2.447-.283 3.186-.848.738-.565 1.107-1.335 1.107-2.31 0-.976-.342-1.727-1.025-2.256-.684-.538-1.924-1.067-3.719-1.586zM668.377 149h-2.625v-19.906h2.625V149zm4.812 0v-19.906h5.62c1.731 0 3.263.383 4.593 1.148 1.331.766 2.356 1.855 3.077 3.268.729 1.413 1.098 3.035 1.107 4.867v1.271c0 1.878-.365 3.523-1.094 4.936-.72 1.413-1.754 2.497-3.103 3.254-1.34.756-2.903 1.144-4.69 1.162h-5.51zm2.625-17.746v15.6h2.762c2.024 0 3.596-.629 4.717-1.887 1.13-1.258 1.695-3.049 1.695-5.373v-1.162c0-2.261-.533-4.015-1.599-5.264-1.058-1.258-2.562-1.896-4.512-1.914h-3.063z" fill="#A7A7A7"/><path d="M365.639 266.76h9.433v2.146H363V249h2.639v17.76zm23.693-3.049h-8.34l-1.873 5.195h-2.707L384.014 249h2.297l7.615 19.906h-2.694l-1.9-5.195zm-7.547-2.16h6.768l-3.391-9.311-3.377 9.311zm30.119 7.355h-2.638l-10.022-15.34v15.34h-2.639V249h2.639l10.049 15.408V249h2.611v19.906zm146.735-2.146h9.433v2.146H556V249h2.639v17.76zm23.693-3.049h-8.34l-1.873 5.195h-2.707L577.014 249h2.297l7.615 19.906h-2.694l-1.9-5.195zm-7.547-2.16h6.768l-3.391-9.311-3.377 9.311zm30.119 7.355h-2.638l-10.022-15.34v15.34h-2.639V249h2.639l10.049 15.408V249h2.611v19.906z" fill="#434343"/><path d="M792.6 88c.8 0 1.5-.7 1.5-1.5s-.7-1.5-1.5-1.5c-9.6 0-17.5-7.8-17.5-17.5 0-.8-.7-1.5-1.5-1.5s-1.5.7-1.5 1.5c0 11.3 9.2 20.5 20.5 20.5zm0 14.1c-19.1 0-34.6-15.5-34.6-34.6 0-.8-.7-1.5-1.5-1.5s-1.5.7-1.5 1.5c0 20.7 16.9 37.6 37.6 37.6.8 0 1.5-.7 1.5-1.5s-.7-1.5-1.5-1.5z" fill="#B7B7B7"/><path d="M792.6 119.2c-28.5 0-51.6-23.2-51.6-51.6 0-.8-.7-1.5-1.5-1.5s-1.5.7-1.5 1.5c0 30.1 24.5 54.6 54.6 54.6.8 0 1.5-.7 1.5-1.5s-.7-1.5-1.5-1.5z" fill="#B7B7B7"/><path stroke="#B7B7B7" stroke-width="3" d="M615 257.5h181m-644 0h198"/><path d="M460.008 301.395c-1.93-.555-3.336-1.235-4.219-2.04-.875-.812-1.312-1.812-1.312-3 0-1.343.535-2.453 1.605-3.328 1.078-.882 2.477-1.324 4.195-1.324 1.172 0 2.215.227 3.129.68.922.453 1.633 1.078 2.133 1.875.508.797.762 1.668.762 2.613h-2.262c0-1.031-.328-1.84-.984-2.426-.657-.593-1.582-.89-2.778-.89-1.109 0-1.976.246-2.601.738-.617.484-.926 1.16-.926 2.027 0 .696.293 1.285.879 1.77.594.476 1.598.914 3.012 1.312 1.421.399 2.531.84 3.328 1.325.804.476 1.398 1.035 1.781 1.675.391.641.586 1.395.586 2.262 0 1.383-.539 2.492-1.617 3.328-1.078.828-2.52 1.242-4.324 1.242a8.073 8.073 0 0 1-3.282-.668c-1.015-.453-1.801-1.07-2.355-1.851-.547-.781-.82-1.668-.82-2.66h2.261c0 1.031.379 1.847 1.137 2.449.766.594 1.785.891 3.059.891 1.187 0 2.097-.243 2.73-.727s.949-1.145.949-1.98c0-.836-.293-1.481-.879-1.934-.586-.461-1.648-.914-3.187-1.359zM471.246 309h-2.168v-18h2.168v18zm11.309 0c-.125-.25-.227-.695-.305-1.336-1.008 1.047-2.211 1.57-3.609 1.57-1.25 0-2.278-.351-3.082-1.054-.797-.711-1.196-1.61-1.196-2.696 0-1.32.5-2.343 1.5-3.07 1.008-.734 2.422-1.102 4.242-1.102h2.11v-.996c0-.757-.227-1.359-.68-1.804-.453-.453-1.121-.68-2.004-.68-.773 0-1.422.195-1.945.586-.524.391-.785.863-.785 1.418h-2.18c0-.633.223-1.242.668-1.828.453-.594 1.063-1.063 1.828-1.406.774-.344 1.621-.516 2.543-.516 1.461 0 2.606.367 3.434 1.102.828.726 1.258 1.73 1.289 3.011v5.836c0 1.164.148 2.09.445 2.777V309h-2.273zm-3.598-1.652c.68 0 1.324-.176 1.934-.528.609-.351 1.05-.808 1.324-1.371v-2.601h-1.699c-2.657 0-3.985.777-3.985 2.332 0 .679.227 1.211.68 1.593.453.383 1.035.575 1.746.575zm12.82-1.289l3.141-9.739h2.215L492.586 309h-1.652l-4.594-12.68h2.215l3.222 9.739zm12.539 3.175c-1.718 0-3.117-.562-4.195-1.687-1.078-1.133-1.617-2.645-1.617-4.535v-.399c0-1.258.238-2.379.715-3.363.484-.992 1.156-1.766 2.015-2.32a5.07 5.07 0 0 1 2.813-.844c1.648 0 2.93.543 3.844 1.629.914 1.086 1.371 2.64 1.371 4.664v.902h-8.59c.031 1.25.394 2.262 1.09 3.035.703.766 1.593 1.149 2.672 1.149.765 0 1.414-.156 1.945-.469a4.87 4.87 0 0 0 1.394-1.242l1.325 1.031c-1.063 1.633-2.657 2.449-4.782 2.449zm-.269-11.367c-.875 0-1.609.321-2.203.961-.594.633-.961 1.524-1.102 2.672h6.352v-.164c-.063-1.102-.36-1.953-.891-2.555-.531-.609-1.25-.914-2.156-.914z" fill="#A7A7A7"/></svg>