<svg xmlns="http://www.w3.org/2000/svg" version="1.1" id="Layer_1" x="0" y="0" viewBox="0 0 800 400" xml:space="preserve"><style type="text/css" id="style2">.st1{fill:#b7b7b7}.st2{fill:#434343}.st3{fill:#444}.st4{fill:#999}</style><g id="g10"><path class="st1" id="rect8" d="M527.5 328.6h98v3h-98z"/></g><g id="g18"><path class="st2" d="M451.9 324.2c2.7 0 5.3.7 7.5 1.8l-5.7-9.1c-2.5-3.6-6.9-7.3-10.9-7.3h-75c-4 0-8.4 3.1-10.9 7.3l-5.7 9.1c2.2-1.2 4.8-1.8 7.5-1.8h93.2z" id="path12"/><path class="st2" d="M465.6 338.1c-1.2-6.5-6.9-11.5-13.7-11.5h-93.1c-6.8 0-12.5 5-13.7 11.5-.1.8-.2 1.6-.2 2.5 0 7.7 6.3 13.9 13.9 13.9h93.1c7.7 0 13.9-6.3 13.9-13.9 0-.9-.1-1.7-.2-2.5zm-100.1 3c0 2-1.6 3.7-3.7 3.7h-4.3c-2 0-3.7-1.6-3.7-3.7 0-2 1.6-3.7 3.7-3.7h4.3c2 .1 3.7 1.7 3.7 3.7zm17 0c0 2-1.6 3.7-3.7 3.7h-4.3c-2 0-3.7-1.6-3.7-3.7 0-2 1.6-3.7 3.7-3.7h4.3c2 .1 3.7 1.7 3.7 3.7zm36.3 2.5c-1.4 0-2.5-1.1-2.5-2.5s1.1-2.5 2.5-2.5 2.5 1.1 2.5 2.5-1.2 2.5-2.5 2.5zm8.4 0c-1.4 0-2.5-1.1-2.5-2.5s1.1-2.5 2.5-2.5 2.5 1.1 2.5 2.5-1.1 2.5-2.5 2.5zm8.5 0c-1.4 0-2.5-1.1-2.5-2.5s1.1-2.5 2.5-2.5 2.5 1.1 2.5 2.5-1.1 2.5-2.5 2.5zm8.5 0c-1.4 0-2.5-1.1-2.5-2.5s1.1-2.5 2.5-2.5 2.5 1.1 2.5 2.5-1.2 2.5-2.5 2.5zm8.4 0c-1.4 0-2.5-1.1-2.5-2.5s1.1-2.5 2.5-2.5 2.5 1.1 2.5 2.5-1.1 2.5-2.5 2.5z" id="path14"/><path class="st2" d="M441.5 307.2l-1.2-48.7v-.1c-.1-1.5-1.3-2.7-2.8-2.7-1.5 0-2.7 1.2-2.8 2.7v.1l-1.2 48.7h8z" id="path16"/></g><g id="g24"><path class="st3" d="M697.5 285.7h-68c-4.7 0-8.5 3.8-8.5 8.5V334c0 4.7 3.8 8.5 8.5 8.5h23.2v5.9h-12c-1.9 0-3.5 1.6-3.5 3.5s1.6 3.5 3.5 3.5h42c1.9 0 3.5-1.6 3.5-3.5s-1.6-3.5-3.5-3.5h-12v-5.9h26.8c4.7 0 8.5-3.8 8.5-8.5v-39.8c0-4.7-3.8-8.5-8.5-8.5zM701 334c0 1.9-1.6 3.5-3.5 3.5h-68c-1.9 0-3.5-1.6-3.5-3.5v-39.8c0-1.9 1.6-3.5 3.5-3.5h68c1.9 0 3.5 1.6 3.5 3.5V334z" id="path20"/><path class="st3" d="M740 285.7h-22.7c-3.8 0-7 3.2-7 7v54.2c0 3.8 3.2 7 7 7H740c3.8 0 7-3.2 7-7v-54.2c0-3.9-3.2-7-7-7zm-11.8 56.9c-2.7 0-4.9-2.2-4.9-4.9s2.2-4.9 4.9-4.9 4.9 2.2 4.9 4.9-2.2 4.9-4.9 4.9zm14-33.6c0 1.7-1.4 3-3 3h-21.1c-1.7 0-3-1.3-3-3v-1.5c0-1.7 1.3-3 3-3h21.1c1.6 0 3 1.3 3 3v1.5zm0-12c0 1.7-1.4 3-3 3h-21.1c-1.7 0-3-1.3-3-3v-1.5c0-1.7 1.3-3 3-3h21.1c1.6 0 3 1.3 3 3v1.5z" id="path22"/></g><path class="st3" d="M722.8 97.2l-.3-.6c-1.6-3.3-2.9-6.2-6.2-7.1 1.6-1.6 2.7-3.9 2.7-6.4V47.3c0-4.7-3.8-8.5-8.5-8.5h-68c-4.7 0-8.5 3.8-8.5 8.5v35.8c0 2.6 1.1 4.8 3 6.3-3.8 1-5.4 4.6-6.8 7.8l-4.3 9.3v.5c0 2.9 0 8.9 7.5 8.9h88.1c3.9 0 5.8-3 5.8-8.9v-.6l-4.5-9.2zm-28.7-.4v1c0 1.1-.9 2-2 2h-1.9c-1.1 0-2-.9-2-2v-1c0-1.1.9-2 2-2h1.9c1.1 0 2 .9 2 2zm-7.9-.1v1c0 1.1-.9 2-2 2h-1.9c-1.1 0-2-.9-2-2v-1c0-1.1.9-2 2-2h1.9c1.1 0 2 .9 2 2zm-8 0v1c0 1.1-.9 2-2 2h-1.9c-1.1 0-2-.9-2-2v-1c0-1.1.9-2 2-2h1.9c1.1 0 2 .9 2 2zm-8 0v1c0 1.1-.9 2-2 2h-1.9c-1.1 0-2-.9-2-2v-1c0-1.1.9-2 2-2h1.9c1.1 0 2 .9 2 2zm-8 0v1c0 1.1-.9 2-2 2h-1.9c-1.1 0-2-.9-2-2v-1c0-1.1.9-2 2-2h1.9c1.1 0 2 .9 2 2zM639 47.3c0-1.9 1.6-3.5 3.5-3.5h68c1.9 0 3.5 1.6 3.5 3.5v35.8c0 2-1.6 3.5-2.5 3.5h-68c-2.7 0-4.5-1.4-4.5-3.5V47.3zm3.1 58.5c0 1.1-.9 2-2 2h-1.9c-1.1 0-2-.9-2-2v-1c0-1.1.9-2 2-2h1.9c1.1 0 2 .9 2 2v1zm.2-6.1c-1.1 0-2-.9-2-2v-1c0-1.1.9-2 2-2h1.9c1.1 0 2 .9 2 2v1c0 1.1-.9 2-2 2h-1.9zm7.8 6.1c0 1.1-.9 2-2 2h-1.9c-1.1 0-2-.9-2-2v-1c0-1.1.9-2 2-2h1.9c1.1 0 2 .9 2 2v1zm.2-6.1c-1.1 0-2-.9-2-2v-1c0-1.1.9-2 2-2h1.9c1.1 0 2 .9 2 2v1c0 1.1-.9 2-2 2h-1.9zm47.8 6.1c0 1.1-.9 2-2 2h-41.9c-1.1 0-2-.9-2-2v-1c0-1.1.9-2 2-2h41.9c1.1 0 2 .9 2 2v1zm.1-6c-1.1 0-2-.9-2-2v-1c0-1.1.9-2 2-2h1.9c1.1 0 2 .9 2 2v1c0 1.1-.9 2-2 2h-1.9zm7.9 6c0 1.1-.9 2-2 2h-1.9c-1.1 0-2-.9-2-2v-1c0-1.1.9-2 2-2h1.9c1.1 0 2 .9 2 2v1zm.1-6c-1.1 0-2-.9-2-2v-1c0-1.1.9-2 2-2h1.9c1.1 0 2 .9 2 2v1c0 1.1-.9 2-2 2h-1.9zm7.9 6c0 1.1-.9 2-2 2h-1.9c-1.1 0-2-.9-2-2v-1c0-1.1.9-2 2-2h1.9c1.1 0 2 .9 2 2v1z" id="path26"/><g id="g34"><path class="st3" d="M475.2 336h8.3v2.3h-11.1V319h2.8v17z" id="path28"/><path class="st3" d="M502.2 338.3H500c-.2 0-.4-.1-.6-.2-.2-.1-.3-.3-.4-.5l-1.7-4.5h-8.6l-1.7 4.5c-.1.2-.2.3-.3.5-.2.1-.4.2-.6.2h-2.2l7.7-19.4h2.8l7.8 19.4zm-12.7-7.2h7.1l-2.9-7.6c-.1-.2-.2-.5-.3-.8-.1-.3-.2-.7-.3-1-.1.4-.2.7-.3 1.1l-.3.9-3 7.4z" id="path30"/><path class="st3" d="M506.7 319c.1.1.3.2.4.4l11 14.3V319h2.4v19.4h-1.4c-.2 0-.4 0-.5-.1-.1-.1-.3-.2-.4-.4l-11-14.3v14.8h-2.4V319h1.9z" id="path32"/></g><g id="g42"><path class="st1" d="M436 236.2c-.8 0-1.5.7-1.5 1.5s.7 1.5 1.5 1.5c9.6 0 17.5 7.8 17.5 17.5 0 .8.7 1.5 1.5 1.5s1.5-.7 1.5-1.5c-.1-11.3-9.3-20.5-20.5-20.5z" id="path36"/><path class="st1" d="M436 219.1c-.8 0-1.5.7-1.5 1.5s.7 1.5 1.5 1.5c19.1 0 34.6 15.5 34.6 34.6 0 .8.7 1.5 1.5 1.5s1.5-.7 1.5-1.5c-.1-20.8-16.9-37.6-37.6-37.6z" id="path38"/><path class="st1" d="M436 202c-.8 0-1.5.7-1.5 1.5s.7 1.5 1.5 1.5c28.5 0 51.6 23.2 51.6 51.6 0 .8.7 1.5 1.5 1.5s1.5-.7 1.5-1.5c0-30.1-24.5-54.6-54.6-54.6z" id="path40"/></g><g id="g50"><path class="st1" d="M362.5 270.9c.6.6 1.5.6 2.1 0s.6-1.5 0-2.1c-6.8-6.8-6.8-17.9 0-24.7.6-.6.6-1.5 0-2.1-.6-.6-1.5-.6-2.1 0-8 7.9-8 20.9 0 28.9z" id="path44"/><path class="st1" d="M350.4 283c.6.6 1.5.6 2.1 0 .6-.6.6-1.5 0-2.1-13.5-13.5-13.5-35.4 0-48.9.6-.6.6-1.5 0-2.1s-1.5-.6-2.1 0c-14.6 14.6-14.6 38.4 0 53.1z" id="path46"/><path class="st1" d="M338.3 295.1c.6.6 1.5.6 2.1 0 .6-.6.6-1.5 0-2.1-20.1-20.1-20.1-52.9 0-73 .6-.6.6-1.5 0-2.1s-1.5-.6-2.1 0c-21.3 21.2-21.3 55.9 0 77.2z" id="path48"/></g><g id="g58"><path class="st1" d="M166.2 269c-.6-.6-1.5-.6-2.1 0s-.6 1.5 0 2.1c6.8 6.8 6.8 17.9 0 24.7-.6.6-.6 1.5 0 2.1s1.5.6 2.1 0c8-8 8-21 0-28.9z" id="path52"/><path class="st1" d="M178.3 256.9c-.6-.6-1.5-.6-2.1 0-.6.6-.6 1.5 0 2.1 13.5 13.5 13.5 35.4 0 48.9-.6.6-.6 1.5 0 2.1s1.5.6 2.1 0c14.6-14.7 14.6-38.5 0-53.1z" id="path54"/><path class="st1" d="M190.4 244.8c-.6-.6-1.5-.6-2.1 0-.6.6-.6 1.5 0 2.1 20.1 20.1 20.1 52.9 0 73-.6.6-.6 1.5 0 2.1s1.5.6 2.1 0c21.3-21.2 21.3-55.9 0-77.2z" id="path56"/></g><g id="g66"><path class="st1" d="M630.1 131c.8 0 1.5-.7 1.5-1.5s-.7-1.5-1.5-1.5c-9.6 0-17.5-7.8-17.5-17.5 0-.8-.7-1.5-1.5-1.5s-1.5.7-1.5 1.5c0 11.3 9.2 20.5 20.5 20.5z" id="path60"/><path class="st1" d="M630.1 145.1c-19.1 0-34.6-15.5-34.6-34.6 0-.8-.7-1.5-1.5-1.5s-1.5.7-1.5 1.5c0 20.7 16.9 37.6 37.6 37.6.8 0 1.5-.7 1.5-1.5s-.7-1.5-1.5-1.5z" id="path62"/><path class="st1" d="M630.1 162.2c-28.5 0-51.6-23.2-51.6-51.6 0-.8-.7-1.5-1.5-1.5s-1.5.7-1.5 1.5c0 30.1 24.5 54.6 54.6 54.6.8 0 1.5-.7 1.5-1.5s-.7-1.5-1.5-1.5z" id="path64"/></g><g id="g86"><path class="st3" id="rect68" d="M59.8 318.2h3.7V338h-3.7z"/><path class="st3" d="M78.3 325.2c-.4-.5-.9-.8-1.5-1.1-.6-.3-1.3-.4-2-.4-.5 0-.9 0-1.3.1s-.8.2-1.1.4c-.4.2-.7.4-1 .6-.3.2-.6.5-.9.8l-.2-1.1c-.1-.4-.4-.6-.9-.6h-2.1V338h3.4v-10.2c.5-.5.9-.8 1.5-1.1.5-.3 1.1-.4 1.6-.4.8 0 1.4.2 1.8.7.4.5.6 1.1.6 2v8.9h3.4V329c0-.8-.1-1.5-.3-2.2-.3-.5-.6-1.1-1-1.6z" id="path70"/><path class="st3" d="M89.7 335.1c-.1-.1-.1-.1-.2-.1s-.2 0-.2.1c-.1 0-.2.1-.3.2-.1.1-.2.1-.4.2-.1.1-.3.1-.5.1-.4 0-.7-.1-.9-.4-.2-.2-.3-.6-.3-1v-7.6h3.8v-2.4h-3.8v-4.4H85c-.2 0-.4.1-.5.2s-.2.2-.3.4l-.7 3.8-2.3.4v1.3c0 .2.1.4.2.5.1.1.3.2.5.2h1.4v7.9c0 1.2.3 2.2 1 2.9.7.7 1.6 1 2.8 1 .7 0 1.3-.1 2-.3.6-.2 1.2-.5 1.7-.9l-1-1.6c0-.3-.1-.4-.1-.5z" id="path72"/><path class="st3" d="M104.6 331.2c.1-.2.2-.5.2-1 0-1-.2-1.9-.5-2.7-.3-.8-.7-1.5-1.3-2-.5-.5-1.2-1-1.9-1.2-.7-.3-1.6-.4-2.5-.4-1.1 0-2 .2-2.8.5-.8.4-1.5.9-2.1 1.5s-1 1.4-1.3 2.2-.5 1.7-.5 2.7c0 1.2.2 2.3.5 3.3.4.9.8 1.7 1.5 2.4.6.6 1.4 1.1 2.2 1.4.8.3 1.7.5 2.7.5.5 0 1 0 1.5-.1s1-.2 1.5-.4 1-.4 1.5-.7.9-.7 1.3-1.1l-1-1.2c-.1-.2-.3-.3-.6-.3-.2 0-.4.1-.7.2-.2.1-.5.3-.8.4-.3.2-.6.3-1 .4s-.9.2-1.4.2c-.5 0-1-.1-1.5-.3s-.8-.4-1.2-.8c-.3-.3-.6-.8-.8-1.3-.2-.5-.3-1.1-.4-1.9h8.7c.4-.1.6-.2.7-.3zm-9.2-1.8c.2-1 .5-1.8 1.1-2.4.6-.6 1.3-.8 2.3-.8.5 0 .9.1 1.3.3.4.2.7.4.9.7s.4.6.6 1c.1.4.2.8.2 1.2h-6.4z" id="path74"/><path class="st3" d="M112.1 324.4c-.6.5-1.1 1.1-1.6 2l-.2-1.6c0-.3-.1-.5-.3-.7-.1-.1-.4-.2-.7-.2h-2V338h3.4v-8.7c.2-.4.3-.7.5-1 .2-.3.4-.5.6-.7s.5-.4.8-.5c.3-.1.6-.2 1-.2.3 0 .5 0 .8.1.3 0 .5.1.6.1.1 0 .3 0 .3-.1.1-.1.2-.2.2-.3l.2-2.5c-.4-.3-.9-.4-1.6-.4-.7-.1-1.4.2-2 .6z" id="path76"/><path class="st3" d="M128.6 325.2c-.4-.5-.9-.8-1.5-1.1-.6-.3-1.3-.4-2-.4-.5 0-.9 0-1.3.1s-.8.2-1.1.4c-.4.2-.7.4-1 .6-.3.2-.6.5-.9.8l-.2-1.1c-.1-.4-.4-.6-.9-.6h-2.1V338h3.4v-10.2c.5-.5.9-.8 1.5-1.1.5-.3 1.1-.4 1.6-.4.8 0 1.4.2 1.8.7.4.5.6 1.1.6 2v8.9h3.4V329c0-.8-.1-1.5-.3-2.2-.3-.5-.6-1.1-1-1.6z" id="path78"/><path class="st3" d="M144.9 331.2c.1-.2.2-.5.2-1 0-1-.2-1.9-.5-2.7-.3-.8-.7-1.5-1.3-2-.5-.5-1.2-1-1.9-1.2-.7-.3-1.6-.4-2.5-.4-1.1 0-2 .2-2.8.5-.8.4-1.5.9-2.1 1.5s-1 1.4-1.3 2.2-.5 1.7-.5 2.7c0 1.2.2 2.3.5 3.3.4.9.8 1.7 1.5 2.4.6.6 1.4 1.1 2.2 1.4.8.3 1.7.5 2.7.5.5 0 1 0 1.5-.1s1-.2 1.5-.4 1-.4 1.5-.7.9-.7 1.3-1.1l-1-1.2c-.1-.2-.3-.3-.6-.3-.2 0-.4.1-.7.2-.2.1-.5.3-.8.4-.3.2-.6.3-1 .4s-.9.2-1.4.2c-.5 0-1-.1-1.5-.3s-.8-.4-1.2-.8c-.3-.3-.6-.8-.8-1.3-.2-.5-.3-1.1-.4-1.9h8.7c.4-.1.6-.2.7-.3zm-9.2-1.8c.2-1 .5-1.8 1.1-2.4.6-.6 1.3-.8 2.3-.8.5 0 .9.1 1.3.3.4.2.7.4.9.7s.4.6.6 1c.1.4.2.8.2 1.2h-6.4z" id="path80"/><path class="st3" d="M154.6 335.1c-.1-.1-.1-.1-.2-.1s-.2 0-.2.1c-.1 0-.2.1-.3.2-.1.1-.2.1-.4.2-.1.1-.3.1-.5.1-.4 0-.7-.1-.9-.4-.2-.2-.3-.6-.3-1v-7.6h3.8v-2.4h-3.8v-4.4H150c-.2 0-.4.1-.5.2s-.2.2-.3.4l-.7 3.8-2.3.4v1.3c0 .2.1.4.2.5.1.1.3.2.5.2h1.4v7.9c0 1.2.3 2.2 1 2.9.7.7 1.6 1 2.8 1 .7 0 1.3-.1 2-.3.6-.2 1.2-.5 1.7-.9l-1-1.6c0-.3-.1-.4-.2-.5z" id="path82"/><path class="st3" d="M160.7 305.4c-3.9-17.9-19.8-31.3-38.8-31.3-14.2 0-26.7 7.5-33.7 18.7-3.2-2-7-3.2-11.1-3.2-9.5 0-17.6 6.3-20.2 15-13.1.7-23.5 11.5-23.5 24.8 0 13.7 11.1 24.8 24.8 24.8h96.3c13.7 0 24.8-11.1 24.8-24.8 0-11.6-7.9-21.3-18.6-24zm-6.2 43.8H58.1c-10.9 0-19.8-8.9-19.8-19.8 0-10.6 8.3-19.3 18.8-19.8l3.5-.2 1-3.4c2.1-6.8 8.3-11.4 15.5-11.4 3 0 5.9.8 8.4 2.4l4.2 2.6 2.6-4.2c6.4-10.3 17.4-16.4 29.5-16.4 16.3 0 30.5 11.5 33.9 27.4l.6 3 3 .8c8.7 2.3 14.8 10.2 14.8 19.2.2 10.9-8.7 19.8-19.6 19.8z" id="path84"/></g><g id="g104"><path class="st4" d="M518.803 177.73c-.1.1-.2.3-.3.3-.1.1-.2.1-.4.1s-.4-.1-.6-.2c-.2-.1-.5-.3-.8-.5-.3-.2-.7-.4-1.1-.5-.4-.2-1-.2-1.6-.2-.6 0-1.1.1-1.5.2-.4.2-.8.4-1.1.6-.3.3-.5.6-.7.9-.2.4-.2.8-.2 1.2 0 .5.1 1 .4 1.3.3.3.6.6 1.1.9.4.3.9.5 1.5.7.6.2 1.1.4 1.7.6.6.2 1.2.4 1.7.7.6.3 1.1.6 1.5 1 .4.4.8.9 1.1 1.4.3.6.4 1.2.4 2.1 0 .9-.1 1.7-.4 2.4-.3.8-.7 1.4-1.3 2-.6.6-1.3 1-2.1 1.3-.8.3-1.8.5-2.8.5-.6 0-1.2-.1-1.8-.2-.6-.1-1.1-.3-1.7-.5-.6-.2-1-.5-1.5-.8-.5-.3-.9-.7-1.2-1.1l.8-1.3.3-.3c.1-.1.2-.1.4-.1s.4.1.7.3c.3.2.6.4.9.7.4.2.8.5 1.3.7.5.2 1.2.3 1.9.3.6 0 1.2-.1 1.6-.2.5-.2.9-.4 1.2-.7.3-.3.6-.7.8-1.1.2-.4.3-.9.3-1.4 0-.6-.1-1.1-.4-1.4-.3-.3-.6-.7-1.1-.9-.5-.2-.9-.5-1.5-.6-.6-.2-1.1-.4-1.7-.5-.6-.2-1.2-.4-1.7-.7-.6-.2-1.1-.6-1.5-1-.4-.4-.8-.9-1.1-1.5-.3-.6-.4-1.3-.4-2.2 0-.7.1-1.4.4-2 .3-.7.7-1.2 1.2-1.7s1.2-.9 1.9-1.2c.8-.3 1.6-.5 2.6-.5 1.1 0 2.1.2 3 .5.9.3 1.7.8 2.4 1.5z" id="path88" fill="#999"/><path class="st4" d="M533.703 177.73c-.1.1-.2.3-.3.3-.1.1-.2.1-.4.1s-.4-.1-.6-.2c-.2-.1-.5-.3-.8-.5-.3-.2-.7-.4-1.1-.5-.4-.2-1-.2-1.6-.2-.6 0-1.1.1-1.5.2-.4.2-.8.4-1.1.6-.3.3-.5.6-.7.9-.2.4-.2.8-.2 1.2 0 .5.1 1 .4 1.3.3.3.6.6 1.1.9.4.3.9.5 1.5.7.6.2 1.1.4 1.7.6.6.2 1.2.4 1.7.7.6.3 1.1.6 1.5 1 .4.4.8.9 1.1 1.4.3.6.4 1.2.4 2.1 0 .9-.1 1.7-.4 2.4-.3.8-.7 1.4-1.3 2-.6.6-1.3 1-2.1 1.3-.8.3-1.8.5-2.8.5-.6 0-1.2-.1-1.8-.2-.6-.1-1.1-.3-1.7-.5-.6-.2-1-.5-1.5-.8-.5-.3-.9-.7-1.2-1.1l.8-1.3.3-.3c.1-.1.2-.1.4-.1s.4.1.7.3c.3.2.6.4.9.7.4.2.8.5 1.3.7.5.2 1.2.3 1.9.3.6 0 1.2-.1 1.6-.2.5-.2.9-.4 1.2-.7.3-.3.6-.7.8-1.1.2-.4.3-.9.3-1.4 0-.6-.1-1.1-.4-1.4-.3-.3-.6-.7-1.1-.9-.5-.2-.9-.5-1.5-.6-.6-.2-1.1-.4-1.7-.5-.6-.2-1.2-.4-1.7-.7-.6-.2-1.1-.6-1.5-1-.4-.4-.8-.9-1.1-1.5-.3-.6-.4-1.3-.4-2.2 0-.7.1-1.4.4-2 .3-.7.7-1.2 1.2-1.7s1.2-.9 1.9-1.2c.8-.3 1.6-.5 2.6-.5 1.1 0 2.1.2 3 .5.9.3 1.7.8 2.4 1.5z" id="path90" fill="#999"/><path class="st4" d="M541.303 194.23h-2.8v-19.7h2.8z" id="path92" fill="#999"/><path class="st4" d="M563.303 184.43c0 1.5-.2 2.8-.7 4-.5 1.2-1.1 2.2-2 3.1-.9.9-1.9 1.5-3.1 2-1.2.5-2.5.7-4 .7h-7.3v-19.7h7.4c1.5 0 2.8.2 4 .7 1.2.5 2.2 1.1 3.1 2 .9.9 1.5 1.9 2 3.1.4 1.3.6 2.6.6 4.1zm-2.9 0c0-1.2-.2-2.2-.5-3.2-.3-.9-.8-1.7-1.4-2.4-.6-.6-1.3-1.1-2.2-1.5-.8-.3-1.8-.5-2.8-.5h-4.5v15.1h4.5c1 0 2-.2 2.8-.5.8-.3 1.6-.8 2.2-1.5.6-.6 1.1-1.4 1.4-2.4.4-.9.5-1.9.5-3.1z" id="path94" fill="#999"/></g><path class="st2" id="rect106" d="M377.4 295.8h3v3h-3z"/><path class="st2" id="rect108" d="M383.4 295.8h3v3h-3z"/><path class="st2" d="M389.8 256.4h-15.9c-1.7 0-3 1.3-3 3v28.7c0 1.5 1.1 2.8 2.6 3v11.4c0 1.1.9 2 2 2h12.7c1.1 0 2-.9 2-2v-11.4c1.5-.2 2.7-1.4 2.7-3v-28.7c-.1-1.6-1.4-3-3.1-3zm-11.3 13.4c1 0 1.9.9 1.9 1.9 0 .9-.6 1.6-1.3 1.8 0 2.7.7 3 1.8 3.4.2.1.4.2.7.3v-11.3H380l2.2-3.8 2.2 3.8h-1.6v9.2c.1-.1.3-.1.4-.2.9-.5 2.1-1.1 2.1-3.7h-1.1V268h3.2v3.2h-1c0 3.3-1.5 4.1-2.7 4.7-.4.2-.8.4-.9.7v4.8c.8.2 1.4 1 1.4 1.8 0 1.1-.9 1.9-1.9 1.9-1.1 0-1.9-.9-1.9-1.9 0-.8.5-1.5 1.2-1.8v-3c-.4-.2-.7-.4-1.1-.5-1.5-.6-2.5-1-2.5-4.4-.8-.2-1.4-.9-1.4-1.8 0-1.1.9-1.9 1.9-1.9zm-3 32.7v-11.3h12.7v11.3h-12.7z" id="path110"/><g id="g124"><path class="st4" d="M224 254.7c.9 0 1.7.1 2.4.4.7.3 1.3.6 1.8 1s.9 1 1.2 1.6c.3.6.4 1.3.4 2 0 1.2-.3 2.2-.9 2.9s-1.4 1.2-2.4 1.5c2.4.7 3.7 2.3 3.7 4.6 0 .9-.2 1.8-.5 2.5-.4.7-.8 1.4-1.4 1.9s-1.3.9-2.1 1.2c-.8.3-1.7.4-2.6.4-1 0-1.9-.1-2.6-.4-.7-.2-1.4-.6-1.9-1s-1-1-1.3-1.6c-.4-.6-.7-1.3-.9-2.1l1.3-.5c.3-.1.7-.2 1-.1.3.1.5.2.7.5.1.3.3.6.5.9s.4.6.7.9c.3.3.6.5 1.1.7.4.2.9.3 1.6.3.6 0 1.2-.1 1.6-.3.5-.2.9-.5 1.2-.8.3-.3.5-.7.7-1.1s.2-.8.2-1.2c0-.5-.1-.9-.2-1.4s-.3-.8-.7-1.1c-.3-.3-.8-.5-1.4-.7-.6-.2-1.4-.3-2.4-.3v-2.1c.8 0 1.5-.1 2.1-.3.6-.2 1-.4 1.4-.7.3-.3.6-.6.7-1 .1-.4.2-.8.2-1.3s-.1-.9-.2-1.3c-.2-.4-.4-.7-.6-1-.3-.3-.6-.5-1-.6-.4-.1-.8-.2-1.3-.2-.4 0-.9.1-1.2.2-.4.1-.7.3-1 .5-.3.2-.5.5-.7.8-.2.3-.3.7-.4 1-.1.4-.3.6-.5.7-.2.1-.5.2-.9.1l-1.5-.3c.1-.9.4-1.7.8-2.4s.9-1.3 1.4-1.7c.6-.5 1.2-.8 2-1.1.3.1 1.1 0 1.9 0z" id="path112"/><path class="st4" d="M243.2 274.7c-1.6 0-3-.2-4.3-.7-1.3-.5-2.4-1.2-3.3-2.1s-1.6-1.9-2.1-3.2c-.5-1.2-.7-2.6-.7-4 0-1.5.2-2.8.7-4.1.5-1.2 1.1-2.3 2-3.2s1.9-1.6 3.2-2.1c1.2-.5 2.6-.7 4.2-.7.8 0 1.5.1 2.2.2.7.1 1.3.3 1.9.5.6.2 1.1.5 1.6.8s.9.7 1.3 1l-.9 1.5c-.1.2-.3.4-.6.4-.2.1-.5 0-.7-.2-.3-.2-.5-.3-.8-.5-.3-.2-.6-.3-1-.5s-.8-.3-1.3-.4c-.5-.1-1.1-.1-1.8-.1-1 0-2 .2-2.8.5-.8.3-1.5.8-2.1 1.5s-1 1.4-1.4 2.3c-.3.9-.5 1.9-.5 3 0 1.2.2 2.2.5 3.1.3.9.8 1.7 1.4 2.3s1.4 1.1 2.2 1.5c.9.3 1.9.5 2.9.5.8 0 1.5-.1 2.2-.3.6-.2 1.3-.4 1.9-.7v-3.9h-2.7c-.2 0-.4-.1-.5-.2-.1-.1-.2-.3-.2-.4v-1.8h6.3v7.8c-1.9 1.5-4.2 2.2-6.8 2.2z" id="path114"/><path class="st4" d="M255.1 274.7c-.1.4-.4.7-.7.8-.3.2-.6.3-.9.3h-1.2l8.1-20.4c.1-.3.3-.6.6-.8s.6-.3.9-.3h1.2l-8 20.4z" id="path116"/><path class="st4" d="M269.5 271.8h8.1v2.7h-11.3v-19.6h3.2v16.9z" id="path118"/><path class="st4" d="M291.3 254.9v2.7h-6.1v16.9H282v-16.9h-6.1v-2.7h15.4z" id="path120"/><path class="st4" d="M306.3 254.9v2.6h-9v5.9h7.2v2.5h-7.2v6.1h9v2.6h-12.2V255h12.2z" id="path122"/></g></svg>