<svg width="846" height="328" fill="none" xmlns="http://www.w3.org/2000/svg"><path d="M107 268.5c2.7 0 5.3.7 7.5 1.8l-5.7-9.1c-2.5-3.6-6.9-7.3-10.9-7.3h-75c-4 0-8.4 3.1-10.9 7.3l-5.7 9.1c2.2-1.2 4.8-1.8 7.5-1.8H107zm13.7 13.9c-1.2-6.5-6.9-11.5-13.7-11.5H13.9c-6.8 0-12.5 5-13.7 11.5-.1.8-.2 1.6-.2 2.5 0 7.7 6.3 13.9 13.9 13.9H107c7.7 0 13.9-6.3 13.9-13.9 0-.9-.1-1.7-.2-2.5zm-100.1 3c0 2-1.6 3.7-3.7 3.7h-4.3c-2 0-3.7-1.6-3.7-3.7 0-2 1.6-3.7 3.7-3.7h4.3c2 .1 3.7 1.7 3.7 3.7zm17 0c0 2-1.6 3.7-3.7 3.7h-4.3c-2 0-3.7-1.6-3.7-3.7 0-2 1.6-3.7 3.7-3.7h4.3c2 .1 3.7 1.7 3.7 3.7zm36.3 2.5c-1.4 0-2.5-1.1-2.5-2.5s1.1-2.5 2.5-2.5 2.5 1.1 2.5 2.5-1.2 2.5-2.5 2.5zm8.4 0c-1.4 0-2.5-1.1-2.5-2.5s1.1-2.5 2.5-2.5 2.5 1.1 2.5 2.5-1.1 2.5-2.5 2.5zm8.5 0c-1.4 0-2.5-1.1-2.5-2.5s1.1-2.5 2.5-2.5 2.5 1.1 2.5 2.5-1.1 2.5-2.5 2.5zm8.5 0c-1.4 0-2.5-1.1-2.5-2.5s1.1-2.5 2.5-2.5 2.5 1.1 2.5 2.5-1.2 2.5-2.5 2.5zm8.4 0c-1.4 0-2.5-1.1-2.5-2.5s1.1-2.5 2.5-2.5 2.5 1.1 2.5 2.5-1.1 2.5-2.5 2.5zm-75.5-36.4L31 202.8v-.1c-.1-1.5-1.3-2.7-2.8-2.7-1.5 0-2.7 1.2-2.8 2.7v.1l-1.2 48.7h8zm64.4 0l-1.2-48.7v-.1c-.1-1.5-1.3-2.7-2.8-2.7-1.5 0-2.7 1.2-2.8 2.7v.1l-1.2 48.7h8z" fill="#434343"/><path d="M796.5 229h-68c-4.7 0-8.5 3.8-8.5 8.5v39.8c0 4.7 3.8 8.5 8.5 8.5h23.2v5.9h-12c-1.9 0-3.5 1.6-3.5 3.5s1.6 3.5 3.5 3.5h42c1.9 0 3.5-1.6 3.5-3.5s-1.6-3.5-3.5-3.5h-12v-5.9h26.8c4.7 0 8.5-3.8 8.5-8.5v-39.8c0-4.7-3.8-8.5-8.5-8.5zm3.5 48.3c0 1.9-1.6 3.5-3.5 3.5h-68c-1.9 0-3.5-1.6-3.5-3.5v-39.8c0-1.9 1.6-3.5 3.5-3.5h68c1.9 0 3.5 1.6 3.5 3.5v39.8zm39-48.3h-22.7c-3.8 0-7 3.2-7 7v54.2c0 3.8 3.2 7 7 7H839c3.8 0 7-3.2 7-7V236c0-3.9-3.2-7-7-7zm-11.8 56.9c-2.7 0-4.9-2.2-4.9-4.9s2.2-4.9 4.9-4.9 4.9 2.2 4.9 4.9-2.2 4.9-4.9 4.9zm14-33.6c0 1.7-1.4 3-3 3h-21.1c-1.7 0-3-1.3-3-3v-1.5c0-1.7 1.3-3 3-3h21.1c1.6 0 3 1.3 3 3v1.5zm0-12c0 1.7-1.4 3-3 3h-21.1c-1.7 0-3-1.3-3-3v-1.5c0-1.7 1.3-3 3-3h21.1c1.6 0 3 1.3 3 3v1.5z" fill="#444"/><path d="M494 268.5c2.7 0 5.3.7 7.5 1.8l-5.7-9.1c-2.5-3.6-6.9-7.3-10.9-7.3h-75c-4 0-8.4 3.1-10.9 7.3l-5.7 9.1c2.2-1.2 4.8-1.8 7.5-1.8H494zm13.7 13.9c-1.2-6.5-6.9-11.5-13.7-11.5h-93.1c-6.8 0-12.5 5-13.7 11.5-.1.8-.2 1.6-.2 2.5 0 7.7 6.3 13.9 13.9 13.9H494c7.7 0 13.9-6.3 13.9-13.9 0-.9-.1-1.7-.2-2.5zm-100.1 3c0 2-1.6 3.7-3.7 3.7h-4.3c-2 0-3.7-1.6-3.7-3.7 0-2 1.6-3.7 3.7-3.7h4.3c2 .1 3.7 1.7 3.7 3.7zm17 0c0 2-1.6 3.7-3.7 3.7h-4.3c-2 0-3.7-1.6-3.7-3.7 0-2 1.6-3.7 3.7-3.7h4.3c2 .1 3.7 1.7 3.7 3.7zm36.3 2.5c-1.4 0-2.5-1.1-2.5-2.5s1.1-2.5 2.5-2.5 2.5 1.1 2.5 2.5-1.2 2.5-2.5 2.5zm8.4 0c-1.4 0-2.5-1.1-2.5-2.5s1.1-2.5 2.5-2.5 2.5 1.1 2.5 2.5-1.1 2.5-2.5 2.5zm8.5 0c-1.4 0-2.5-1.1-2.5-2.5s1.1-2.5 2.5-2.5 2.5 1.1 2.5 2.5-1.1 2.5-2.5 2.5zm8.5 0c-1.4 0-2.5-1.1-2.5-2.5s1.1-2.5 2.5-2.5 2.5 1.1 2.5 2.5-1.2 2.5-2.5 2.5zm8.4 0c-1.4 0-2.5-1.1-2.5-2.5s1.1-2.5 2.5-2.5 2.5 1.1 2.5 2.5-1.1 2.5-2.5 2.5zm-75.5-36.4l-1.2-48.7v-.1c-.1-1.5-1.3-2.7-2.8-2.7-1.5 0-2.7 1.2-2.8 2.7v.1l-1.2 48.7h8zm64.4 0l-1.2-48.7v-.1c-.1-1.5-1.3-2.7-2.8-2.7-1.5 0-2.7 1.2-2.8 2.7v.1l-1.2 48.7h8z" fill="#434343"/><path d="M816.9 58.4l-.3-.6c-1.6-3.3-2.9-6.2-6.2-7.1 1.6-1.6 2.7-3.9 2.7-6.4V8.5c0-4.7-3.8-8.5-8.5-8.5h-68c-4.7 0-8.5 3.8-8.5 8.5v35.8c0 2.6 1.1 4.8 3 6.3-3.8 1-5.4 4.6-6.8 7.8l-4.3 9.3v.5c0 2.9 0 8.9 7.5 8.9h88.1c3.9 0 5.8-3 5.8-8.9v-.6l-4.5-9.2zm-28.7-.4v1c0 1.1-.9 2-2 2h-1.9c-1.1 0-2-.9-2-2v-1c0-1.1.9-2 2-2h1.9c1.1 0 2 .9 2 2zm-7.9-.1v1c0 1.1-.9 2-2 2h-1.9c-1.1 0-2-.9-2-2v-1c0-1.1.9-2 2-2h1.9c1.1 0 2 .9 2 2zm-8 0v1c0 1.1-.9 2-2 2h-1.9c-1.1 0-2-.9-2-2v-1c0-1.1.9-2 2-2h1.9c1.1 0 2 .9 2 2zm-8 0v1c0 1.1-.9 2-2 2h-1.9c-1.1 0-2-.9-2-2v-1c0-1.1.9-2 2-2h1.9c1.1 0 2 .9 2 2zm-8 0v1c0 1.1-.9 2-2 2h-1.9c-1.1 0-2-.9-2-2v-1c0-1.1.9-2 2-2h1.9c1.1 0 2 .9 2 2zM733.1 8.5c0-1.9 1.6-3.5 3.5-3.5h68c1.9 0 3.5 1.6 3.5 3.5v35.8c0 2-1.6 3.5-2.5 3.5h-68c-2.7 0-4.5-1.4-4.5-3.5V8.5zm3.1 58.5c0 1.1-.9 2-2 2h-1.9c-1.1 0-2-.9-2-2v-1c0-1.1.9-2 2-2h1.9c1.1 0 2 .9 2 2v1zm.2-6.1c-1.1 0-2-.9-2-2v-1c0-1.1.9-2 2-2h1.9c1.1 0 2 .9 2 2v1c0 1.1-.9 2-2 2h-1.9zm7.8 6.1c0 1.1-.9 2-2 2h-1.9c-1.1 0-2-.9-2-2v-1c0-1.1.9-2 2-2h1.9c1.1 0 2 .9 2 2v1zm.2-6.1c-1.1 0-2-.9-2-2v-1c0-1.1.9-2 2-2h1.9c1.1 0 2 .9 2 2v1c0 1.1-.9 2-2 2h-1.9zm47.8 6.1c0 1.1-.9 2-2 2h-41.9c-1.1 0-2-.9-2-2v-1c0-1.1.9-2 2-2h41.9c1.1 0 2 .9 2 2v1zm.1-6c-1.1 0-2-.9-2-2v-1c0-1.1.9-2 2-2h1.9c1.1 0 2 .9 2 2v1c0 1.1-.9 2-2 2h-1.9zm7.9 6c0 1.1-.9 2-2 2h-1.9c-1.1 0-2-.9-2-2v-1c0-1.1.9-2 2-2h1.9c1.1 0 2 .9 2 2v1zm.1-6c-1.1 0-2-.9-2-2v-1c0-1.1.9-2 2-2h1.9c1.1 0 2 .9 2 2v1c0 1.1-.9 2-2 2h-1.9zm7.9 6c0 1.1-.9 2-2 2h-1.9c-1.1 0-2-.9-2-2v-1c0-1.1.9-2 2-2h1.9c1.1 0 2 .9 2 2v1z" fill="#444"/><path stroke="#B7B7B7" stroke-width="3" d="M193 279.5h122m268 0h122"/><path d="M707.6 97c.8 0 1.5-.7 1.5-1.5s-.7-1.5-1.5-1.5c-9.6 0-17.5-7.8-17.5-17.5 0-.8-.7-1.5-1.5-1.5s-1.5.7-1.5 1.5c0 11.3 9.2 20.5 20.5 20.5zm0 14.1c-19.1 0-34.6-15.5-34.6-34.6 0-.8-.7-1.5-1.5-1.5s-1.5.7-1.5 1.5c0 20.7 16.9 37.6 37.6 37.6.8 0 1.5-.7 1.5-1.5s-.7-1.5-1.5-1.5z" fill="#B7B7B7"/><path d="M707.6 128.2c-28.5 0-51.6-23.2-51.6-51.6 0-.8-.7-1.5-1.5-1.5s-1.5.7-1.5 1.5c0 30.1 24.5 54.6 54.6 54.6.8 0 1.5-.7 1.5-1.5s-.7-1.5-1.5-1.5zm-226.1 50c-.8 0-1.5.7-1.5 1.5s.7 1.5 1.5 1.5c9.6 0 17.5 7.8 17.5 17.5 0 .8.7 1.5 1.5 1.5s1.5-.7 1.5-1.5c0-11.3-9.2-20.5-20.5-20.5zm0-14.1c19.1 0 34.6 15.5 34.6 34.6 0 .8.7 1.5 1.5 1.5s1.5-.7 1.5-1.5c0-20.7-16.9-37.6-37.6-37.6-.8 0-1.5.7-1.5 1.5s.7 1.5 1.5 1.5z" fill="#B7B7B7"/><path d="M481.5 147c28.5 0 51.6 23.2 51.6 51.6 0 .8.7 1.5 1.5 1.5s1.5-.7 1.5-1.5c0-30.1-24.5-54.6-54.6-54.6-.8 0-1.5.7-1.5 1.5s.7 1.5 1.5 1.5z" fill="#B7B7B7"/><path d="M134.596 287.007h8.759V289h-11.209v-18.484h2.45v16.491zm22.001-2.831h-7.744l-1.74 4.824H144.6l7.058-18.484h2.133L160.862 289h-2.501l-1.764-4.824zm-7.008-2.006h6.284l-3.148-8.646-3.136 8.646zm27.968 6.83h-2.451l-9.305-14.244V289h-2.45v-18.484h2.45l9.331 14.307v-14.307h2.425V289zm154.039-1.993h8.759V289h-11.209v-18.484h2.45v16.491zm22.001-2.831h-7.744l-1.74 4.824H341.6l7.058-18.484h2.133L357.862 289h-2.501l-1.764-4.824zm-7.008-2.006h6.284l-3.148-8.646-3.136 8.646zm27.968 6.83h-2.451l-9.305-14.244V289h-2.45v-18.484h2.45l9.331 14.307v-14.307h2.425V289zm150.039-1.993h8.759V289h-11.209v-18.484h2.45v16.491zm22.001-2.831h-7.744l-1.74 4.824H534.6l7.058-18.484h2.133L550.862 289h-2.501l-1.764-4.824zm-7.008-2.006h6.284l-3.148-8.646-3.136 8.646zm27.968 6.83h-2.451l-9.305-14.244V289h-2.45v-18.484h2.45l9.331 14.307v-14.307h2.425V289z" fill="#444"/><path d="M31.117 308.938l4.383 12.374 4.36-12.374h4.617V326h-3.528v-4.664l.352-8.051L36.695 326h-2.414l-4.593-12.703.351 8.039V326h-3.516v-17.062h4.594zM54.672 326c-.156-.305-.27-.684-.34-1.137-.82.914-1.887 1.371-3.2 1.371-1.241 0-2.273-.359-3.093-1.078-.812-.718-1.219-1.625-1.219-2.718 0-1.344.496-2.376 1.489-3.094 1-.719 2.441-1.082 4.324-1.09h1.558v-.727c0-.586-.152-1.054-.457-1.406-.297-.351-.77-.527-1.418-.527-.57 0-1.02.136-1.347.41-.32.273-.48.648-.48 1.125h-3.387c0-.734.226-1.414.68-2.039.452-.625 1.093-1.113 1.921-1.465.828-.359 1.758-.539 2.79-.539 1.562 0 2.8.394 3.714 1.184.922.781 1.383 1.882 1.383 3.304v5.496c.008 1.203.176 2.114.504 2.731V326h-3.422zm-2.8-2.355c.5 0 .96-.11 1.382-.329.422-.226.734-.527.937-.902v-2.18h-1.265c-1.696 0-2.598.586-2.707 1.758l-.012.199c0 .422.148.77.445 1.043.297.274.703.411 1.22.411zm15.187-1.149c0-.414-.207-.738-.621-.973-.407-.242-1.063-.457-1.97-.644-3.015-.633-4.523-1.914-4.523-3.844 0-1.125.465-2.062 1.395-2.812.937-.758 2.16-1.137 3.668-1.137 1.61 0 2.894.379 3.855 1.137.969.757 1.453 1.742 1.453 2.953H66.93c0-.485-.157-.883-.47-1.196-.312-.32-.8-.48-1.464-.48-.57 0-1.012.129-1.324.387a1.221 1.221 0 0 0-.469.984c0 .375.176.68.527.914.36.227.961.426 1.805.598.844.164 1.555.351 2.133.562 1.789.657 2.684 1.793 2.684 3.41 0 1.157-.496 2.094-1.489 2.813-.992.711-2.273 1.066-3.844 1.066-1.062 0-2.007-.187-2.835-.562-.82-.383-1.465-.902-1.934-1.559-.469-.664-.703-1.379-.703-2.144h3.21c.032.601.255 1.062.669 1.383.414.32.968.48 1.664.48.648 0 1.137-.121 1.465-.363.336-.25.504-.574.504-.973zm9.539-12.293v3.117h2.168v2.485h-2.168v6.328c0 .469.09.805.27 1.008.179.203.523.304 1.03.304.375 0 .708-.027.996-.082v2.567a6.975 6.975 0 0 1-2.05.304c-2.375 0-3.586-1.199-3.633-3.597v-6.832h-1.852v-2.485h1.852v-3.117h3.387zm9.89 16.031c-1.86 0-3.375-.57-4.547-1.711-1.164-1.14-1.746-2.66-1.746-4.558v-.328c0-1.274.246-2.41.739-3.41.492-1.008 1.187-1.782 2.085-2.321.907-.547 1.938-.82 3.094-.82 1.735 0 3.098.547 4.09 1.641 1 1.093 1.5 2.644 1.5 4.652v1.383H83.63c.11.828.437 1.492.984 1.992.555.5 1.254.75 2.098.75 1.305 0 2.324-.473 3.058-1.418l1.665 1.863c-.508.719-1.196 1.281-2.063 1.688-.867.398-1.828.597-2.883.597zm-.386-10.406c-.672 0-1.22.227-1.641.68-.414.453-.68 1.101-.797 1.945h4.711v-.269c-.016-.75-.219-1.329-.61-1.735-.39-.414-.945-.621-1.663-.621zm14.66.668a9.296 9.296 0 0 0-1.219-.094c-1.281 0-2.121.434-2.52 1.301V326h-3.386v-12.68h3.199l.094 1.512c.68-1.164 1.62-1.746 2.824-1.746.375 0 .726.051 1.055.152l-.047 3.258zm328.609 6.027c0-.664-.234-1.171-.703-1.523-.469-.359-1.313-.734-2.531-1.125-1.219-.398-2.184-.789-2.895-1.172-1.937-1.047-2.906-2.457-2.906-4.23 0-.922.258-1.743.773-2.461.524-.727 1.27-1.293 2.239-1.7.976-.406 2.07-.609 3.281-.609 1.219 0 2.305.223 3.258.668.953.438 1.691 1.059 2.215 1.863.531.805.796 1.719.796 2.743h-3.515c0-.782-.246-1.387-.738-1.817-.493-.437-1.184-.656-2.075-.656-.859 0-1.527.184-2.004.551a1.703 1.703 0 0 0-.714 1.429c0 .555.277 1.02.832 1.395.562.375 1.386.726 2.472 1.055 2 .601 3.457 1.347 4.371 2.238.914.89 1.371 2 1.371 3.328 0 1.477-.558 2.637-1.675 3.48-1.118.836-2.621 1.254-4.512 1.254-1.313 0-2.508-.238-3.586-.714-1.078-.485-1.902-1.145-2.473-1.981-.562-.836-.843-1.805-.843-2.906h3.527c0 1.883 1.125 2.824 3.375 2.824.836 0 1.488-.168 1.957-.504.469-.344.703-.82.703-1.43zm9.27 4.477h-3.399v-18h3.399v18zm10.148 0c-.156-.305-.269-.684-.34-1.137-.82.914-1.887 1.371-3.199 1.371-1.242 0-2.273-.359-3.094-1.078-.812-.718-1.218-1.625-1.218-2.718 0-1.344.496-2.376 1.488-3.094 1-.719 2.441-1.082 4.324-1.09h1.559v-.727c0-.586-.153-1.054-.457-1.406-.297-.351-.77-.527-1.418-.527-.571 0-1.02.136-1.348.41-.32.273-.481.648-.481 1.125h-3.386c0-.734.226-1.414.679-2.039.454-.625 1.094-1.113 1.922-1.465.828-.359 1.758-.539 2.789-.539 1.563 0 2.801.394 3.715 1.184.922.781 1.383 1.882 1.383 3.304v5.496c.008 1.203.176 2.114.504 2.731V327h-3.422zm-2.801-2.355c.5 0 .961-.11 1.383-.329.422-.226.734-.527.938-.902v-2.18h-1.266c-1.695 0-2.598.586-2.707 1.758l-.012.199c0 .422.149.77.446 1.043.296.274.703.411 1.218.411zm12.879-1.782l2.356-8.543h3.539L460.484 327h-3.234l-4.277-12.68h3.539l2.355 8.543zm13.067 4.371c-1.86 0-3.375-.57-4.547-1.711-1.164-1.14-1.746-2.66-1.746-4.558v-.328c0-1.274.246-2.41.738-3.41.492-1.008 1.187-1.782 2.086-2.321.906-.547 1.937-.82 3.094-.82 1.734 0 3.097.547 4.089 1.641 1 1.093 1.5 2.644 1.5 4.652v1.383h-8.074c.11.828.438 1.492.985 1.992.554.5 1.253.75 2.097.75 1.305 0 2.324-.473 3.059-1.418l1.664 1.863c-.508.719-1.195 1.281-2.063 1.688-.867.398-1.828.597-2.882.597zm-.387-10.406c-.672 0-1.219.227-1.641.68-.414.453-.679 1.101-.797 1.945h4.711v-.269c-.015-.75-.218-1.329-.609-1.735-.391-.414-.945-.621-1.664-.621z" fill="#898989"/></svg>