<svg version="1.1" id="Layer_1" xmlns="http://www.w3.org/2000/svg" x="0" y="0" viewBox="0 0 800 400" xml:space="preserve"><style>.st1{fill:#b7b7b7}</style><path class="st1" d="M527.5 328.6h98v3h-98z"/><path d="M451.9 324.2c2.7 0 5.3.7 7.5 1.8l-5.7-9.1c-2.5-3.6-6.9-7.3-10.9-7.3h-75c-4 0-8.4 3.1-10.9 7.3l-5.7 9.1c2.2-1.2 4.8-1.8 7.5-1.8h93.2zm13.7 13.9c-1.2-6.5-6.9-11.5-13.7-11.5h-93.1c-6.8 0-12.5 5-13.7 11.5-.1.8-.2 1.6-.2 2.5 0 7.7 6.3 13.9 13.9 13.9h93.1c7.7 0 13.9-6.3 13.9-13.9 0-.9-.1-1.7-.2-2.5zm-100.1 3c0 2-1.6 3.7-3.7 3.7h-4.3c-2 0-3.7-1.6-3.7-3.7 0-2 1.6-3.7 3.7-3.7h4.3c2 .1 3.7 1.7 3.7 3.7zm17 0c0 2-1.6 3.7-3.7 3.7h-4.3c-2 0-3.7-1.6-3.7-3.7 0-2 1.6-3.7 3.7-3.7h4.3c2 .1 3.7 1.7 3.7 3.7zm36.3 2.5c-1.4 0-2.5-1.1-2.5-2.5s1.1-2.5 2.5-2.5 2.5 1.1 2.5 2.5-1.2 2.5-2.5 2.5zm8.4 0c-1.4 0-2.5-1.1-2.5-2.5s1.1-2.5 2.5-2.5 2.5 1.1 2.5 2.5-1.1 2.5-2.5 2.5zm8.5 0c-1.4 0-2.5-1.1-2.5-2.5s1.1-2.5 2.5-2.5 2.5 1.1 2.5 2.5-1.1 2.5-2.5 2.5zm8.5 0c-1.4 0-2.5-1.1-2.5-2.5s1.1-2.5 2.5-2.5 2.5 1.1 2.5 2.5-1.2 2.5-2.5 2.5zm8.4 0c-1.4 0-2.5-1.1-2.5-2.5s1.1-2.5 2.5-2.5 2.5 1.1 2.5 2.5-1.1 2.5-2.5 2.5zm-75.5-36.4l-1.2-48.7v-.1c-.1-1.5-1.3-2.7-2.8-2.7-1.5 0-2.7 1.2-2.8 2.7v.1l-1.2 48.7h8zm64.4 0l-1.2-48.7v-.1c-.1-1.5-1.3-2.7-2.8-2.7-1.5 0-2.7 1.2-2.8 2.7v.1l-1.2 48.7h8zm-274.6 17c2.7 0 5.3.7 7.5 1.8l-5.7-9.1c-2.5-3.6-6.9-7.3-10.9-7.3h-75c-4 0-8.4 3.1-10.9 7.3l-5.7 9.1c2.2-1.2 4.8-1.8 7.5-1.8h93.2zm13.7 13.9c-1.2-6.5-6.9-11.5-13.7-11.5H73.8c-6.8 0-12.5 5-13.7 11.5-.1.8-.2 1.6-.2 2.5 0 7.7 6.3 13.9 13.9 13.9h93.1c7.7 0 13.9-6.3 13.9-13.9 0-.9-.1-1.7-.2-2.5zm-100.1 3c0 2-1.6 3.7-3.7 3.7h-4.3c-2 0-3.7-1.6-3.7-3.7 0-2 1.6-3.7 3.7-3.7h4.3c2 .1 3.7 1.7 3.7 3.7zm17 0c0 2-1.6 3.7-3.7 3.7h-4.3c-2 0-3.7-1.6-3.7-3.7 0-2 1.6-3.7 3.7-3.7h4.3c2 .1 3.7 1.7 3.7 3.7zm36.3 2.5c-1.4 0-2.5-1.1-2.5-2.5s1.1-2.5 2.5-2.5 2.5 1.1 2.5 2.5-1.2 2.5-2.5 2.5zm8.4 0c-1.4 0-2.5-1.1-2.5-2.5s1.1-2.5 2.5-2.5 2.5 1.1 2.5 2.5-1.1 2.5-2.5 2.5zm8.5 0c-1.4 0-2.5-1.1-2.5-2.5s1.1-2.5 2.5-2.5 2.5 1.1 2.5 2.5-1.1 2.5-2.5 2.5zm8.5 0c-1.4 0-2.5-1.1-2.5-2.5s1.1-2.5 2.5-2.5 2.5 1.1 2.5 2.5-1.2 2.5-2.5 2.5zm8.4 0c-1.4 0-2.5-1.1-2.5-2.5s1.1-2.5 2.5-2.5 2.5 1.1 2.5 2.5-1.1 2.5-2.5 2.5zm-11.1-36.4l-1.2-48.7v-.1c-.1-1.5-1.3-2.7-2.8-2.7-1.5 0-2.7 1.2-2.8 2.7v.1l-1.2 48.7h8z" fill="#434343"/><path d="M697.5 285.7h-68c-4.7 0-8.5 3.8-8.5 8.5V334c0 4.7 3.8 8.5 8.5 8.5h23.2v5.9h-12c-1.9 0-3.5 1.6-3.5 3.5s1.6 3.5 3.5 3.5h42c1.9 0 3.5-1.6 3.5-3.5s-1.6-3.5-3.5-3.5h-12v-5.9h26.8c4.7 0 8.5-3.8 8.5-8.5v-39.8c0-4.7-3.8-8.5-8.5-8.5zM701 334c0 1.9-1.6 3.5-3.5 3.5h-68c-1.9 0-3.5-1.6-3.5-3.5v-39.8c0-1.9 1.6-3.5 3.5-3.5h68c1.9 0 3.5 1.6 3.5 3.5V334zm39-48.3h-22.7c-3.8 0-7 3.2-7 7v54.2c0 3.8 3.2 7 7 7H740c3.8 0 7-3.2 7-7v-54.2c0-3.9-3.2-7-7-7zm-11.8 56.9c-2.7 0-4.9-2.2-4.9-4.9s2.2-4.9 4.9-4.9 4.9 2.2 4.9 4.9-2.2 4.9-4.9 4.9zm14-33.6c0 1.7-1.4 3-3 3h-21.1c-1.7 0-3-1.3-3-3v-1.5c0-1.7 1.3-3 3-3h21.1c1.6 0 3 1.3 3 3v1.5zm0-12c0 1.7-1.4 3-3 3h-21.1c-1.7 0-3-1.3-3-3v-1.5c0-1.7 1.3-3 3-3h21.1c1.6 0 3 1.3 3 3v1.5zM722.8 97.2l-.3-.6c-1.6-3.3-2.9-6.2-6.2-7.1 1.6-1.6 2.7-3.9 2.7-6.4V47.3c0-4.7-3.8-8.5-8.5-8.5h-68c-4.7 0-8.5 3.8-8.5 8.5v35.8c0 2.6 1.1 4.8 3 6.3-3.8 1-5.4 4.6-6.8 7.8l-4.3 9.3v.5c0 2.9 0 8.9 7.5 8.9h88.1c3.9 0 5.8-3 5.8-8.9v-.6l-4.5-9.2zm-28.7-.4v1c0 1.1-.9 2-2 2h-1.9c-1.1 0-2-.9-2-2v-1c0-1.1.9-2 2-2h1.9c1.1 0 2 .9 2 2zm-7.9-.1v1c0 1.1-.9 2-2 2h-1.9c-1.1 0-2-.9-2-2v-1c0-1.1.9-2 2-2h1.9c1.1 0 2 .9 2 2zm-8 0v1c0 1.1-.9 2-2 2h-1.9c-1.1 0-2-.9-2-2v-1c0-1.1.9-2 2-2h1.9c1.1 0 2 .9 2 2zm-8 0v1c0 1.1-.9 2-2 2h-1.9c-1.1 0-2-.9-2-2v-1c0-1.1.9-2 2-2h1.9c1.1 0 2 .9 2 2zm-8 0v1c0 1.1-.9 2-2 2h-1.9c-1.1 0-2-.9-2-2v-1c0-1.1.9-2 2-2h1.9c1.1 0 2 .9 2 2zM639 47.3c0-1.9 1.6-3.5 3.5-3.5h68c1.9 0 3.5 1.6 3.5 3.5v35.8c0 2-1.6 3.5-2.5 3.5h-68c-2.7 0-4.5-1.4-4.5-3.5V47.3zm3.1 58.5c0 1.1-.9 2-2 2h-1.9c-1.1 0-2-.9-2-2v-1c0-1.1.9-2 2-2h1.9c1.1 0 2 .9 2 2v1zm.2-6.1c-1.1 0-2-.9-2-2v-1c0-1.1.9-2 2-2h1.9c1.1 0 2 .9 2 2v1c0 1.1-.9 2-2 2h-1.9zm7.8 6.1c0 1.1-.9 2-2 2h-1.9c-1.1 0-2-.9-2-2v-1c0-1.1.9-2 2-2h1.9c1.1 0 2 .9 2 2v1zm.2-6.1c-1.1 0-2-.9-2-2v-1c0-1.1.9-2 2-2h1.9c1.1 0 2 .9 2 2v1c0 1.1-.9 2-2 2h-1.9zm47.8 6.1c0 1.1-.9 2-2 2h-41.9c-1.1 0-2-.9-2-2v-1c0-1.1.9-2 2-2h41.9c1.1 0 2 .9 2 2v1zm.1-6c-1.1 0-2-.9-2-2v-1c0-1.1.9-2 2-2h1.9c1.1 0 2 .9 2 2v1c0 1.1-.9 2-2 2h-1.9zm7.9 6c0 1.1-.9 2-2 2h-1.9c-1.1 0-2-.9-2-2v-1c0-1.1.9-2 2-2h1.9c1.1 0 2 .9 2 2v1zm.1-6c-1.1 0-2-.9-2-2v-1c0-1.1.9-2 2-2h1.9c1.1 0 2 .9 2 2v1c0 1.1-.9 2-2 2h-1.9zm7.9 6c0 1.1-.9 2-2 2h-1.9c-1.1 0-2-.9-2-2v-1c0-1.1.9-2 2-2h1.9c1.1 0 2 .9 2 2v1zM475.2 336h8.3v2.3h-11.1V319h2.8v17zm27 2.3H500c-.2 0-.4-.1-.6-.2-.2-.1-.3-.3-.4-.5l-1.7-4.5h-8.6l-1.7 4.5c-.1.2-.2.3-.3.5-.2.1-.4.2-.6.2h-2.2l7.7-19.4h2.8l7.8 19.4zm-12.7-7.2h7.1l-2.9-7.6c-.1-.2-.2-.5-.3-.8-.1-.3-.2-.7-.3-1-.1.4-.2.7-.3 1.1l-.3.9-3 7.4zm17.2-12.1c.1.1.3.2.4.4l11 14.3V319h2.4v19.4h-1.4c-.2 0-.4 0-.5-.1-.1-.1-.3-.2-.4-.4l-11-14.3v14.8h-2.4V319h1.9z" fill="#444"/><path class="st1" d="M436 236.2c-.8 0-1.5.7-1.5 1.5s.7 1.5 1.5 1.5c9.6 0 17.5 7.8 17.5 17.5 0 .8.7 1.5 1.5 1.5s1.5-.7 1.5-1.5c-.1-11.3-9.3-20.5-20.5-20.5zm0-17.1c-.8 0-1.5.7-1.5 1.5s.7 1.5 1.5 1.5c19.1 0 34.6 15.5 34.6 34.6 0 .8.7 1.5 1.5 1.5s1.5-.7 1.5-1.5c-.1-20.8-16.9-37.6-37.6-37.6z"/><path class="st1" d="M436 202c-.8 0-1.5.7-1.5 1.5s.7 1.5 1.5 1.5c28.5 0 51.6 23.2 51.6 51.6 0 .8.7 1.5 1.5 1.5s1.5-.7 1.5-1.5c0-30.1-24.5-54.6-54.6-54.6zm-79.5 68.9c.6.6 1.5.6 2.1 0s.6-1.5 0-2.1c-6.8-6.8-6.8-17.9 0-24.7.6-.6.6-1.5 0-2.1-.6-.6-1.5-.6-2.1 0-8 7.9-8 20.9 0 28.9zM344.4 283c.6.6 1.5.6 2.1 0 .6-.6.6-1.5 0-2.1-13.5-13.5-13.5-35.4 0-48.9.6-.6.6-1.5 0-2.1s-1.5-.6-2.1 0c-14.6 14.6-14.6 38.4 0 53.1z"/><path class="st1" d="M332.3 295.1c.6.6 1.5.6 2.1 0 .6-.6.6-1.5 0-2.1-20.1-20.1-20.1-52.9 0-73 .6-.6.6-1.5 0-2.1s-1.5-.6-2.1 0c-21.3 21.2-21.3 55.9 0 77.2zM168 241.9c-.6-.6-1.5-.6-2.1 0s-.6 1.5 0 2.1c6.8 6.8 6.8 17.9 0 24.7-.6.6-.6 1.5 0 2.1.6.6 1.5.6 2.1 0 8-7.9 8-20.9 0-28.9zm12.1-12c-.6-.6-1.5-.6-2.1 0-.6.6-.6 1.5 0 2.1 13.5 13.5 13.5 35.4 0 48.9-.6.6-.6 1.5 0 2.1s1.5.6 2.1 0c14.6-14.7 14.6-38.5 0-53.1z"/><path class="st1" d="M192.1 217.8c-.6-.6-1.5-.6-2.1 0-.6.6-.6 1.5 0 2.1 20.1 20.1 20.1 52.9 0 73-.6.6-.6 1.5 0 2.1s1.5.6 2.1 0c21.3-21.2 21.3-55.9 0-77.2zm438-86.8c.8 0 1.5-.7 1.5-1.5s-.7-1.5-1.5-1.5c-9.6 0-17.5-7.8-17.5-17.5 0-.8-.7-1.5-1.5-1.5s-1.5.7-1.5 1.5c0 11.3 9.2 20.5 20.5 20.5zm0 14.1c-19.1 0-34.6-15.5-34.6-34.6 0-.8-.7-1.5-1.5-1.5s-1.5.7-1.5 1.5c0 20.7 16.9 37.6 37.6 37.6.8 0 1.5-.7 1.5-1.5s-.7-1.5-1.5-1.5z"/><path class="st1" d="M630.1 162.2c-28.5 0-51.6-23.2-51.6-51.6 0-.8-.7-1.5-1.5-1.5s-1.5.7-1.5 1.5c0 30.1 24.5 54.6 54.6 54.6.8 0 1.5-.7 1.5-1.5s-.7-1.5-1.5-1.5z"/><path d="M246.6 247.5c-.1.1-.2.3-.3.3-.1.1-.2.1-.4.1s-.4-.1-.6-.2-.5-.3-.8-.5c-.3-.2-.7-.4-1.1-.5-.4-.2-1-.2-1.6-.2-.6 0-1.1.1-1.5.2-.4.2-.8.4-1.1.6s-.5.6-.7.9c-.2.4-.2.8-.2 1.2 0 .5.1 1 .4 1.3.3.3.6.6 1.1.9.4.3.9.5 1.5.7.6.2 1.1.4 1.7.6.6.2 1.2.4 1.7.7.6.3 1.1.6 1.5 1s.8.9 1.1 1.4c.3.6.4 1.2.4 2.1 0 .9-.1 1.7-.4 2.4-.3.8-.7 1.4-1.3 2-.6.6-1.3 1-2.1 1.3-.8.3-1.8.5-2.8.5-.6 0-1.2-.1-1.8-.2-.6-.1-1.1-.3-1.7-.5-.5-.2-1-.5-1.5-.8-.5-.3-.9-.7-1.2-1.1l.8-1.3.3-.3c.1-.1.2-.1.4-.1s.4.1.7.3.6.4.9.7c.4.2.8.5 1.3.7.5.2 1.2.3 1.9.3.6 0 1.2-.1 1.6-.2.5-.2.9-.4 1.2-.7s.6-.7.8-1.1c.2-.4.3-.9.3-1.4 0-.6-.1-1.1-.4-1.4-.3-.4-.6-.7-1.1-.9-.4-.2-.9-.5-1.5-.6-.6-.2-1.1-.4-1.7-.5-.6-.2-1.2-.4-1.7-.7-.6-.2-1.1-.6-1.5-1-.4-.4-.8-.9-1.1-1.5s-.4-1.3-.4-2.2c0-.7.1-1.4.4-2 .3-.7.7-1.2 1.2-1.7s1.2-.9 1.9-1.2c.8-.3 1.6-.5 2.6-.5 1.1 0 2.1.2 3 .5.9.3 1.7.8 2.4 1.5l-.6 1.1zm14.9 0c-.1.1-.2.3-.3.3-.1.1-.2.1-.4.1s-.4-.1-.6-.2-.5-.3-.8-.5c-.3-.2-.7-.4-1.1-.5-.4-.2-1-.2-1.6-.2-.6 0-1.1.1-1.5.2-.4.2-.8.4-1.1.6s-.5.6-.7.9c-.2.4-.2.8-.2 1.2 0 .5.1 1 .4 1.3.3.3.6.6 1.1.9.4.3.9.5 1.5.7.6.2 1.1.4 1.7.6.6.2 1.2.4 1.7.7.6.3 1.1.6 1.5 1s.8.9 1.1 1.4c.3.6.4 1.2.4 2.1 0 .9-.1 1.7-.4 2.4-.3.8-.7 1.4-1.3 2-.6.6-1.3 1-2.1 1.3-.8.3-1.8.5-2.8.5-.6 0-1.2-.1-1.8-.2-.6-.1-1.1-.3-1.7-.5-.5-.2-1-.5-1.5-.8-.5-.3-.9-.7-1.2-1.1l.8-1.3.3-.3c.1-.1.2-.1.4-.1s.4.1.7.3.6.4.9.7c.4.2.8.5 1.3.7.5.2 1.2.3 1.9.3.6 0 1.2-.1 1.6-.2.5-.2.9-.4 1.2-.7s.6-.7.8-1.1c.2-.4.3-.9.3-1.4 0-.6-.1-1.1-.4-1.4-.3-.4-.6-.7-1.1-.9-.4-.2-.9-.5-1.5-.6-.6-.2-1.1-.4-1.7-.5-.6-.2-1.2-.4-1.7-.7-.6-.2-1.1-.6-1.5-1-.4-.4-.8-.9-1.1-1.5s-.4-1.3-.4-2.2c0-.7.1-1.4.4-2 .3-.7.7-1.2 1.2-1.7s1.2-.9 1.9-1.2c.8-.3 1.6-.5 2.6-.5 1.1 0 2.1.2 3 .5.9.3 1.7.8 2.4 1.5l-.6 1.1zm7.6 16.5h-2.8v-19.7h2.8V264zm22-9.8c0 1.5-.2 2.8-.7 4-.5 1.2-1.1 2.2-2 3.1s-1.9 1.5-3.1 2c-1.2.5-2.5.7-4 .7H274v-19.7h7.4c1.5 0 2.8.2 4 .7 1.2.5 2.2 1.1 3.1 2 .9.9 1.5 1.9 2 3.1.4 1.3.6 2.6.6 4.1zm-2.9 0c0-1.2-.2-2.2-.5-3.2-.3-.9-.8-1.7-1.4-2.4s-1.3-1.1-2.2-1.5c-.8-.3-1.8-.5-2.8-.5h-4.5v15.1h4.5c1 0 2-.2 2.8-.5.8-.3 1.6-.8 2.2-1.5.6-.6 1.1-1.4 1.4-2.4.4-.9.5-2 .5-3.1zm202.2-77.7c-.1.1-.2.3-.3.3-.1.1-.2.1-.4.1s-.4-.1-.6-.2-.5-.3-.8-.5c-.3-.2-.7-.4-1.1-.5-.4-.2-1-.2-1.6-.2-.6 0-1.1.1-1.5.2-.4.2-.8.4-1.1.6-.3.3-.5.6-.7.9-.2.4-.2.8-.2 1.2 0 .5.1 1 .4 1.3s.6.6 1.1.9c.4.3.9.5 1.5.7.6.2 1.1.4 1.7.6.6.2 1.2.4 1.7.7.6.3 1.1.6 1.5 1s.8.9 1.1 1.4c.3.6.4 1.2.4 2.1 0 .9-.1 1.7-.4 2.4-.3.8-.7 1.4-1.3 2-.6.6-1.3 1-2.1 1.3s-1.8.5-2.8.5c-.6 0-1.2-.1-1.8-.2-.6-.1-1.1-.3-1.7-.5s-1-.5-1.5-.8c-.5-.3-.9-.7-1.2-1.1l.8-1.3.3-.3c.1-.1.2-.1.4-.1s.4.1.7.3c.3.2.6.4.9.7.4.2.8.5 1.3.7.5.2 1.2.3 1.9.3.6 0 1.2-.1 1.6-.2.5-.2.9-.4 1.2-.7.3-.3.6-.7.8-1.1.2-.4.3-.9.3-1.4 0-.6-.1-1.1-.4-1.4s-.6-.7-1.1-.9-.9-.5-1.5-.6c-.6-.2-1.1-.4-1.7-.5-.6-.2-1.2-.4-1.7-.7-.6-.2-1.1-.6-1.5-1-.4-.4-.8-.9-1.1-1.5-.3-.6-.4-1.3-.4-2.2 0-.7.1-1.4.4-2 .3-.7.7-1.2 1.2-1.7s1.2-.9 1.9-1.2c.8-.3 1.6-.5 2.6-.5 1.1 0 2.1.2 3 .5s1.7.8 2.4 1.5l-.6 1.1zm14.9 0c-.1.1-.2.3-.3.3-.1.1-.2.1-.4.1s-.4-.1-.6-.2-.5-.3-.8-.5c-.3-.2-.7-.4-1.1-.5-.4-.2-1-.2-1.6-.2-.6 0-1.1.1-1.5.2-.4.2-.8.4-1.1.6-.3.3-.5.6-.7.9-.2.4-.2.8-.2 1.2 0 .5.1 1 .4 1.3s.6.6 1.1.9c.4.3.9.5 1.5.7.6.2 1.1.4 1.7.6.6.2 1.2.4 1.7.7.6.3 1.1.6 1.5 1s.8.9 1.1 1.4c.3.6.4 1.2.4 2.1 0 .9-.1 1.7-.4 2.4-.3.8-.7 1.4-1.3 2-.6.6-1.3 1-2.1 1.3s-1.8.5-2.8.5c-.6 0-1.2-.1-1.8-.2-.6-.1-1.1-.3-1.7-.5s-1-.5-1.5-.8c-.5-.3-.9-.7-1.2-1.1l.8-1.3.3-.3c.1-.1.2-.1.4-.1s.4.1.7.3c.3.2.6.4.9.7.4.2.8.5 1.3.7.5.2 1.2.3 1.9.3.6 0 1.2-.1 1.6-.2.5-.2.9-.4 1.2-.7.3-.3.6-.7.8-1.1.2-.4.3-.9.3-1.4 0-.6-.1-1.1-.4-1.4s-.6-.7-1.1-.9-.9-.5-1.5-.6c-.6-.2-1.1-.4-1.7-.5-.6-.2-1.2-.4-1.7-.7-.6-.2-1.1-.6-1.5-1-.4-.4-.8-.9-1.1-1.5-.3-.6-.4-1.3-.4-2.2 0-.7.1-1.4.4-2 .3-.7.7-1.2 1.2-1.7s1.2-.9 1.9-1.2c.8-.3 1.6-.5 2.6-.5 1.1 0 2.1.2 3 .5s1.7.8 2.4 1.5l-.6 1.1zm7.6 16.5h-2.8v-19.7h2.8V193zm22-9.8c0 1.5-.2 2.8-.7 4-.5 1.2-1.1 2.2-2 3.1-.9.9-1.9 1.5-3.1 2-1.2.5-2.5.7-4 .7h-7.4v-19.7h7.4c1.5 0 2.8.2 4 .7 1.2.5 2.2 1.1 3.1 2 .9.9 1.5 1.9 2 3.1.5 1.3.7 2.6.7 4.1zm-2.9 0c0-1.2-.2-2.2-.5-3.2-.3-.9-.8-1.7-1.4-2.4-.6-.6-1.3-1.1-2.2-1.5-.8-.3-1.8-.5-2.8-.5h-4.5v15.1h4.5c1 0 2-.2 2.8-.5.8-.3 1.6-.8 2.2-1.5.6-.6 1.1-1.4 1.4-2.4.4-.9.5-1.9.5-3.1zm15.9 12v1.8h-10.8v-1.8h10.8zm15.5-21.9v2.3h-9.3v6.3h7.5v2.2h-7.5v6.5h9.3v2.3h-12.2v-19.7h12.2zm6.4 12.5l-4.7-6.8h2.5c.2 0 .4 0 .5.1l.3.3 3.3 5.1c0-.1.1-.3.2-.4.1-.1.1-.3.2-.4l2.9-4.3.3-.3c.1-.1.2-.1.4-.1h2.4l-4.7 6.6 4.9 7.3h-2.5c-.2 0-.4-.1-.5-.2-.1-.1-.2-.2-.3-.4l-3.4-5.3c0 .1-.1.3-.1.4 0 .1-.1.2-.2.3l-3.1 4.6c-.1.1-.2.2-.3.4-.1.1-.3.2-.4.2h-2.3l4.6-7.1zm14.8 7.4c-1.1 0-2-.3-2.6-.9s-.9-1.5-.9-2.7v-8.4h-1.6c-.2 0-.3 0-.4-.1-.1-.1-.2-.2-.2-.4v-1l2.3-.3.6-4.2c0-.1.1-.3.2-.3.1-.1.2-.1.4-.1h1.3v4.7h4v1.9h-4v8.2c0 .6.1 1 .4 1.3.3.3.6.4 1.1.4.2 0 .5 0 .6-.1.2-.1.3-.1.5-.2.1-.1.2-.2.3-.2.1-.1.2-.1.3-.1.1 0 .1 0 .2.1.1 0 .1.1.2.2l.8 1.2c-.4.4-1 .7-1.6.9-.6 0-1.2.1-1.9.1z" fill="#999"/></svg>