<svg width="975" height="482" fill="none" xmlns="http://www.w3.org/2000/svg"><path d="M523 267.5c2.7 0 5.3.7 7.5 1.8l-5.7-9.1c-2.5-3.6-6.9-7.3-10.9-7.3h-75c-4 0-8.4 3.1-10.9 7.3l-5.7 9.1c2.2-1.2 4.8-1.8 7.5-1.8H523zm13.7 13.9c-1.2-6.5-6.9-11.5-13.7-11.5h-93.1c-6.8 0-12.5 5-13.7 11.5-.1.8-.2 1.6-.2 2.5 0 7.7 6.3 13.9 13.9 13.9H523c7.7 0 13.9-6.3 13.9-13.9 0-.9-.1-1.7-.2-2.5zm-100.1 3c0 2-1.6 3.7-3.7 3.7h-4.3c-2 0-3.7-1.6-3.7-3.7 0-2 1.6-3.7 3.7-3.7h4.3c2 .1 3.7 1.7 3.7 3.7zm17 0c0 2-1.6 3.7-3.7 3.7h-4.3c-2 0-3.7-1.6-3.7-3.7 0-2 1.6-3.7 3.7-3.7h4.3c2 .1 3.7 1.7 3.7 3.7zm36.3 2.5c-1.4 0-2.5-1.1-2.5-2.5s1.1-2.5 2.5-2.5 2.5 1.1 2.5 2.5-1.2 2.5-2.5 2.5zm8.4 0c-1.4 0-2.5-1.1-2.5-2.5s1.1-2.5 2.5-2.5 2.5 1.1 2.5 2.5-1.1 2.5-2.5 2.5zm8.5 0c-1.4 0-2.5-1.1-2.5-2.5s1.1-2.5 2.5-2.5 2.5 1.1 2.5 2.5-1.1 2.5-2.5 2.5zm8.5 0c-1.4 0-2.5-1.1-2.5-2.5s1.1-2.5 2.5-2.5 2.5 1.1 2.5 2.5-1.2 2.5-2.5 2.5zm8.4 0c-1.4 0-2.5-1.1-2.5-2.5s1.1-2.5 2.5-2.5 2.5 1.1 2.5 2.5-1.1 2.5-2.5 2.5zm-11.1-36.4l-1.2-48.7v-.1c-.1-1.5-1.3-2.7-2.8-2.7-1.5 0-2.7 1.2-2.8 2.7v.1l-1.2 48.7h8z" fill="#434343"/><path d="M30.1 262.2h-3.7V282h3.7v-19.8zm14.7 7c-.4-.5-.9-.8-1.5-1.1-.6-.3-1.3-.4-2-.4-.5 0-.9 0-1.3.1s-.8.2-1.1.4c-.4.2-.7.4-1 .6-.3.2-.6.5-.9.8l-.2-1.1c-.1-.4-.4-.6-.9-.6h-2.1V282h3.4v-10.2c.5-.5.9-.8 1.5-1.1.5-.3 1.1-.4 1.6-.4.8 0 1.4.2 1.8.7.4.5.6 1.1.6 2v8.9h3.4V273c0-.8-.1-1.5-.3-2.2-.3-.6-.6-1.1-1-1.6zm11.4 9.9c-.1-.1-.1-.1-.2-.1s-.2 0-.2.1c-.1 0-.2.1-.3.2-.1.1-.2.1-.4.2-.1.1-.3.1-.5.1-.4 0-.7-.1-.9-.4-.2-.2-.3-.6-.3-1v-7.7h3.8v-2.4h-3.9v-4.4h-1.8c-.2 0-.4.1-.5.2-.1.1-.2.2-.3.4l-.7 3.8-2.3.4v1.3c0 .2.1.4.2.5.1.1.3.2.5.2h1.4v7.9c0 1.2.3 2.2 1 2.9.7.7 1.6 1 2.8 1 .7 0 1.3-.1 2-.3.6-.2 1.2-.5 1.7-.9l-1-1.6c.1-.3 0-.3-.1-.4zm15-4c.1-.2.2-.5.2-1 0-1-.2-1.9-.5-2.7-.3-.8-.7-1.5-1.3-2-.5-.5-1.2-1-1.9-1.2-.7-.3-1.6-.4-2.5-.4-1.1 0-2 .2-2.8.5-.8.4-1.5.9-2.1 1.5-.6.6-1 1.4-1.3 2.2-.3.8-.5 1.7-.5 2.7 0 1.2.2 2.3.5 3.3.4.9.8 1.7 1.5 2.4.6.6 1.4 1.1 2.2 1.4.8.3 1.7.5 2.7.5.5 0 1 0 1.5-.1s1-.2 1.5-.4 1-.4 1.5-.7c.5-.3.9-.7 1.3-1.1l-1-1.2c-.1-.2-.3-.3-.6-.3-.2 0-.4.1-.7.2-.2.1-.5.3-.8.4-.3.2-.6.3-1 .4-.4.1-.9.2-1.4.2-.5 0-1-.1-1.5-.3-.5-.2-.8-.4-1.2-.8-.3-.3-.6-.8-.8-1.3-.2-.5-.3-1.1-.4-1.9h8.7c.4 0 .6-.1.7-.3zm-9.3-1.7c.2-1 .5-1.8 1.1-2.4.6-.6 1.3-.8 2.3-.8.5 0 .9.1 1.3.3.4.2.7.4.9.7.2.3.4.6.6 1 .1.4.2.8.2 1.2h-6.4zm16.8-5c-.6.5-1.1 1.1-1.6 2l-.2-1.6c0-.3-.1-.5-.3-.7-.1-.1-.4-.2-.7-.2h-2V282h3.4v-8.7c.2-.4.3-.7.5-1 .2-.3.4-.5.6-.7.2-.2.5-.4.8-.5.3-.1.6-.2 1-.2.3 0 .5 0 .8.1.3 0 .5.1.6.1.1 0 .3 0 .3-.1.1-.1.2-.2.2-.3l.2-2.5c-.4-.3-.9-.4-1.6-.4-.7-.1-1.4.1-2 .6zm16.5.8c-.4-.5-.9-.8-1.5-1.1-.6-.3-1.3-.4-2-.4-.5 0-.9 0-1.3.1s-.8.2-1.1.4c-.4.2-.7.4-1 .6-.3.2-.6.5-.9.8l-.2-1.1c-.1-.4-.4-.6-.9-.6h-2.1V282h3.4v-10.2c.5-.5.9-.8 1.5-1.1.5-.3 1.1-.4 1.6-.4.8 0 1.4.2 1.8.7.4.5.6 1.1.6 2v8.9h3.4V273c0-.8-.1-1.5-.3-2.2-.3-.6-.6-1.1-1-1.6zm16.3 5.9c.1-.2.2-.5.2-1 0-1-.2-1.9-.5-2.7-.3-.8-.7-1.5-1.3-2-.5-.5-1.2-1-1.9-1.2-.7-.3-1.6-.4-2.5-.4-1.1 0-2 .2-2.8.5-.8.4-1.5.9-2.1 1.5-.6.6-1 1.4-1.3 2.2-.3.8-.5 1.7-.5 2.7 0 1.2.2 2.3.5 3.3.4.9.8 1.7 1.5 2.4.6.6 1.4 1.1 2.2 1.4.8.3 1.7.5 2.7.5.5 0 1 0 1.5-.1s1-.2 1.5-.4 1-.4 1.5-.7c.5-.3.9-.7 1.3-1.1l-1-1.2c-.1-.2-.3-.3-.6-.3-.2 0-.4.1-.7.2-.2.1-.5.3-.8.4-.3.2-.6.3-1 .4-.4.1-.9.2-1.4.2-.5 0-1-.1-1.5-.3-.5-.2-.8-.4-1.2-.8-.3-.3-.6-.8-.8-1.3-.2-.5-.3-1.1-.4-1.9h8.7c.4 0 .6-.1.7-.3zm-9.3-1.7c.2-1 .5-1.8 1.1-2.4.6-.6 1.3-.8 2.3-.8.5 0 .9.1 1.3.3.4.2.7.4.9.7.2.3.4.6.6 1 .1.4.2.8.2 1.2h-6.4zm19 5.7c-.1-.1-.1-.1-.2-.1s-.2 0-.2.1c-.1 0-.2.1-.3.2-.1.1-.2.1-.4.2-.1.1-.3.1-.5.1-.4 0-.7-.1-.9-.4-.2-.2-.3-.6-.3-1v-7.7h3.8v-2.4h-3.9v-4.4h-1.8c-.2 0-.4.1-.5.2-.1.1-.2.2-.3.4l-.7 3.8-2.3.4v1.3c0 .2.1.4.2.5.1.1.3.2.5.2h1.4v7.9c0 1.2.3 2.2 1 2.9.7.7 1.6 1 2.8 1 .7 0 1.3-.1 2-.3.6-.2 1.2-.5 1.7-.9l-1-1.6c0-.3 0-.3-.1-.4z" fill="#444"/><path d="M127.3 249.3c-3.9-17.9-19.8-31.3-38.8-31.3-14.2 0-26.7 7.5-33.7 18.7-3.2-2-7-3.2-11.1-3.2-9.5 0-17.6 6.3-20.2 15C10.4 249.2 0 260 0 273.3c0 13.7 11.1 24.8 24.8 24.8h96.3c13.7 0 24.8-11.1 24.8-24.8-.1-11.5-7.9-21.2-18.6-24zm-6.3 43.9H24.7c-10.9 0-19.8-8.9-19.8-19.8 0-10.6 8.3-19.3 18.8-19.8l3.5-.2 1-3.4c2.1-6.8 8.3-11.4 15.5-11.4 3 0 5.9.8 8.4 2.4l4.2 2.6 2.6-4.2c6.4-10.3 17.4-16.4 29.5-16.4 16.3 0 30.5 11.5 33.9 27.4l.6 3 3 .8c8.7 2.3 14.8 10.2 14.8 19.2.1 10.9-8.7 19.8-19.7 19.8zm835.3-38.9c-3.9-17.9-19.8-31.3-38.8-31.3-14.2 0-26.7 7.5-33.7 18.7-3.2-2-7-3.2-11.1-3.2-9.5 0-17.6 6.3-20.2 15-13.1.7-23.5 11.5-23.5 24.8 0 13.7 11.1 24.8 24.8 24.8h96.3c13.7 0 24.8-11.1 24.8-24.8-.1-11.5-7.9-21.2-18.6-24zm-6.3 43.9h-96.3c-10.9 0-19.8-8.9-19.8-19.8 0-10.6 8.3-19.3 18.8-19.8l3.5-.2 1-3.4c2.1-6.8 8.3-11.4 15.5-11.4 3 0 5.9.8 8.4 2.4l4.2 2.6 2.6-4.2c6.4-10.3 17.4-16.4 29.5-16.4 16.3 0 30.5 11.5 33.9 27.4l.6 3 3 .8c8.7 2.3 14.8 10.2 14.8 19.2.1 10.9-8.7 19.8-19.7 19.8z" fill="#444"/><path d="M877.882 266.805l4.93 13.922 4.905-13.922h5.194V286h-3.968v-5.247l.395-9.057L884.157 286h-2.716l-5.168-14.291.396 9.044V286h-3.955v-19.195h5.168zm24.798 19.459c-2.092 0-3.797-.642-5.115-1.925-1.31-1.283-1.964-2.993-1.964-5.129v-.369c0-1.432.276-2.711.83-3.836.554-1.134 1.336-2.004 2.347-2.61 1.019-.616 2.18-.923 3.48-.923 1.951 0 3.485.615 4.601 1.845 1.125 1.231 1.688 2.975 1.688 5.234v1.556h-9.084c.123.932.493 1.679 1.108 2.241.624.563 1.41.844 2.36.844 1.467 0 2.614-.532 3.441-1.595l1.872 2.096c-.572.808-1.345 1.441-2.321 1.898-.975.449-2.056.673-3.243.673zm-.435-11.707c-.756 0-1.371.254-1.846.764-.465.51-.764 1.24-.896 2.189h5.3v-.303c-.018-.844-.246-1.495-.686-1.952-.439-.465-1.063-.698-1.872-.698zm16.203 7.501c0-.466-.233-.83-.699-1.094-.457-.273-1.195-.514-2.215-.725-3.392-.712-5.089-2.154-5.089-4.324 0-1.266.523-2.321 1.569-3.165 1.055-.852 2.43-1.278 4.127-1.278 1.81 0 3.256.426 4.337 1.278 1.09.853 1.635 1.96 1.635 3.323h-3.81c0-.545-.176-.993-.528-1.345-.351-.36-.9-.541-1.648-.541-.641 0-1.138.145-1.489.436-.352.29-.528.659-.528 1.107 0 .422.198.765.594 1.028.404.255 1.081.479 2.03.673.949.184 1.749.395 2.399.632 2.013.739 3.019 2.018 3.019 3.837 0 1.301-.558 2.355-1.674 3.164-1.116.8-2.558 1.2-4.324 1.2-1.196 0-2.259-.211-3.191-.633-.922-.431-1.648-1.015-2.175-1.754-.527-.747-.791-1.551-.791-2.412h3.612c.036.677.286 1.195.752 1.555.466.361 1.09.541 1.872.541.729 0 1.279-.136 1.648-.409.378-.281.567-.646.567-1.094zm9.887-8.767c1.011-1.213 2.281-1.819 3.811-1.819 3.093 0 4.662 1.797 4.706 5.392V286h-3.81v-9.031c0-.817-.176-1.419-.527-1.806-.352-.395-.936-.593-1.754-.593-1.116 0-1.925.43-2.426 1.292V286h-3.81v-20.25h3.81v7.541z" fill="#444"/><path d="M802.166 249.434c.207.772 1.065 1.267 1.837 1.06.773-.207 1.268-1.064 1.061-1.837-2.485-9.273 3.005-18.922 12.374-21.433.773-.207 1.268-1.064 1.061-1.837-.207-.773-1.064-1.268-1.837-1.061-10.915 2.925-17.42 14.193-14.496 25.108zm-13.619 3.649c-4.944-18.449 6.016-37.433 24.466-42.376.772-.207 1.267-1.065 1.06-1.837-.207-.773-1.064-1.268-1.837-1.061-19.994 5.357-31.945 26.056-26.587 46.05.207.773 1.064 1.268 1.837 1.061.773-.207 1.268-1.064 1.061-1.837z" fill="#B7B7B7"/><path d="M772.029 257.509c-7.376-27.529 9.055-55.847 36.487-63.197.773-.207 1.268-1.065 1.061-1.837-.207-.773-1.065-1.268-1.837-1.061-29.075 7.791-46.399 37.797-38.608 66.871.207.773 1.064 1.268 1.837 1.061.772-.207 1.267-1.065 1.06-1.837z" fill="#B7B7B7"/><path d="M444.887 307.938l5.578 13.921 5.578-13.921h2.918V325h-2.25v-6.645l.211-7.171L451.32 325h-1.722l-5.59-13.781.222 7.136V325h-2.25v-17.062h2.907zM470.422 325c-.125-.25-.227-.695-.305-1.336-1.008 1.047-2.211 1.57-3.609 1.57-1.25 0-2.278-.351-3.082-1.054-.797-.711-1.196-1.61-1.196-2.696 0-1.32.5-2.343 1.5-3.07 1.008-.734 2.422-1.102 4.243-1.102h2.109v-.996c0-.757-.227-1.359-.68-1.804-.453-.453-1.121-.68-2.004-.68-.773 0-1.421.195-1.945.586-.523.391-.785.863-.785 1.418h-2.18c0-.633.223-1.242.668-1.828.453-.594 1.063-1.063 1.828-1.406.774-.344 1.621-.516 2.543-.516 1.461 0 2.606.367 3.434 1.102.828.726 1.258 1.73 1.289 3.011v5.836c0 1.164.148 2.09.445 2.777V325h-2.273zm-3.598-1.652c.68 0 1.324-.176 1.934-.528.609-.351 1.051-.808 1.324-1.371v-2.601h-1.699c-2.656 0-3.985.777-3.985 2.332 0 .679.227 1.211.68 1.593.453.383 1.035.575 1.746.575zm16.207-1.711c0-.586-.222-1.039-.668-1.36-.437-.328-1.207-.609-2.308-.843-1.094-.235-1.965-.516-2.614-.844-.64-.328-1.117-.719-1.429-1.172-.305-.453-.457-.992-.457-1.617 0-1.039.437-1.918 1.312-2.637.883-.719 2.008-1.078 3.375-1.078 1.438 0 2.602.371 3.492 1.113.899.742 1.348 1.692 1.348 2.848h-2.18c0-.594-.254-1.106-.761-1.535-.5-.43-1.133-.645-1.899-.645-.789 0-1.406.172-1.851.516-.446.344-.668.793-.668 1.347 0 .524.207.918.621 1.184.414.266 1.16.52 2.238.762 1.086.242 1.965.531 2.637.867.672.336 1.168.742 1.488 1.219.328.468.492 1.043.492 1.722 0 1.133-.453 2.043-1.359 2.731-.906.68-2.082 1.019-3.528 1.019-1.015 0-1.914-.179-2.695-.539-.781-.359-1.394-.859-1.84-1.5a3.68 3.68 0 0 1-.656-2.097h2.168c.039.726.328 1.304.867 1.734.547.422 1.266.633 2.156.633.821 0 1.477-.164 1.969-.492.5-.336.75-.782.75-1.336zm7.934-12.387v3.07h2.367v1.676h-2.367v7.863c0 .508.105.891.316 1.149.211.25.571.375 1.078.375.25 0 .594-.047 1.032-.141V325a6.298 6.298 0 0 1-1.664.234c-.969 0-1.7-.293-2.192-.879-.492-.585-.738-1.417-.738-2.496v-7.863h-2.309v-1.676h2.309v-3.07h2.168zm10.172 15.984c-1.719 0-3.117-.562-4.196-1.687-1.078-1.133-1.617-2.645-1.617-4.535v-.399c0-1.258.238-2.379.715-3.363.484-.992 1.156-1.766 2.016-2.32a5.064 5.064 0 0 1 2.812-.844c1.649 0 2.93.543 3.844 1.629.914 1.086 1.371 2.64 1.371 4.664v.902h-8.59c.031 1.25.395 2.262 1.09 3.035.703.766 1.594 1.149 2.672 1.149.766 0 1.414-.156 1.945-.469a4.886 4.886 0 0 0 1.395-1.242l1.324 1.031c-1.063 1.633-2.656 2.449-4.781 2.449zm-.27-11.367c-.875 0-1.609.321-2.203.961-.594.633-.961 1.524-1.102 2.672h6.352v-.164c-.062-1.102-.359-1.953-.891-2.555-.531-.609-1.25-.914-2.156-.914zm13.863.399a6.455 6.455 0 0 0-1.066-.082c-1.422 0-2.387.605-2.894 1.816v9h-2.168v-12.68h2.109l.035 1.465c.711-1.133 1.719-1.699 3.024-1.699.421 0 .742.055.96.164v2.016z" fill="#A7A7A7"/><path d="M559.949 292.854h9.434V295h-12.072v-19.906h2.638v17.76zm23.694-3.049h-8.34L573.43 295h-2.707l7.601-19.906h2.297L588.236 295h-2.693l-1.9-5.195zm-7.547-2.16h6.767l-3.39-9.311-3.377 9.311zM606.215 295h-2.639l-10.021-15.34V295h-2.639v-19.906h2.639l10.049 15.408v-15.408h2.611V295zm-46.266 34.854h9.434V332h-12.072v-19.906h2.638v17.76zm23.694-3.049h-8.34L573.43 332h-2.707l7.601-19.906h2.297L588.236 332h-2.693l-1.9-5.195zm-7.547-2.16h6.767l-3.39-9.311-3.377 9.311zM606.215 332h-2.639l-10.021-15.34V332h-2.639v-19.906h2.639l10.049 15.408v-15.408h2.611V332z" fill="#434343"/><path stroke="#B7B7B7" stroke-width="3" d="M617 284.5h207"/><path d="M916.9 58.4l-.3-.6c-1.6-3.3-2.9-6.2-6.2-7.1 1.6-1.6 2.7-3.9 2.7-6.4V8.5c0-4.7-3.8-8.5-8.5-8.5h-68c-4.7 0-8.5 3.8-8.5 8.5v35.8c0 2.6 1.1 4.8 3 6.3-3.8 1-5.4 4.6-6.8 7.8l-4.3 9.3v.5c0 2.9 0 8.9 7.5 8.9h88.1c3.9 0 5.8-3 5.8-8.9v-.6l-4.5-9.2zm-28.7-.4v1c0 1.1-.9 2-2 2h-1.9c-1.1 0-2-.9-2-2v-1c0-1.1.9-2 2-2h1.9c1.1 0 2 .9 2 2zm-7.9-.1v1c0 1.1-.9 2-2 2h-1.9c-1.1 0-2-.9-2-2v-1c0-1.1.9-2 2-2h1.9c1.1 0 2 .9 2 2zm-8 0v1c0 1.1-.9 2-2 2h-1.9c-1.1 0-2-.9-2-2v-1c0-1.1.9-2 2-2h1.9c1.1 0 2 .9 2 2zm-8 0v1c0 1.1-.9 2-2 2h-1.9c-1.1 0-2-.9-2-2v-1c0-1.1.9-2 2-2h1.9c1.1 0 2 .9 2 2zm-8 0v1c0 1.1-.9 2-2 2h-1.9c-1.1 0-2-.9-2-2v-1c0-1.1.9-2 2-2h1.9c1.1 0 2 .9 2 2zM833.1 8.5c0-1.9 1.6-3.5 3.5-3.5h68c1.9 0 3.5 1.6 3.5 3.5v35.8c0 2-1.6 3.5-2.5 3.5h-68c-2.7 0-4.5-1.4-4.5-3.5V8.5zm3.1 58.5c0 1.1-.9 2-2 2h-1.9c-1.1 0-2-.9-2-2v-1c0-1.1.9-2 2-2h1.9c1.1 0 2 .9 2 2v1zm.2-6.1c-1.1 0-2-.9-2-2v-1c0-1.1.9-2 2-2h1.9c1.1 0 2 .9 2 2v1c0 1.1-.9 2-2 2h-1.9zm7.8 6.1c0 1.1-.9 2-2 2h-1.9c-1.1 0-2-.9-2-2v-1c0-1.1.9-2 2-2h1.9c1.1 0 2 .9 2 2v1zm.2-6.1c-1.1 0-2-.9-2-2v-1c0-1.1.9-2 2-2h1.9c1.1 0 2 .9 2 2v1c0 1.1-.9 2-2 2h-1.9zm47.8 6.1c0 1.1-.9 2-2 2h-41.9c-1.1 0-2-.9-2-2v-1c0-1.1.9-2 2-2h41.9c1.1 0 2 .9 2 2v1zm.1-6c-1.1 0-2-.9-2-2v-1c0-1.1.9-2 2-2h1.9c1.1 0 2 .9 2 2v1c0 1.1-.9 2-2 2h-1.9zm7.9 6c0 1.1-.9 2-2 2h-1.9c-1.1 0-2-.9-2-2v-1c0-1.1.9-2 2-2h1.9c1.1 0 2 .9 2 2v1zm.1-6c-1.1 0-2-.9-2-2v-1c0-1.1.9-2 2-2h1.9c1.1 0 2 .9 2 2v1c0 1.1-.9 2-2 2h-1.9zm7.9 6c0 1.1-.9 2-2 2h-1.9c-1.1 0-2-.9-2-2v-1c0-1.1.9-2 2-2h1.9c1.1 0 2 .9 2 2v1z" fill="#444"/><path d="M818.6 99c.8 0 1.5-.7 1.5-1.5s-.7-1.5-1.5-1.5c-9.6 0-17.5-7.8-17.5-17.5 0-.8-.7-1.5-1.5-1.5s-1.5.7-1.5 1.5c0 11.3 9.2 20.5 20.5 20.5zm0 14.1c-19.1 0-34.6-15.5-34.6-34.6 0-.8-.7-1.5-1.5-1.5s-1.5.7-1.5 1.5c0 20.7 16.9 37.6 37.6 37.6.8 0 1.5-.7 1.5-1.5s-.7-1.5-1.5-1.5z" fill="#B7B7B7"/><path d="M818.6 130.2c-28.5 0-51.6-23.2-51.6-51.6 0-.8-.7-1.5-1.5-1.5s-1.5.7-1.5 1.5c0 30.1 24.5 54.6 54.6 54.6.8 0 1.5-.7 1.5-1.5s-.7-1.5-1.5-1.5zm-288.983 55.636c-.565-.566-1.555-.566-2.121 0-.566.565-.566 1.555 0 2.121 6.788 6.788 6.859 17.89 0 24.749-.566.565-.566 1.555 0 2.121.566.566 1.556.566 2.121 0 7.991-7.99 7.991-21.001 0-28.991zm9.97-9.971c13.506 13.506 13.506 35.426 0 48.932-.565.566-.565 1.556 0 2.121.566.566 1.556.566 2.122 0 14.637-14.637 14.637-38.537 0-53.174-.566-.566-1.556-.566-2.122 0-.565.566-.565 1.556 0 2.121z" fill="#B7B7B7"/><path d="M551.679 163.774c20.153 20.152 20.082 52.891 0 72.973-.566.566-.566 1.556 0 2.122.566.565 1.556.565 2.121 0 21.284-21.284 21.284-55.933 0-77.216-.565-.566-1.555-.566-2.121 0-.566.565-.566 1.555 0 2.121zm-134.888 50.982c.566.566 1.556.566 2.121 0 .566-.565.566-1.555 0-2.121-6.788-6.788-6.859-17.89 0-24.749.566-.565.566-1.555 0-2.121-.565-.566-1.555-.566-2.121 0-7.99 7.99-7.99 21.001 0 28.991zm-9.97 9.97c-13.506-13.505-13.506-35.426 0-48.931.566-.566.566-1.556 0-2.122-.566-.565-1.556-.565-2.121 0-14.638 14.637-14.638 38.538 0 53.175.565.565 1.555.565 2.121 0 .566-.566.566-1.556 0-2.122z" fill="#B7B7B7"/><path d="M394.729 236.818c-20.152-20.153-20.082-52.892 0-72.973.566-.566.566-1.556 0-2.122-.566-.565-1.556-.565-2.121 0-21.284 21.284-21.284 55.932 0 77.216.565.566 1.555.566 2.121 0 .566-.565.566-1.555 0-2.121zm-245.43-13.45c-.693-.4-1.649-.144-2.049.549-.4.693-.144 1.649.549 2.049 8.314 4.8 11.256 15.505 6.406 23.906-.4.692-.144 1.649.549 2.049.693.4 1.649.143 2.049-.549 5.65-9.787 2.282-22.354-7.504-28.004zm7.05-12.211c16.541 9.55 22.214 30.723 12.664 47.265-.4.692-.144 1.649.549 2.049.693.4 1.649.143 2.049-.549 10.35-17.927 4.165-41.013-13.762-51.363-.693-.4-1.649-.144-2.049.549-.4.693-.144 1.649.549 2.049z" fill="#B7B7B7"/><path d="M164.899 196.348c24.682 14.25 33.087 45.892 18.887 70.487-.4.693-.144 1.649.549 2.049.693.4 1.649.144 2.049-.549 15.05-26.067 6.082-59.535-19.985-74.585-.693-.4-1.649-.144-2.049.549-.4.693-.144 1.649.549 2.049z" fill="#B7B7B7"/><path d="M905.5 412h-68c-4.7 0-8.5 3.8-8.5 8.5v39.8c0 4.7 3.8 8.5 8.5 8.5h23.2v5.9h-12c-1.9 0-3.5 1.6-3.5 3.5s1.6 3.5 3.5 3.5h42c1.9 0 3.5-1.6 3.5-3.5s-1.6-3.5-3.5-3.5h-12v-5.9h26.8c4.7 0 8.5-3.8 8.5-8.5v-39.8c0-4.7-3.8-8.5-8.5-8.5zm3.5 48.3c0 1.9-1.6 3.5-3.5 3.5h-68c-1.9 0-3.5-1.6-3.5-3.5v-39.8c0-1.9 1.6-3.5 3.5-3.5h68c1.9 0 3.5 1.6 3.5 3.5v39.8zm39-48.3h-22.7c-3.8 0-7 3.2-7 7v54.2c0 3.8 3.2 7 7 7H948c3.8 0 7-3.2 7-7V419c0-3.9-3.2-7-7-7zm-11.8 56.9c-2.7 0-4.9-2.2-4.9-4.9s2.2-4.9 4.9-4.9 4.9 2.2 4.9 4.9-2.2 4.9-4.9 4.9zm14-33.6c0 1.7-1.4 3-3 3h-21.1c-1.7 0-3-1.3-3-3v-1.5c0-1.7 1.3-3 3-3h21.1c1.6 0 3 1.3 3 3v1.5zm0-12c0 1.7-1.4 3-3 3h-21.1c-1.7 0-3-1.3-3-3v-1.5c0-1.7 1.3-3 3-3h21.1c1.6 0 3 1.3 3 3v1.5z" fill="#444"/><path d="M611.391 197.094l6.507 16.242 6.508-16.242h3.405V217h-2.625v-7.752l.246-8.367L618.896 217h-2.009l-6.522-16.078.26 8.326V217H608v-19.906h3.391zm26.797 20.179c-2.006 0-3.637-.656-4.895-1.968-1.258-1.322-1.887-3.086-1.887-5.291v-.465c0-1.468.278-2.776.834-3.924.565-1.158 1.349-2.06 2.352-2.707a5.917 5.917 0 0 1 3.281-.984c1.923 0 3.418.633 4.484 1.9 1.067 1.267 1.6 3.081 1.6 5.441v1.053h-10.021c.036 1.458.46 2.639 1.271 3.541.82.893 1.859 1.34 3.117 1.34.893 0 1.65-.182 2.27-.547a5.716 5.716 0 0 0 1.627-1.449l1.545 1.203c-1.24 1.905-3.099 2.857-5.578 2.857zm-.315-13.261c-1.021 0-1.878.373-2.57 1.121-.693.738-1.121 1.777-1.285 3.117h7.41v-.191c-.073-1.286-.42-2.279-1.039-2.981-.62-.711-1.459-1.066-2.516-1.066zm17.637 9.064c0-.683-.26-1.212-.78-1.586-.51-.383-1.408-.711-2.693-.984-1.276-.274-2.292-.602-3.049-.985-.747-.382-1.303-.838-1.668-1.367-.355-.528-.533-1.157-.533-1.886 0-1.213.511-2.238 1.531-3.077 1.03-.838 2.343-1.257 3.938-1.257 1.677 0 3.035.433 4.074 1.298 1.048.866 1.572 1.974 1.572 3.323h-2.543c0-.693-.296-1.29-.888-1.791-.584-.502-1.322-.752-2.215-.752-.921 0-1.641.2-2.16.601-.52.401-.78.925-.78 1.573 0 .61.242 1.07.725 1.38.483.31 1.354.606 2.611.889 1.267.283 2.293.62 3.077 1.012.783.392 1.362.866 1.736 1.422.383.547.574 1.216.574 2.009 0 1.322-.529 2.384-1.586 3.186-1.057.793-2.429 1.189-4.115 1.189-1.185 0-2.233-.209-3.145-.628-.911-.42-1.627-1.003-2.146-1.75a4.292 4.292 0 0 1-.766-2.448h2.53c.045.848.382 1.522 1.011 2.024.638.492 1.477.738 2.516.738.957 0 1.723-.191 2.297-.574.583-.392.875-.912.875-1.559zm8.353-9.078c1.121-1.376 2.58-2.064 4.375-2.064 3.127 0 4.703 1.763 4.731 5.291V217h-2.53v-9.789c-.009-1.066-.255-1.855-.738-2.365-.474-.511-1.217-.766-2.228-.766-.821 0-1.541.219-2.161.656a4.472 4.472 0 0 0-1.449 1.723V217h-2.529v-21h2.529v7.998zm26.1 4.129c-2.251-.647-3.892-1.44-4.922-2.379-1.021-.948-1.531-2.115-1.531-3.5 0-1.568.624-2.862 1.873-3.883 1.258-1.03 2.889-1.545 4.894-1.545 1.368 0 2.584.265 3.651.793 1.075.529 1.905 1.258 2.488 2.188.592.929.889 1.946.889 3.049h-2.639c0-1.204-.383-2.147-1.148-2.83-.766-.693-1.846-1.04-3.241-1.04-1.294 0-2.306.288-3.035.862-.72.565-1.08 1.353-1.08 2.365 0 .811.342 1.499 1.026 2.064.692.556 1.863 1.067 3.513 1.532 1.659.465 2.953.98 3.883 1.545.939.556 1.631 1.207 2.078 1.955.456.747.684 1.627.684 2.638 0 1.614-.629 2.908-1.887 3.883-1.258.966-2.939 1.449-5.045 1.449-1.367 0-2.643-.259-3.828-.779-1.185-.529-2.101-1.249-2.748-2.16-.638-.912-.957-1.946-.957-3.104h2.639c0 1.204.442 2.156 1.326 2.858.893.693 2.082 1.039 3.568 1.039 1.385 0 2.447-.283 3.186-.848.738-.565 1.107-1.335 1.107-2.31 0-.976-.342-1.727-1.025-2.256-.684-.538-1.924-1.067-3.719-1.586zm16.625 0c-2.251-.647-3.892-1.44-4.922-2.379-1.021-.948-1.531-2.115-1.531-3.5 0-1.568.624-2.862 1.873-3.883 1.258-1.03 2.889-1.545 4.894-1.545 1.368 0 2.584.265 3.651.793 1.075.529 1.905 1.258 2.488 2.188.592.929.889 1.946.889 3.049h-2.639c0-1.204-.383-2.147-1.148-2.83-.766-.693-1.846-1.04-3.241-1.04-1.294 0-2.306.288-3.035.862-.72.565-1.08 1.353-1.08 2.365 0 .811.342 1.499 1.025 2.064.693.556 1.864 1.067 3.514 1.532 1.659.465 2.953.98 3.883 1.545.939.556 1.631 1.207 2.078 1.955.456.747.684 1.627.684 2.638 0 1.614-.629 2.908-1.887 3.883-1.258.966-2.939 1.449-5.045 1.449-1.367 0-2.643-.259-3.828-.779-1.185-.529-2.101-1.249-2.748-2.16-.638-.912-.957-1.946-.957-3.104h2.639c0 1.204.442 2.156 1.326 2.858.893.693 2.082 1.039 3.568 1.039 1.385 0 2.447-.283 3.186-.848.738-.565 1.107-1.335 1.107-2.31 0-.976-.342-1.727-1.025-2.256-.684-.538-1.924-1.067-3.719-1.586zM720.164 217h-2.625v-19.906h2.625V217zm4.813 0v-19.906h5.619c1.731 0 3.263.383 4.593 1.148 1.331.766 2.357 1.855 3.077 3.268.729 1.412 1.098 3.035 1.107 4.867v1.271c0 1.878-.365 3.523-1.094 4.936-.72 1.413-1.754 2.497-3.103 3.254-1.34.756-2.903 1.144-4.69 1.162h-5.509zm2.625-17.746v15.599h2.761c2.024 0 3.596-.628 4.717-1.886 1.13-1.258 1.695-3.049 1.695-5.373v-1.162c0-2.261-.533-4.015-1.599-5.264-1.058-1.258-2.561-1.896-4.512-1.914h-3.062z" fill="#A7A7A7"/><path d="M618 322.5h117.5v115h84" stroke="#B7B7B7" stroke-width="3"/><path d="M650.082 133.307c-2.251-.647-3.892-1.44-4.922-2.379-1.021-.948-1.531-2.115-1.531-3.5 0-1.568.624-2.862 1.873-3.883 1.258-1.03 2.889-1.545 4.894-1.545 1.368 0 2.584.264 3.651.793 1.075.529 1.905 1.258 2.488 2.187.593.93.889 1.946.889 3.049h-2.639c0-1.203-.383-2.146-1.148-2.83-.766-.692-1.846-1.039-3.241-1.039-1.294 0-2.306.287-3.035.861-.72.566-1.08 1.354-1.08 2.366 0 .811.342 1.499 1.026 2.064.692.556 1.864 1.067 3.513 1.531 1.659.465 2.953.98 3.883 1.545.939.556 1.632 1.208 2.078 1.955.456.748.684 1.627.684 2.639 0 1.613-.629 2.908-1.887 3.883-1.258.966-2.939 1.449-5.045 1.449-1.367 0-2.643-.26-3.828-.779-1.185-.529-2.101-1.249-2.748-2.16-.638-.912-.957-1.946-.957-3.104h2.639c0 1.203.442 2.156 1.326 2.858.893.692 2.083 1.039 3.568 1.039 1.386 0 2.447-.283 3.186-.848.738-.565 1.107-1.335 1.107-2.311 0-.975-.342-1.727-1.025-2.255-.684-.538-1.923-1.067-3.719-1.586zm16.625 0c-2.251-.647-3.892-1.44-4.922-2.379-1.021-.948-1.531-2.115-1.531-3.5 0-1.568.624-2.862 1.873-3.883 1.258-1.03 2.889-1.545 4.894-1.545 1.368 0 2.584.264 3.651.793 1.075.529 1.905 1.258 2.488 2.187.593.93.889 1.946.889 3.049h-2.639c0-1.203-.383-2.146-1.148-2.83-.766-.692-1.846-1.039-3.241-1.039-1.294 0-2.306.287-3.035.861-.72.566-1.08 1.354-1.08 2.366 0 .811.342 1.499 1.026 2.064.692.556 1.864 1.067 3.513 1.531 1.659.465 2.953.98 3.883 1.545.939.556 1.632 1.208 2.078 1.955.456.748.684 1.627.684 2.639 0 1.613-.629 2.908-1.887 3.883-1.258.966-2.939 1.449-5.045 1.449-1.367 0-2.643-.26-3.828-.779-1.185-.529-2.101-1.249-2.748-2.16-.638-.912-.957-1.946-.957-3.104h2.639c0 1.203.442 2.156 1.326 2.858.893.692 2.083 1.039 3.568 1.039 1.386 0 2.447-.283 3.186-.848.738-.565 1.107-1.335 1.107-2.311 0-.975-.342-1.727-1.025-2.255-.684-.538-1.923-1.067-3.719-1.586zm13.576 8.873h-2.625v-19.907h2.625v19.907zm4.813 0v-19.907h5.619c1.732 0 3.263.383 4.594 1.149 1.33.766 2.356 1.855 3.076 3.267.729 1.413 1.098 3.036 1.107 4.868v1.271c0 1.878-.364 3.523-1.094 4.936-.72 1.412-1.754 2.497-3.103 3.254-1.34.756-2.903 1.143-4.69 1.162h-5.509zm2.625-17.746v15.599h2.761c2.024 0 3.596-.629 4.717-1.887 1.13-1.257 1.696-3.048 1.696-5.373v-1.162c0-2.26-.534-4.015-1.6-5.263-1.057-1.258-2.561-1.896-4.512-1.914h-3.062z" fill="#A7A7A7"/><path d="M451.9 201H436c-1.7 0-3 1.3-3 3v28.7c0 1.5 1.1 2.8 2.6 3v11.4c0 1.1.9 2 2 2h12.7c1.1 0 2-.9 2-2v-11.4c1.5-.2 2.7-1.4 2.7-3V204c-.1-1.6-1.4-3-3.1-3zm-11.3 13.4c1 0 1.9.9 1.9 1.9 0 .9-.6 1.6-1.3 1.8 0 2.7.7 3 1.8 3.4.2.1.4.2.7.3v-11.3h-1.6l2.2-3.8 2.2 3.8h-1.6v9.2c.1-.1.3-.1.4-.2.9-.5 2.1-1.1 2.1-3.7h-1.1v-3.2h3.2v3.2h-1c0 3.3-1.5 4.1-2.7 4.7-.4.2-.8.4-.9.7v4.8c.8.2 1.4 1 1.4 1.8 0 1.1-.9 1.9-1.9 1.9-1.1 0-1.9-.9-1.9-1.9 0-.8.5-1.5 1.2-1.8v-3c-.4-.2-.7-.4-1.1-.5-1.5-.6-2.5-1-2.5-4.4-.8-.2-1.4-.9-1.4-1.8 0-1.1.9-1.9 1.9-1.9zm-3 32.7v-11.3h12.7v11.3h-12.7z" fill="#434343"/><path d="M243.332 216.816h1.9c1.194-.018 2.133-.332 2.817-.943.683-.611 1.025-1.435 1.025-2.475 0-2.333-1.162-3.5-3.486-3.5-1.094 0-1.969.315-2.625.944-.647.62-.971 1.444-.971 2.474h-2.529c0-1.576.574-2.884 1.723-3.923 1.157-1.049 2.625-1.573 4.402-1.573 1.877 0 3.35.497 4.416 1.491 1.066.993 1.6 2.374 1.6 4.142 0 .866-.283 1.705-.848 2.516-.556.811-1.317 1.417-2.283 1.818 1.093.346 1.937.921 2.529 1.723.602.802.902 1.782.902 2.939 0 1.787-.583 3.204-1.75 4.252-1.166 1.048-2.684 1.572-4.552 1.572-1.869 0-3.391-.505-4.567-1.517-1.167-1.012-1.75-2.347-1.75-4.006h2.543c0 1.048.342 1.887 1.026 2.516.683.629 1.599.943 2.748.943 1.221 0 2.155-.319 2.802-.957.647-.638.971-1.554.971-2.748 0-1.158-.355-2.046-1.066-2.666-.711-.62-1.737-.939-3.077-.957h-1.9v-2.065zm27.398 8.573c-.674.966-1.617 1.69-2.83 2.173-1.203.474-2.606.711-4.211.711-1.622 0-3.062-.378-4.32-1.134-1.258-.766-2.233-1.851-2.926-3.254-.683-1.404-1.034-3.031-1.052-4.881v-1.736c0-2.999.697-5.323 2.091-6.973 1.404-1.65 3.373-2.475 5.907-2.475 2.078 0 3.75.534 5.017 1.6 1.267 1.057 2.042 2.561 2.324 4.512h-2.625c-.492-2.634-2.059-3.952-4.703-3.952-1.759 0-3.094.62-4.006 1.86-.902 1.23-1.358 3.017-1.367 5.359v1.627c0 2.233.511 4.011 1.532 5.332 1.02 1.313 2.401 1.969 4.142 1.969.985 0 1.846-.109 2.584-.328.738-.219 1.349-.588 1.832-1.108v-4.47h-4.607v-2.133h7.218v7.301zm4.499 4.32h-2.174l8.312-21.615h2.16l-8.298 21.615zm14.068-3.855h9.433V228h-12.072v-19.906h2.639v17.76zm22.408-15.6h-6.398V228h-2.612v-17.746h-6.384v-2.16h15.394v2.16zm14.205 8.545h-8.627v7.055h10.022V228h-12.647v-19.906h12.51v2.16h-9.885v6.398h8.627v2.147z" fill="#A7A7A7"/></svg>