<svg version="1.1" id="Layer_1" xmlns="http://www.w3.org/2000/svg" x="0" y="0" viewBox="0 0 800 400" xml:space="preserve"><style>.st1{fill:#b7b7b7}</style><path class="st1" d="M527.5 258.6h98v3h-98z"/><path d="M451.9 254.2c2.7 0 5.3.7 7.5 1.8l-5.7-9.1c-2.5-3.6-6.9-7.3-10.9-7.3h-75c-4 0-8.4 3.1-10.9 7.3l-5.7 9.1c2.2-1.2 4.8-1.8 7.5-1.8h93.2zm13.7 13.9c-1.2-6.5-6.9-11.5-13.7-11.5h-93.1c-6.8 0-12.5 5-13.7 11.5-.1.8-.2 1.6-.2 2.5 0 7.7 6.3 13.9 13.9 13.9h93.1c7.7 0 13.9-6.3 13.9-13.9 0-.9-.1-1.7-.2-2.5zm-100.1 3c0 2-1.6 3.7-3.7 3.7h-4.3c-2 0-3.7-1.6-3.7-3.7 0-2 1.6-3.7 3.7-3.7h4.3c2 .1 3.7 1.7 3.7 3.7zm17 0c0 2-1.6 3.7-3.7 3.7h-4.3c-2 0-3.7-1.6-3.7-3.7 0-2 1.6-3.7 3.7-3.7h4.3c2 .1 3.7 1.7 3.7 3.7zm36.3 2.5c-1.4 0-2.5-1.1-2.5-2.5s1.1-2.5 2.5-2.5 2.5 1.1 2.5 2.5-1.2 2.5-2.5 2.5zm8.4 0c-1.4 0-2.5-1.1-2.5-2.5s1.1-2.5 2.5-2.5 2.5 1.1 2.5 2.5-1.1 2.5-2.5 2.5zm8.5 0c-1.4 0-2.5-1.1-2.5-2.5s1.1-2.5 2.5-2.5 2.5 1.1 2.5 2.5-1.1 2.5-2.5 2.5zm8.5 0c-1.4 0-2.5-1.1-2.5-2.5s1.1-2.5 2.5-2.5 2.5 1.1 2.5 2.5-1.2 2.5-2.5 2.5zm8.4 0c-1.4 0-2.5-1.1-2.5-2.5s1.1-2.5 2.5-2.5 2.5 1.1 2.5 2.5-1.1 2.5-2.5 2.5zm-75.5-36.4l-1.2-48.7v-.1c-.1-1.5-1.3-2.7-2.8-2.7-1.5 0-2.7 1.2-2.8 2.7v.1l-1.2 48.7h8zm64.4 0l-1.2-48.7v-.1c-.1-1.5-1.3-2.7-2.8-2.7-1.5 0-2.7 1.2-2.8 2.7v.1l-1.2 48.7h8zm-274.6 17c2.7 0 5.3.7 7.5 1.8l-5.7-9.1c-2.5-3.6-6.9-7.3-10.9-7.3h-75c-4 0-8.4 3.1-10.9 7.3l-5.7 9.1c2.2-1.2 4.8-1.8 7.5-1.8h93.2zm13.7 13.9c-1.2-6.5-6.9-11.5-13.7-11.5H73.8c-6.8 0-12.5 5-13.7 11.5-.1.8-.2 1.6-.2 2.5 0 7.7 6.3 13.9 13.9 13.9h93.1c7.7 0 13.9-6.3 13.9-13.9 0-.9-.1-1.7-.2-2.5zm-100.1 3c0 2-1.6 3.7-3.7 3.7h-4.3c-2 0-3.7-1.6-3.7-3.7 0-2 1.6-3.7 3.7-3.7h4.3c2 .1 3.7 1.7 3.7 3.7zm17 0c0 2-1.6 3.7-3.7 3.7h-4.3c-2 0-3.7-1.6-3.7-3.7 0-2 1.6-3.7 3.7-3.7h4.3c2 .1 3.7 1.7 3.7 3.7zm36.3 2.5c-1.4 0-2.5-1.1-2.5-2.5s1.1-2.5 2.5-2.5 2.5 1.1 2.5 2.5-1.2 2.5-2.5 2.5zm8.4 0c-1.4 0-2.5-1.1-2.5-2.5s1.1-2.5 2.5-2.5 2.5 1.1 2.5 2.5-1.1 2.5-2.5 2.5zm8.5 0c-1.4 0-2.5-1.1-2.5-2.5s1.1-2.5 2.5-2.5 2.5 1.1 2.5 2.5-1.1 2.5-2.5 2.5zm8.5 0c-1.4 0-2.5-1.1-2.5-2.5s1.1-2.5 2.5-2.5 2.5 1.1 2.5 2.5-1.2 2.5-2.5 2.5zm8.4 0c-1.4 0-2.5-1.1-2.5-2.5s1.1-2.5 2.5-2.5 2.5 1.1 2.5 2.5-1.1 2.5-2.5 2.5zm-11.1-36.4l-1.2-48.7v-.1c-.1-1.5-1.3-2.7-2.8-2.7-1.5 0-2.7 1.2-2.8 2.7v.1l-1.2 48.7h8z" fill="#434343"/><path d="M697.5 215.7h-68c-4.7 0-8.5 3.8-8.5 8.5V264c0 4.7 3.8 8.5 8.5 8.5h23.2v5.9h-12c-1.9 0-3.5 1.6-3.5 3.5s1.6 3.5 3.5 3.5h42c1.9 0 3.5-1.6 3.5-3.5s-1.6-3.5-3.5-3.5h-12v-5.9h26.8c4.7 0 8.5-3.8 8.5-8.5v-39.8c0-4.7-3.8-8.5-8.5-8.5zM701 264c0 1.9-1.6 3.5-3.5 3.5h-68c-1.9 0-3.5-1.6-3.5-3.5v-39.8c0-1.9 1.6-3.5 3.5-3.5h68c1.9 0 3.5 1.6 3.5 3.5V264zm39-48.3h-22.7c-3.8 0-7 3.2-7 7v54.2c0 3.8 3.2 7 7 7H740c3.8 0 7-3.2 7-7v-54.2c0-3.9-3.2-7-7-7zm-11.8 56.9c-2.7 0-4.9-2.2-4.9-4.9s2.2-4.9 4.9-4.9 4.9 2.2 4.9 4.9-2.2 4.9-4.9 4.9zm14-33.6c0 1.7-1.4 3-3 3h-21.1c-1.7 0-3-1.3-3-3v-1.5c0-1.7 1.3-3 3-3h21.1c1.6 0 3 1.3 3 3v1.5zm0-12c0 1.7-1.4 3-3 3h-21.1c-1.7 0-3-1.3-3-3v-1.5c0-1.7 1.3-3 3-3h21.1c1.6 0 3 1.3 3 3v1.5zm-267 39h8.3v2.3h-11.1V249h2.8v17zm27 2.3H500c-.2 0-.4-.1-.6-.2-.2-.1-.3-.3-.4-.5l-1.7-4.5h-8.6l-1.7 4.5c-.1.2-.2.3-.3.5-.2.1-.4.2-.6.2h-2.2l7.7-19.4h2.8l7.8 19.4zm-12.7-7.2h7.1l-2.9-7.6c-.1-.2-.2-.5-.3-.8-.1-.3-.2-.7-.3-1-.1.4-.2.7-.3 1.1l-.3.9-3 7.4zm17.2-12.1c.1.1.3.2.4.4l11 14.3V249h2.4v19.4h-1.4c-.2 0-.4 0-.5-.1-.1-.1-.3-.2-.4-.4l-11-14.3v14.8h-2.4V249h1.9z" fill="#444"/><path class="st1" d="M356.5 200.9c.6.6 1.5.6 2.1 0s.6-1.5 0-2.1c-6.8-6.8-6.8-17.9 0-24.7.6-.6.6-1.5 0-2.1-.6-.6-1.5-.6-2.1 0-8 7.9-8 20.9 0 28.9zM344.4 213c.6.6 1.5.6 2.1 0 .6-.6.6-1.5 0-2.1-13.5-13.5-13.5-35.4 0-48.9.6-.6.6-1.5 0-2.1s-1.5-.6-2.1 0c-14.6 14.6-14.6 38.4 0 53.1z"/><path class="st1" d="M332.3 225.1c.6.6 1.5.6 2.1 0 .6-.6.6-1.5 0-2.1-20.1-20.1-20.1-52.9 0-73 .6-.6.6-1.5 0-2.1s-1.5-.6-2.1 0c-21.3 21.2-21.3 55.9 0 77.2zM168 171.9c-.6-.6-1.5-.6-2.1 0s-.6 1.5 0 2.1c6.8 6.8 6.8 17.9 0 24.7-.6.6-.6 1.5 0 2.1s1.5.6 2.1 0c8-7.9 8-20.9 0-28.9zm12.1-12c-.6-.6-1.5-.6-2.1 0-.6.6-.6 1.5 0 2.1 13.5 13.5 13.5 35.4 0 48.9-.6.6-.6 1.5 0 2.1s1.5.6 2.1 0c14.6-14.7 14.6-38.5 0-53.1z"/><path class="st1" d="M192.1 147.8c-.6-.6-1.5-.6-2.1 0-.6.6-.6 1.5 0 2.1 20.1 20.1 20.1 52.9 0 73-.6.6-.6 1.5 0 2.1s1.5.6 2.1 0c21.3-21.2 21.3-55.9 0-77.2z"/><path d="M247.6 177.5c-.1.1-.2.3-.3.3-.1.1-.2.1-.4.1s-.4-.1-.6-.2-.5-.3-.8-.5c-.3-.2-.7-.4-1.1-.5-.4-.2-1-.2-1.6-.2-.6 0-1.1.1-1.5.2-.4.2-.8.4-1.1.6s-.5.6-.7.9c-.2.4-.2.8-.2 1.2 0 .5.1 1 .4 1.3.3.3.6.6 1.1.9.4.3.9.5 1.5.7.6.2 1.1.4 1.7.6.6.2 1.2.4 1.7.7.6.3 1.1.6 1.5 1s.8.9 1.1 1.4c.3.6.4 1.2.4 2.1 0 .9-.1 1.7-.4 2.4-.3.8-.7 1.4-1.3 2-.6.6-1.3 1-2.1 1.3-.8.3-1.8.5-2.8.5-.6 0-1.2-.1-1.8-.2-.6-.1-1.1-.3-1.7-.5-.5-.2-1-.5-1.5-.8-.5-.3-.9-.7-1.2-1.1l.8-1.3.3-.3c.1-.1.2-.1.4-.1s.4.1.7.3.6.4.9.7c.4.2.8.5 1.3.7.5.2 1.2.3 1.9.3.6 0 1.2-.1 1.6-.2.5-.2.9-.4 1.2-.7s.6-.7.8-1.1c.2-.4.3-.9.3-1.4 0-.6-.1-1.1-.4-1.4-.3-.4-.6-.7-1.1-.9-.4-.2-.9-.5-1.5-.6-.6-.2-1.1-.4-1.7-.5-.6-.2-1.2-.4-1.7-.7-.6-.2-1.1-.6-1.5-1-.4-.4-.8-.9-1.1-1.5s-.4-1.3-.4-2.2c0-.7.1-1.4.4-2 .3-.7.7-1.2 1.2-1.7s1.2-.9 1.9-1.2c.8-.3 1.6-.5 2.6-.5 1.1 0 2.1.2 3 .5.9.3 1.7.8 2.4 1.5l-.6 1.1zm14.9 0c-.1.1-.2.3-.3.3-.1.1-.2.1-.4.1s-.4-.1-.6-.2-.5-.3-.8-.5c-.3-.2-.7-.4-1.1-.5-.4-.2-1-.2-1.6-.2-.6 0-1.1.1-1.5.2-.4.2-.8.4-1.1.6s-.5.6-.7.9c-.2.4-.2.8-.2 1.2 0 .5.1 1 .4 1.3.3.3.6.6 1.1.9.4.3.9.5 1.5.7.6.2 1.1.4 1.7.6.6.2 1.2.4 1.7.7.6.3 1.1.6 1.5 1s.8.9 1.1 1.4c.3.6.4 1.2.4 2.1 0 .9-.1 1.7-.4 2.4-.3.8-.7 1.4-1.3 2-.6.6-1.3 1-2.1 1.3-.8.3-1.8.5-2.8.5-.6 0-1.2-.1-1.8-.2-.6-.1-1.1-.3-1.7-.5-.5-.2-1-.5-1.5-.8-.5-.3-.9-.7-1.2-1.1l.8-1.3.3-.3c.1-.1.2-.1.4-.1s.4.1.7.3.6.4.9.7c.4.2.8.5 1.3.7.5.2 1.2.3 1.9.3.6 0 1.2-.1 1.6-.2.5-.2.9-.4 1.2-.7s.6-.7.8-1.1c.2-.4.3-.9.3-1.4 0-.6-.1-1.1-.4-1.4-.3-.4-.6-.7-1.1-.9-.4-.2-.9-.5-1.5-.6-.6-.2-1.1-.4-1.7-.5-.6-.2-1.2-.4-1.7-.7-.6-.2-1.1-.6-1.5-1-.4-.4-.8-.9-1.1-1.5s-.4-1.3-.4-2.2c0-.7.1-1.4.4-2 .3-.7.7-1.2 1.2-1.7s1.2-.9 1.9-1.2c.8-.3 1.6-.5 2.6-.5 1.1 0 2.1.2 3 .5.9.3 1.7.8 2.4 1.5l-.6 1.1zm7.6 16.5h-2.8v-19.7h2.8V194zm22-9.8c0 1.5-.2 2.8-.7 4-.5 1.2-1.1 2.2-2 3.1s-1.9 1.5-3.1 2c-1.2.5-2.5.7-4 .7H275v-19.7h7.4c1.5 0 2.8.2 4 .7 1.2.5 2.2 1.1 3.1 2 .9.9 1.5 1.9 2 3.1.4 1.3.6 2.6.6 4.1zm-2.9 0c0-1.2-.2-2.2-.5-3.2-.3-.9-.8-1.7-1.4-2.4s-1.3-1.1-2.2-1.5c-.8-.3-1.8-.5-2.8-.5h-4.5v15.1h4.5c1 0 2-.2 2.8-.5.8-.3 1.6-.8 2.2-1.5.6-.6 1.1-1.4 1.4-2.4.4-.9.5-2 .5-3.1z" fill="#999"/></svg>